<?xml version="1.0" encoding="UTF-8" standalone="no"?>
<!-- Created with Inkscape (http://www.inkscape.org/) -->

<svg
   xmlns:dc="http://purl.org/dc/elements/1.1/"
   xmlns:cc="http://creativecommons.org/ns#"
   xmlns:rdf="http://www.w3.org/1999/02/22-rdf-syntax-ns#"
   xmlns:svg="http://www.w3.org/2000/svg"
   xmlns="http://www.w3.org/2000/svg"
   xmlns:sodipodi="http://sodipodi.sourceforge.net/DTD/sodipodi-0.dtd"
   xmlns:inkscape="http://www.inkscape.org/namespaces/inkscape"
   width="453.5433"
   height="453.5433"
   viewBox="0 0 120 120"
   version="1.1"
   id="svg5135"
   inkscape:version="0.92.1 r15371"
   sodipodi:docname="wallpaperdownloadgray.svg">
  <defs
     id="defs5129" />
  <sodipodi:namedview
     id="base"
     pagecolor="#ffffff"
     bordercolor="#666666"
     borderopacity="1.0"
     inkscape:pageopacity="0.0"
     inkscape:pageshadow="2"
     inkscape:zoom="0.9899495"
     inkscape:cx="-30.620659"
     inkscape:cy="243.99181"
     inkscape:document-units="mm"
     inkscape:current-layer="layer1"
     showgrid="false"
     inkscape:window-width="2560"
     inkscape:window-height="1506"
     inkscape:window-x="-11"
     inkscape:window-y="-11"
     inkscape:window-maximized="1"
     units="px" />
  <metadata
     id="metadata5132">
    <rdf:RDF>
      <cc:Work
         rdf:about="">
        <dc:format>image/svg+xml</dc:format>
        <dc:type
           rdf:resource="http://purl.org/dc/dcmitype/StillImage" />
        <dc:title></dc:title>
      </cc:Work>
    </rdf:RDF>
  </metadata>
  <g
     inkscape:label="Layer 1"
     inkscape:groupmode="layer"
     id="layer1"
     transform="translate(0,-177)">
    <g
       transform="matrix(1.2970664,0,0,1.292178,-4.9090757,170.49976)"
       id="g4"
       style="fill:#f2f2f2;fill-opacity:1;stroke:#000000;stroke-width:0.20469321;stroke-miterlimit:4;stroke-dasharray:none;stroke-opacity:1">
      <path
         style="fill:#f2f2f2;fill-opacity:1;stroke:#000000;stroke-width:0.20469321;stroke-miterlimit:4;stroke-dasharray:none;stroke-opacity:1"
         inkscape:connector-curvature="0"
         d="M 83.492,38.625 C 83.492,20.128 68.497,5.133 50,5.133 c -18.497,0 -33.492,14.995 -33.492,33.492 0,6.847 2.059,13.211 5.585,18.516 h -0.006 l 0.05,0.067 c 0.565,0.845 1.168,1.66 1.805,2.449 L 50,95 c 0,0 27.3,-36.948 27.864,-37.792 l 0.05,-0.067 h -0.006 c 3.526,-5.305 5.584,-11.669 5.584,-18.516 z M 50,52.131 c -7.459,0 -13.506,-6.047 -13.506,-13.506 0,-7.459 6.047,-13.506 13.506,-13.506 7.459,0 13.506,6.047 13.506,13.506 0,7.459 -6.047,13.506 -13.506,13.506 z"
         id="path2" />
    </g>
    <rect
       style="opacity:0.95;fill:#f2f2f2;fill-opacity:1;stroke:#000000;stroke-width:0.36500001;stroke-miterlimit:4;stroke-dasharray:none;stroke-opacity:1"
       id="rect5059"
       width="119.635"
       height="34.100834"
       x="0.1825"
       y="262.71667"
       ry="8.0180855"
       rx="8.0180855" />
    <rect
       rx="8.0180855"
       ry="8.0180855"
       y="266.32901"
       x="4.2011876"
       height="25.489315"
       width="112.11491"
       id="rect5067"
       style="opacity:0.95;fill:#e6e6e6;fill-opacity:1;stroke:#000000;stroke-width:0.69999999;stroke-miterlimit:4;stroke-dasharray:none;stroke-opacity:1" />
    <g
       id="g5081"
       transform="matrix(1.0247024,0,0,1.0208404,8.4598741,-802.40154)"
       style="fill:#e6e6e6;fill-opacity:1;stroke:#000000;stroke-width:0.55242133;stroke-miterlimit:4;stroke-dasharray:none;stroke-opacity:1">
      <path
         id="path5079"
         overflow="visible"
         display="inline"
         visibility="visible"
         marker="none"
         style="color:#000000;display:inline;overflow:visible;visibility:visible;fill:#e6e6e6;fill-opacity:1;stroke:#000000;stroke-width:0.55242133;stroke-miterlimit:4;stroke-dasharray:none;stroke-opacity:1;enable-background:accumulate"
         d="m 50.000002,968.36218 c -18.77766,0 -34,15.22258 -34,34.00002 0,18.7776 15.22234,34 34,34 18.777656,0 33.999997,-15.2224 33.999997,-34 0,-18.77744 -15.222341,-34.00002 -33.999997,-34.00002 z"
         inkscape:connector-curvature="0" />
    </g>
    <text
       style="font-weight:bold;font-size:12.88615799px;font-family:'Helvetica Neue', Helvetica, Arial-Unicode, Arial, Sans-serif;fill:#197e01;fill-opacity:1;stroke-width:0.26458338"
       x="12.339915"
       y="286.2355"
       font-size="5px"
       font-weight="bold"
       id="text8-7"
       transform="scale(1.0018898,0.99811377)">
      <tspan
         style="font-style:normal;font-variant:normal;font-weight:bold;font-stretch:normal;font-size:16.93333244px;font-family:'Helvetica Neue', Helvetica, Arial-Unicode, Arial, Sans-serif;-inkscape-font-specification:'Helvetica Neue, Helvetica, Arial-Unicode, Arial, Sans-serif, Bold';font-variant-ligatures:normal;font-variant-caps:normal;font-variant-numeric:normal;font-feature-settings:normal;text-align:start;writing-mode:lr-tb;text-anchor:start;fill:#197e01;fill-opacity:1;stroke-width:0.26458338"
         id="tspan6304-6">HD Photos !</tspan>
    </text>
    <path
       inkscape:connector-curvature="0"
       d="m 67.362423,235.20129 c 0,-4.91007 3.992812,-8.90288 8.90288,-8.90288 1.187052,0 2.320144,0.21584 3.345324,0.64748 v -18.50717 c 0,-5.93526 -4.856115,-10.79137 -10.79136,-10.79137 H 49.934372 c -5.935257,0 -10.791372,4.85611 -10.791372,10.79137 v 18.88488 c 0,5.93525 4.856115,10.79137 10.791372,10.79137 h 17.913673 c -0.323741,-0.91727 -0.485622,-1.88849 -0.485622,-2.91368 z M 60.348042,209.1941 c 1.294964,0 2.320147,1.02519 2.320147,2.32015 0,1.29496 -1.025183,2.32015 -2.320147,2.32015 -1.294963,0 -2.320147,-1.02519 -2.320147,-2.32015 0,-1.24101 1.025184,-2.32015 2.320147,-2.32015 z M 45.7797,226.56821 c -1.456844,0 -2.320147,-1.56476 -1.564744,-2.80576 l 7.823742,-12.62591 c 0.755382,-1.241 2.535968,-1.13307 3.183449,0.10789 l 7.769783,15.32374 z m 18.399274,0 -3.830932,-7.28418 3.992812,-5.39568 c 1.079123,-1.45684 3.237409,-1.40287 4.262572,0.10788 l 5.773397,8.57915 c 1.187042,1.72662 -0.05404,4.10071 -2.158286,4.10071 h -7.553942 -0.485621 z m 12.086329,0.75539 c -4.316547,0 -7.877698,3.50719 -7.877698,7.87769 0,4.3705 3.507191,7.87771 7.877698,7.87771 4.370503,0 7.877697,-3.50721 7.877697,-7.87771 0,-4.3705 -3.507194,-7.87769 -7.877697,-7.87769 z m 3.291368,9.82015 -2.697843,2.69784 c -0.16188,0.16193 -0.323741,0.21582 -0.539567,0.21582 0,0 -0.05396,0 -0.05396,0 -0.05396,0 -0.05396,0 -0.10792,0 -0.161881,0 -0.323741,-0.10788 -0.431655,-0.21582 0,0 -0.05396,-0.054 -0.05396,-0.054 l -2.697845,-2.69785 c -0.323741,-0.32374 -0.323741,-0.80934 0,-1.13309 0.323741,-0.32373 0.809362,-0.32373 1.133103,0 l 1.294958,1.29497 v -6.09714 c 0,-0.43163 0.377697,-0.80934 0.809352,-0.80934 0.431655,0 0.809352,0.37771 0.809352,0.80934 v 6.15109 l 1.294964,-1.29497 c 0.323741,-0.32374 0.809353,-0.32374 1.133094,0 0.16186,0.16192 0.215826,0.3777 0.215826,0.59354 0,0.21582 0.05396,0.37768 -0.107921,0.53956 z"
       id="path2-5"
       style="fill:#197e01;fill-opacity:1;stroke-width:0.26458332" />
  </g>
</svg>
