<?xml version="1.0" encoding="UTF-8" standalone="no"?>
<svg
   xmlns:dc="http://purl.org/dc/elements/1.1/"
   xmlns:cc="http://creativecommons.org/ns#"
   xmlns:rdf="http://www.w3.org/1999/02/22-rdf-syntax-ns#"
   xmlns:svg="http://www.w3.org/2000/svg"
   xmlns="http://www.w3.org/2000/svg"
   xmlns:sodipodi="http://sodipodi.sourceforge.net/DTD/sodipodi-0.dtd"
   xmlns:inkscape="http://www.inkscape.org/namespaces/inkscape"
   version="1.1"
   x="0px"
   y="0px"
   viewBox="0 0 99.999997 99.999997"
   xml:space="preserve"
   id="svg26"
   sodipodi:docname="10-Director-noun_film director_970389.svg"
   width="100"
   height="100"
   inkscape:version="0.92.1 r15371"><metadata
     id="metadata32"><rdf:RDF><cc:Work
         rdf:about=""><dc:format>image/svg+xml</dc:format><dc:type
           rdf:resource="http://purl.org/dc/dcmitype/StillImage" /><dc:title></dc:title></cc:Work></rdf:RDF></metadata><defs
     id="defs30" /><sodipodi:namedview
     pagecolor="#ffffff"
     bordercolor="#666666"
     borderopacity="1"
     objecttolerance="10"
     gridtolerance="10"
     guidetolerance="10"
     inkscape:pageopacity="0"
     inkscape:pageshadow="2"
     inkscape:window-width="2560"
     inkscape:window-height="1506"
     id="namedview28"
     showgrid="false"
     inkscape:zoom="2.6389483"
     inkscape:cx="-11.164443"
     inkscape:cy="68.538384"
     inkscape:window-x="-11"
     inkscape:window-y="-11"
     inkscape:window-maximized="1"
     inkscape:current-layer="svg26" /><g
     id="g20"
     transform="matrix(0.47095218,0,0,0.47095218,9.4736064,2.9941007)"
     style="stroke-width:2.12335777"><path
       d="m 28.982,73.869 c 1.654,-3.452 5.199,-5.682 9.028,-5.682 1.5,0 2.949,0.331 4.311,0.982 l 10.711,5.132 C 50.974,65.348 44.006,57.714 36.247,58.64 c -8.736,1.04 -18.66,9.769 -18.168,25.245 0.801,21.275 4.095,34.07 14.399,53.92 2.532,4.086 5.261,6.763 8.065,8.432 1.85,1.292 4.066,2.086 6.462,2.215 1.43,0.175 2.856,0.173 4.266,0.034 H 98.08 l 27.268,36.6 c 2.453,3.294 6.22,5.033 10.034,5.033 2.598,0 5.216,-0.806 7.459,-2.477 5.533,-4.124 6.679,-11.955 2.555,-17.49 l -31.018,-41.635 c -2.371,-3.181 -6.055,-5.032 -10.024,-5.032 H 64.833 c -3.551,-7.787 -5.89,-16.556 -7.622,-25.004 L 33.681,87.205 C 28.708,84.825 26.6,78.841 28.982,73.869 Z"
       id="path2"
       inkscape:connector-curvature="0"
       style="stroke-width:2.12335777" /><path
       d="m 25.838,162.023 h 8.671 l 16.081,16.082 -20.837,20.836 c -0.779,0.782 -0.779,2.049 0,2.829 0.392,0.391 0.904,0.586 1.416,0.586 0.512,0 1.023,-0.195 1.413,-0.586 l 20.836,-20.836 20.835,20.836 c 0.391,0.391 0.903,0.586 1.416,0.586 0.512,0 1.023,-0.195 1.413,-0.586 0.782,-0.78 0.782,-2.046 0,-2.829 L 56.247,178.105 72.329,162.023 h 7.673 c 2.209,0 3.999,-1.792 3.999,-4.001 0,-2.209 -1.79,-3.999 -3.999,-3.999 L 31.163,154.021 7.69,97.977 C 6.837,95.939 4.493,94.978 2.457,95.832 c -2.038,0.853 -2.999,3.197 -2.145,5.235 z m 27.581,13.253 -13.254,-13.253 h 26.507 z"
       id="path4"
       inkscape:connector-curvature="0"
       style="stroke-width:2.12335777" /><path
       d="m 40.995,52.382 c 11.845,-3.754 18.4,-16.399 14.646,-28.24 -0.275,-0.865 -0.602,-1.698 -0.967,-2.505 -1.537,0.544 -3.145,1.066 -4.823,1.548 -11.554,3.319 -21.601,3.637 -22.442,0.713 -0.012,-0.04 -0.002,-0.084 -0.01,-0.124 2.142,2.11 11.496,0.691 21.9,-3.454 8.036,-3.2 14.482,-7.147 17.059,-10.165 C 67.361,8.979 67.796,7.94 67.48,7.147 66.354,4.321 56.388,5.634 45.221,10.082 c -0.457,0.182 -0.9,0.37 -1.348,0.557 C 38.904,8.269 33.062,7.702 27.4,9.497 15.559,13.249 9.003,25.896 12.756,37.737 16.511,49.579 29.155,56.136 40.995,52.382 Z"
       id="path6"
       inkscape:connector-curvature="0"
       style="stroke-width:2.12335777" /><path
       d="m 64.966,33.029 h -2.631 v 11.063 h 2.631 v -0.557 l 9.183,2.002 c -0.519,1.342 -0.813,2.793 -0.813,4.317 0,1.849 0.431,3.594 1.178,5.158 0.58,-1.012 1.326,-1.893 2.191,-2.627 -0.236,-0.804 -0.369,-1.652 -0.369,-2.531 0,-1.308 0.285,-2.546 0.789,-3.669 l 17.207,3.752 c -0.02,2.195 -0.832,4.202 -2.16,5.755 0.054,0.112 0.115,0.219 0.165,0.333 0.414,0.95 0.671,1.94 0.777,2.941 2.397,-2.054 3.982,-5.029 4.185,-8.384 l 13.156,2.867 v 1.932 h 2.631 V 21.738 h -2.631 v 1.933 l -45.488,9.914 v -0.556 z"
       id="path8"
       inkscape:connector-curvature="0"
       style="stroke-width:2.12335777" /><path
       d="M 86.095,52.577 C 81.984,50.96 77.339,52.983 75.724,57.095 L 65.701,82.59 41.458,70.974 c -3.984,-1.908 -8.762,-0.227 -10.672,3.758 -1.908,3.984 -0.227,8.762 3.76,10.673 l -0.002,-0.002 32,15.334 c 1.094,0.523 2.273,0.786 3.457,0.786 0.99,0 1.984,-0.185 2.928,-0.555 2.074,-0.815 3.703,-2.446 4.519,-4.52 L 90.614,62.949 C 92.23,58.836 90.208,54.192 86.095,52.577 Z"
       id="path10"
       inkscape:connector-curvature="0"
       style="stroke-width:2.12335777" /><polygon
       points="124.738,22.066 169.395,3.317 167.982,0 124.571,21.403 "
       id="polygon12"
       style="stroke-width:2.12335777" /><polygon
       points="126.458,32.558 126.448,33.239 174.434,26.681 173.929,23.11 "
       id="polygon14"
       style="stroke-width:2.12335777" /><polygon
       points="167.982,77.572 169.395,74.255 124.738,55.507 124.571,56.169 "
       id="polygon16"
       style="stroke-width:2.12335777" /><polygon
       points="126.448,44.333 126.458,45.015 173.929,54.462 174.434,50.892 "
       id="polygon18"
       style="stroke-width:2.12335777" /></g></svg>