<?xml version="1.0" encoding="UTF-8" standalone="no"?>
<svg
   xmlns:dc="http://purl.org/dc/elements/1.1/"
   xmlns:cc="http://creativecommons.org/ns#"
   xmlns:rdf="http://www.w3.org/1999/02/22-rdf-syntax-ns#"
   xmlns:svg="http://www.w3.org/2000/svg"
   xmlns="http://www.w3.org/2000/svg"
   xmlns:sodipodi="http://sodipodi.sourceforge.net/DTD/sodipodi-0.dtd"
   xmlns:inkscape="http://www.inkscape.org/namespaces/inkscape"
   version="1.1"
   x="0px"
   y="0px"
   viewBox="0 0 100 100"
   id="svg8"
   sodipodi:docname="11-Actors-noun_Film Actors_531898.svg"
   width="100"
   height="100"
   inkscape:version="0.92.1 r15371">
  <metadata
     id="metadata14">
    <rdf:RDF>
      <cc:Work
         rdf:about="">
        <dc:format>image/svg+xml</dc:format>
        <dc:type
           rdf:resource="http://purl.org/dc/dcmitype/StillImage" />
        <dc:title></dc:title>
      </cc:Work>
    </rdf:RDF>
  </metadata>
  <defs
     id="defs12" />
  <sodipodi:namedview
     pagecolor="#ffffff"
     bordercolor="#666666"
     borderopacity="1"
     objecttolerance="10"
     gridtolerance="10"
     guidetolerance="10"
     inkscape:pageopacity="0"
     inkscape:pageshadow="2"
     inkscape:window-width="2560"
     inkscape:window-height="1506"
     id="namedview10"
     showgrid="false"
     inkscape:zoom="5.3400704"
     inkscape:cx="105.32845"
     inkscape:cy="88.029088"
     inkscape:window-x="-11"
     inkscape:window-y="-11"
     inkscape:window-maximized="1"
     inkscape:current-layer="svg8" />
  <path
     d="m 58.069822,33.081892 c -5.225,0 -7.532143,4.342858 -7.532143,8.889286 0,5.564286 3.528572,8.346429 3.528572,10.246429 0,0.814286 -0.678572,1.764286 -1.967858,2.510714 l -7.735714,4.071429 c -2.239286,1.221429 -1.357143,7.125 -1.357143,7.125 h 30.128572 c 0,0 1.153572,-5.767857 -1.357143,-7.125 l -7.667857,-4.071429 c -1.425,-0.814285 -2.103572,-1.628571 -2.103572,-2.375 0,-1.696428 3.596429,-4.410714 3.596429,-10.45 0,-5.360714 -2.714286,-8.821429 -7.532143,-8.821429 z m -17.575,5.496429 c -4.342858,0 -6.310715,3.528572 -6.310715,7.396429 0,4.682143 2.917857,6.921428 2.917857,8.55 0,0.610714 -0.407143,1.696429 -1.628571,2.307143 l -6.446429,3.121429 c -2.239286,1.153571 -1.153571,5.971428 -1.153571,5.971428 h 9.907143 c 1.425,0 -1.221429,-4.682143 2.035714,-8.346428 2.035714,-2.239286 6.921429,-4.546429 6.921429,-11.400001 0,-4.75 -2.307143,-7.6 -6.242857,-7.6 z M 8.0591056,86.824751 c -3.6642864,0 -5.4285714,-1.764286 -5.4285714,-5.428572 V 17.610463 c 0,-3.664286 1.764285,-5.428571 5.4285714,-5.428571 H 92.201964 c 3.66429,0 5.42857,1.764285 5.42857,5.428571 v 63.785716 c 0,3.664286 -1.76428,5.428572 -5.42857,5.428572 z m 1.357143,-6.785715 H 16.201964 V 73.253322 H 9.4162486 Z m 0,-13.571429 H 16.201964 V 59.681893 H 9.4162486 Z m 0,-13.571429 H 16.201964 V 46.110464 H 9.4162486 Z m 0,-13.571428 H 16.201964 V 32.539035 H 9.4162486 Z m 0,-13.57143 H 16.201964 V 18.967606 H 9.4162486 Z M 84.059109,80.039036 h 6.785715 v -6.785714 h -6.785715 z m 0,-13.571429 h 6.785715 v -6.785714 h -6.785715 z m 0,-13.571429 h 6.785715 v -6.785714 h -6.785715 z m 0,-13.571428 h 6.785715 v -6.785715 h -6.785715 z m 0,-13.57143 h 6.785715 v -6.785714 h -6.785715 z m 0,0"
     id="path2"
     inkscape:connector-curvature="0"
     style="fill:#000000;stroke:none;stroke-width:0.04999999;stroke-linecap:inherit;stroke-linejoin:inherit;stroke-dasharray:none" />
</svg>
