<?xml version="1.0" encoding="UTF-8" standalone="no"?>
<svg
   xmlns:dc="http://purl.org/dc/elements/1.1/"
   xmlns:cc="http://creativecommons.org/ns#"
   xmlns:rdf="http://www.w3.org/1999/02/22-rdf-syntax-ns#"
   xmlns:svg="http://www.w3.org/2000/svg"
   xmlns="http://www.w3.org/2000/svg"
   xmlns:sodipodi="http://sodipodi.sourceforge.net/DTD/sodipodi-0.dtd"
   xmlns:inkscape="http://www.inkscape.org/namespaces/inkscape"
   version="1.1"
   x="0px"
   y="0px"
   viewBox="0 0 100 100"
   enable-background="new 0 0 512 512"
   xml:space="preserve"
   id="svg158"
   sodipodi:docname="12-Plot.svg"
   width="100"
   height="100"
   inkscape:version="0.92.1 r15371"><metadata
     id="metadata164"><rdf:RDF><cc:Work
         rdf:about=""><dc:format>image/svg+xml</dc:format><dc:type
           rdf:resource="http://purl.org/dc/dcmitype/StillImage" /><dc:title /></cc:Work></rdf:RDF></metadata><defs
     id="defs162" /><sodipodi:namedview
     pagecolor="#ffffff"
     bordercolor="#666666"
     borderopacity="1"
     objecttolerance="10"
     gridtolerance="10"
     guidetolerance="10"
     inkscape:pageopacity="0"
     inkscape:pageshadow="2"
     inkscape:window-width="2560"
     inkscape:window-height="1506"
     id="namedview160"
     showgrid="false"
     inkscape:zoom="1.475"
     inkscape:cx="-492.30492"
     inkscape:cy="250.51001"
     inkscape:window-x="-11"
     inkscape:window-y="-11"
     inkscape:window-maximized="1"
     inkscape:current-layer="svg158" /><g
     id="g152"
     transform="matrix(0.18554687,0,0,0.18554687,0.73159373,3.101695)"
     style="stroke-width:5.38947392;fill:#f0f0f0;fill-opacity:1"><g
       id="g4"
       style="stroke-width:5.38947392;fill:#f0f0f0;fill-opacity:1"><path
         d="M 448,480 H 88 c -2.211,0 -4,-1.789 -4,-4 V 4 c 0,-2.211 1.789,-4 4,-4 h 360 c 2.211,0 4,1.789 4,4 v 472 c 0,2.211 -1.789,4 -4,4 z M 92,472 H 444 V 8 H 92 Z"
         id="path2"
         inkscape:connector-curvature="0"
         style="stroke-width:5.38947392;fill:#f0f0f0;fill-opacity:1" /></g><g
       id="g8"
       style="stroke-width:5.38947392;fill:#f0f0f0;fill-opacity:1"><path
         d="M 448,496 H 96 c -2.211,0 -4,-1.789 -4,-4 0,-2.211 1.789,-4 4,-4 h 352 c 2.211,0 4,1.789 4,4 0,2.211 -1.789,4 -4,4 z"
         id="path6"
         inkscape:connector-curvature="0"
         style="stroke-width:5.38947392;fill:#f0f0f0;fill-opacity:1" /></g><g
       id="g12"
       style="stroke-width:5.38947392;fill:#f0f0f0;fill-opacity:1"><path
         d="M 448,512 H 64 c -2.211,0 -4,-1.789 -4,-4 0,-2.211 1.789,-4 4,-4 h 384 c 2.211,0 4,1.789 4,4 0,2.211 -1.789,4 -4,4 z"
         id="path10"
         inkscape:connector-curvature="0"
         style="stroke-width:5.38947392;fill:#f0f0f0;fill-opacity:1" /></g><g
       id="g16"
       style="stroke-width:5.38947392;fill:#f0f0f0;fill-opacity:1"><path
         d="m 64,512 c -2.211,0 -4,-1.789 -4,-4 V 36 c 0,-2.211 1.789,-4 4,-4 2.211,0 4,1.789 4,4 v 472 c 0,2.211 -1.789,4 -4,4 z"
         id="path14"
         inkscape:connector-curvature="0"
         style="stroke-width:5.38947392;fill:#f0f0f0;fill-opacity:1" /></g><g
       id="g20"
       style="stroke-width:5.38947392;fill:#f0f0f0;fill-opacity:1"><path
         d="m 64,512 c -0.836,0 -1.68,-0.258 -2.398,-0.797 -1.766,-1.328 -2.125,-3.836 -0.805,-5.602 l 24,-32 c 1.336,-1.773 3.852,-2.117 5.602,-0.805 1.766,1.328 2.125,3.836 0.805,5.602 l -24,32 C 66.414,511.445 65.211,512 64,512 Z"
         id="path18"
         inkscape:connector-curvature="0"
         style="stroke-width:5.38947392;fill:#f0f0f0;fill-opacity:1" /></g><g
       id="g24"
       style="stroke-width:5.38947392;fill:#f0f0f0;fill-opacity:1"><path
         d="m 64,40 c -0.836,0 -1.68,-0.262 -2.398,-0.801 -1.766,-1.324 -2.125,-3.832 -0.805,-5.598 l 24,-32 c 1.336,-1.773 3.852,-2.113 5.602,-0.801 1.766,1.324 2.125,3.832 0.805,5.598 l -24,32 C 66.414,39.449 65.211,40 64,40 Z"
         id="path22"
         inkscape:connector-curvature="0"
         style="stroke-width:5.38947392;fill:#f0f0f0;fill-opacity:1" /></g><g
       id="g126"
       style="stroke-width:5.38947392;fill:#f0f0f0;fill-opacity:1"><g
         id="g116"
         style="stroke-width:5.38947392;fill:#f0f0f0;fill-opacity:1"><g
           id="g28"
           style="stroke-width:5.38947392;fill:#f0f0f0;fill-opacity:1"><path
             d="m 184.008,264 c -2.211,0 -4,-1.789 -4,-4 V 132 c 0,-2.211 1.789,-4 4,-4 2.211,0 4,1.789 4,4 v 128 c 0,2.211 -1.789,4 -4,4 z"
             id="path26"
             inkscape:connector-curvature="0"
             style="stroke-width:5.38947392;fill:#f0f0f0;fill-opacity:1" /></g><g
           id="g32"
           style="stroke-width:5.38947392;fill:#f0f0f0;fill-opacity:1"><path
             d="m 375.992,264 c -2.211,0 -4,-1.789 -4,-4 V 140 c 0,-2.211 1.789,-4 4,-4 2.211,0 4,1.789 4,4 v 120 c 0,2.211 -1.789,4 -4,4 z"
             id="path30"
             inkscape:connector-curvature="0"
             style="stroke-width:5.38947392;fill:#f0f0f0;fill-opacity:1" /></g><g
           id="g36"
           style="stroke-width:5.38947392;fill:#f0f0f0;fill-opacity:1"><path
             d="m 192,271.992 c -6.609,0 -11.992,-5.383 -11.992,-11.992 0,-2.211 1.789,-4 4,-4 2.211,0 4,1.789 4,4 0,2.203 1.789,3.992 3.992,3.992 2.211,0 4,1.789 4,4 0,2.211 -1.789,4 -4,4 z"
             id="path34"
             inkscape:connector-curvature="0"
             style="stroke-width:5.38947392;fill:#f0f0f0;fill-opacity:1" /></g><g
           id="g40"
           style="stroke-width:5.38947392;fill:#f0f0f0;fill-opacity:1"><path
             d="m 368,271.992 c -2.211,0 -4,-1.789 -4,-4 0,-2.211 1.789,-4 4,-4 2.203,0 3.992,-1.789 3.992,-3.992 0,-2.211 1.789,-4 4,-4 2.211,0 4,1.789 4,4 0,6.609 -5.383,11.992 -11.992,11.992 z"
             id="path38"
             inkscape:connector-curvature="0"
             style="stroke-width:5.38947392;fill:#f0f0f0;fill-opacity:1" /></g><g
           id="g44"
           style="stroke-width:5.38947392;fill:#f0f0f0;fill-opacity:1"><path
             d="M 368,271.992 H 192 c -2.211,0 -4,-1.789 -4,-4 0,-2.211 1.789,-4 4,-4 h 176 c 2.211,0 4,1.789 4,4 0,2.211 -1.789,4 -4,4 z"
             id="path42"
             inkscape:connector-curvature="0"
             style="stroke-width:5.38947392;fill:#f0f0f0;fill-opacity:1" /></g><g
           id="g48"
           style="stroke-width:5.38947392;fill:#f0f0f0;fill-opacity:1"><path
             d="M 375.992,144 H 208 c -2.211,0 -4,-1.789 -4,-4 0,-2.211 1.789,-4 4,-4 h 167.992 c 2.211,0 4,1.789 4,4 0,2.211 -1.789,4 -4,4 z"
             id="path46"
             inkscape:connector-curvature="0"
             style="stroke-width:5.38947392;fill:#f0f0f0;fill-opacity:1" /></g><g
           id="g52"
           style="stroke-width:5.38947392;fill:#f0f0f0;fill-opacity:1"><path
             d="M 375.992,160 H 184.008 c -2.211,0 -4,-1.789 -4,-4 0,-2.211 1.789,-4 4,-4 h 191.984 c 2.211,0 4,1.789 4,4 0,2.211 -1.789,4 -4,4 z"
             id="path50"
             inkscape:connector-curvature="0"
             style="stroke-width:5.38947392;fill:#f0f0f0;fill-opacity:1" /></g><g
           id="g56"
           style="stroke-width:5.38947392;fill:#f0f0f0;fill-opacity:1"><path
             d="m 344,160 c -1.023,0 -2.047,-0.391 -2.828,-1.172 -1.562,-1.562 -1.562,-4.094 0,-5.656 l 16,-16 c 1.562,-1.562 4.094,-1.562 5.656,0 1.562,1.562 1.562,4.094 0,5.656 l -16,16 C 346.047,159.609 345.023,160 344,160 Z"
             id="path54"
             inkscape:connector-curvature="0"
             style="stroke-width:5.38947392;fill:#f0f0f0;fill-opacity:1" /></g><g
           id="g60"
           style="stroke-width:5.38947392;fill:#f0f0f0;fill-opacity:1"><path
             d="m 320,160 c -1.023,0 -2.047,-0.391 -2.828,-1.172 -1.562,-1.562 -1.562,-4.094 0,-5.656 l 16,-16 c 1.562,-1.562 4.094,-1.562 5.656,0 1.562,1.562 1.562,4.094 0,5.656 l -16,16 C 322.047,159.609 321.023,160 320,160 Z"
             id="path58"
             inkscape:connector-curvature="0"
             style="stroke-width:5.38947392;fill:#f0f0f0;fill-opacity:1" /></g><g
           id="g64"
           style="stroke-width:5.38947392;fill:#f0f0f0;fill-opacity:1"><path
             d="m 296,160 c -1.023,0 -2.047,-0.391 -2.828,-1.172 -1.562,-1.562 -1.562,-4.094 0,-5.656 l 16,-16 c 1.562,-1.562 4.094,-1.562 5.656,0 1.562,1.562 1.562,4.094 0,5.656 l -16,16 C 298.047,159.609 297.023,160 296,160 Z"
             id="path62"
             inkscape:connector-curvature="0"
             style="stroke-width:5.38947392;fill:#f0f0f0;fill-opacity:1" /></g><g
           id="g68"
           style="stroke-width:5.38947392;fill:#f0f0f0;fill-opacity:1"><path
             d="m 272,160 c -1.023,0 -2.047,-0.391 -2.828,-1.172 -1.562,-1.562 -1.562,-4.094 0,-5.656 l 16,-16 c 1.562,-1.562 4.094,-1.562 5.656,0 1.562,1.562 1.562,4.094 0,5.656 l -16,16 C 274.047,159.609 273.023,160 272,160 Z"
             id="path66"
             inkscape:connector-curvature="0"
             style="stroke-width:5.38947392;fill:#f0f0f0;fill-opacity:1" /></g><g
           id="g72"
           style="stroke-width:5.38947392;fill:#f0f0f0;fill-opacity:1"><path
             d="m 248,160 c -1.023,0 -2.047,-0.391 -2.828,-1.172 -1.562,-1.562 -1.562,-4.094 0,-5.656 l 16,-16 c 1.562,-1.562 4.094,-1.562 5.656,0 1.562,1.562 1.562,4.094 0,5.656 l -16,16 C 250.047,159.609 249.023,160 248,160 Z"
             id="path70"
             inkscape:connector-curvature="0"
             style="stroke-width:5.38947392;fill:#f0f0f0;fill-opacity:1" /></g><g
           id="g76"
           style="stroke-width:5.38947392;fill:#f0f0f0;fill-opacity:1"><path
             d="m 224,160 c -1.023,0 -2.047,-0.391 -2.828,-1.172 -1.562,-1.562 -1.562,-4.094 0,-5.656 l 16,-16 c 1.562,-1.562 4.094,-1.562 5.656,0 1.562,1.562 1.562,4.094 0,5.656 l -16,16 C 226.047,159.609 225.023,160 224,160 Z"
             id="path74"
             inkscape:connector-curvature="0"
             style="stroke-width:5.38947392;fill:#f0f0f0;fill-opacity:1" /></g><g
           id="g106"
           style="stroke-width:5.38947392;fill:#f0f0f0;fill-opacity:1"><g
             id="g80"
             style="stroke-width:5.38947392;fill:#f0f0f0;fill-opacity:1"><path
               d="m 223.266,127.711 c -1.852,0 -3.516,-1.289 -3.914,-3.172 -0.453,-2.16 0.922,-4.285 3.086,-4.742 l 144.789,-30.656 -1.664,-7.828 -183.906,38.953 c -2.102,0.453 -4.281,-0.914 -4.742,-3.086 -0.453,-2.16 0.922,-4.285 3.086,-4.742 L 367.813,72.657 c 2.133,-0.43 4.289,0.918 4.742,3.082 l 3.328,15.656 c 0.219,1.039 0.016,2.121 -0.562,3.012 -0.578,0.891 -1.484,1.516 -2.523,1.734 l -148.703,31.484 c -0.283,0.059 -0.556,0.086 -0.829,0.086 z"
               id="path78"
               inkscape:connector-curvature="0"
               style="stroke-width:5.38947392;fill:#f0f0f0;fill-opacity:1" /></g><g
             id="g84"
             style="stroke-width:5.38947392;fill:#f0f0f0;fill-opacity:1"><path
               d="m 340.656,102.852 c -0.75,0 -1.508,-0.207 -2.18,-0.648 -1.852,-1.203 -2.375,-3.68 -1.172,-5.535 L 349.648,77.7 c 1.211,-1.852 3.695,-2.371 5.531,-1.168 1.852,1.203 2.375,3.68 1.172,5.535 l -12.344,18.969 c -0.765,1.175 -2.046,1.816 -3.351,1.816 z"
               id="path82"
               inkscape:connector-curvature="0"
               style="stroke-width:5.38947392;fill:#f0f0f0;fill-opacity:1" /></g><g
             id="g88"
             style="stroke-width:5.38947392;fill:#f0f0f0;fill-opacity:1"><path
               d="m 317.188,107.82 c -0.75,0 -1.508,-0.207 -2.18,-0.645 -1.852,-1.207 -2.375,-3.684 -1.172,-5.535 l 12.328,-18.969 c 1.211,-1.852 3.703,-2.367 5.531,-1.176 1.852,1.207 2.375,3.684 1.172,5.535 L 320.539,106 c -0.766,1.18 -2.047,1.82 -3.351,1.82 z"
               id="path86"
               inkscape:connector-curvature="0"
               style="stroke-width:5.38947392;fill:#f0f0f0;fill-opacity:1" /></g><g
             id="g92"
             style="stroke-width:5.38947392;fill:#f0f0f0;fill-opacity:1"><path
               d="m 293.703,112.797 c -0.75,0 -1.508,-0.207 -2.18,-0.648 -1.852,-1.203 -2.375,-3.68 -1.172,-5.535 l 12.344,-18.969 c 1.211,-1.848 3.703,-2.375 5.531,-1.168 1.852,1.203 2.375,3.68 1.172,5.535 l -12.344,18.969 c -0.765,1.175 -2.046,1.816 -3.351,1.816 z"
               id="path90"
               inkscape:connector-curvature="0"
               style="stroke-width:5.38947392;fill:#f0f0f0;fill-opacity:1" /></g><g
             id="g96"
             style="stroke-width:5.38947392;fill:#f0f0f0;fill-opacity:1"><path
               d="m 270.219,117.773 c -0.75,0 -1.508,-0.207 -2.18,-0.648 -1.852,-1.203 -2.375,-3.68 -1.172,-5.535 l 12.344,-18.969 c 1.211,-1.848 3.695,-2.375 5.531,-1.168 1.852,1.203 2.375,3.68 1.172,5.535 l -12.344,18.969 c -0.765,1.176 -2.047,1.816 -3.351,1.816 z"
               id="path94"
               inkscape:connector-curvature="0"
               style="stroke-width:5.38947392;fill:#f0f0f0;fill-opacity:1" /></g><g
             id="g100"
             style="stroke-width:5.38947392;fill:#f0f0f0;fill-opacity:1"><path
               d="m 246.742,122.742 c -0.75,0 -1.508,-0.207 -2.18,-0.648 -1.852,-1.203 -2.375,-3.68 -1.172,-5.531 l 12.336,-18.969 c 1.211,-1.852 3.703,-2.371 5.531,-1.172 1.852,1.203 2.375,3.68 1.172,5.531 l -12.336,18.969 c -0.765,1.18 -2.046,1.82 -3.351,1.82 z"
               id="path98"
               inkscape:connector-curvature="0"
               style="stroke-width:5.38947392;fill:#f0f0f0;fill-opacity:1" /></g><g
             id="g104"
             style="stroke-width:5.38947392;fill:#f0f0f0;fill-opacity:1"><path
               d="m 223.266,127.711 c -0.75,0 -1.508,-0.207 -2.18,-0.648 -1.852,-1.203 -2.375,-3.68 -1.172,-5.531 l 12.336,-18.969 c 1.211,-1.855 3.695,-2.375 5.531,-1.172 1.852,1.203 2.375,3.68 1.172,5.531 l -12.336,18.969 c -0.765,1.179 -2.047,1.82 -3.351,1.82 z"
               id="path102"
               inkscape:connector-curvature="0"
               style="stroke-width:5.38947392;fill:#f0f0f0;fill-opacity:1" /></g></g><g
           id="g110"
           style="stroke-width:5.38947392;fill:#f0f0f0;fill-opacity:1"><path
             d="m 208,144 c -2.211,0 -4,-1.789 -4,-4 v -8 c 0,-2.211 1.789,-4 4,-4 2.211,0 4,1.789 4,4 v 8 c 0,2.211 -1.789,4 -4,4 z"
             id="path108"
             inkscape:connector-curvature="0"
             style="stroke-width:5.38947392;fill:#f0f0f0;fill-opacity:1" /></g><g
           id="g114"
           style="stroke-width:5.38947392;fill:#f0f0f0;fill-opacity:1"><path
             d="m 208,136 h -23.992 c -2.211,0 -4,-1.789 -4,-4 0,-2.211 1.789,-4 4,-4 H 208 c 2.211,0 4,1.789 4,4 0,2.211 -1.789,4 -4,4 z"
             id="path112"
             inkscape:connector-curvature="0"
             style="stroke-width:5.38947392;fill:#f0f0f0;fill-opacity:1" /></g></g><g
         id="g120"
         style="stroke-width:5.38947392;fill:#f0f0f0;fill-opacity:1"><path
           d="M 352,200 H 208 c -2.211,0 -4,-1.789 -4,-4 0,-2.211 1.789,-4 4,-4 h 144 c 2.211,0 4,1.789 4,4 0,2.211 -1.789,4 -4,4 z"
           id="path118"
           inkscape:connector-curvature="0"
           style="stroke-width:5.38947392;fill:#f0f0f0;fill-opacity:1" /></g><g
         id="g124"
         style="stroke-width:5.38947392;fill:#f0f0f0;fill-opacity:1"><path
           d="M 352,232 H 208 c -2.211,0 -4,-1.789 -4,-4 0,-2.211 1.789,-4 4,-4 h 144 c 2.211,0 4,1.789 4,4 0,2.211 -1.789,4 -4,4 z"
           id="path122"
           inkscape:connector-curvature="0"
           style="stroke-width:5.38947392;fill:#f0f0f0;fill-opacity:1" /></g></g><g
       id="g130"
       style="stroke-width:5.38947392;fill:#f0f0f0;fill-opacity:1"><path
         d="M 376,328 H 184 c -2.211,0 -4,-1.789 -4,-4 0,-2.211 1.789,-4 4,-4 h 192 c 2.211,0 4,1.789 4,4 0,2.211 -1.789,4 -4,4 z"
         id="path128"
         inkscape:connector-curvature="0"
         style="stroke-width:5.38947392;fill:#f0f0f0;fill-opacity:1" /></g><g
       id="g134"
       style="stroke-width:5.38947392;fill:#f0f0f0;fill-opacity:1"><path
         d="M 376,352 H 184 c -2.211,0 -4,-1.789 -4,-4 0,-2.211 1.789,-4 4,-4 h 192 c 2.211,0 4,1.789 4,4 0,2.211 -1.789,4 -4,4 z"
         id="path132"
         inkscape:connector-curvature="0"
         style="stroke-width:5.38947392;fill:#f0f0f0;fill-opacity:1" /></g><g
       id="g138"
       style="stroke-width:5.38947392;fill:#f0f0f0;fill-opacity:1"><path
         d="M 336,376 H 224 c -2.211,0 -4,-1.789 -4,-4 0,-2.211 1.789,-4 4,-4 h 112 c 2.211,0 4,1.789 4,4 0,2.211 -1.789,4 -4,4 z"
         id="path136"
         inkscape:connector-curvature="0"
         style="stroke-width:5.38947392;fill:#f0f0f0;fill-opacity:1" /></g><g
       id="g142"
       style="stroke-width:5.38947392;fill:#f0f0f0;fill-opacity:1"><path
         d="m 176,448 h -32 c -2.211,0 -4,-1.789 -4,-4 0,-2.211 1.789,-4 4,-4 h 32 c 2.211,0 4,1.789 4,4 0,2.211 -1.789,4 -4,4 z"
         id="path140"
         inkscape:connector-curvature="0"
         style="stroke-width:5.38947392;fill:#f0f0f0;fill-opacity:1" /></g><g
       id="g146"
       style="stroke-width:5.38947392;fill:#f0f0f0;fill-opacity:1"><path
         d="m 416,448 h -32 c -2.211,0 -4,-1.789 -4,-4 0,-2.211 1.789,-4 4,-4 h 32 c 2.211,0 4,1.789 4,4 0,2.211 -1.789,4 -4,4 z"
         id="path144"
         inkscape:connector-curvature="0"
         style="stroke-width:5.38947392;fill:#f0f0f0;fill-opacity:1" /></g><g
       id="g150"
       style="stroke-width:5.38947392;fill:#f0f0f0;fill-opacity:1"><path
         d="m 112,456 c -2.211,0 -4,-1.789 -4,-4 V 20 c 0,-2.211 1.789,-4 4,-4 2.211,0 4,1.789 4,4 v 432 c 0,2.211 -1.789,4 -4,4 z"
         id="path148"
         inkscape:connector-curvature="0"
         style="stroke-width:5.38947392;fill:#f0f0f0;fill-opacity:1" /></g></g></svg>