<?xml version="1.0" encoding="UTF-8" standalone="no"?>
<svg
   xmlns:dc="http://purl.org/dc/elements/1.1/"
   xmlns:cc="http://creativecommons.org/ns#"
   xmlns:rdf="http://www.w3.org/1999/02/22-rdf-syntax-ns#"
   xmlns:svg="http://www.w3.org/2000/svg"
   xmlns="http://www.w3.org/2000/svg"
   xmlns:sodipodi="http://sodipodi.sourceforge.net/DTD/sodipodi-0.dtd"
   xmlns:inkscape="http://www.inkscape.org/namespaces/inkscape"
   version="1.1"
   x="0px"
   y="0px"
   viewBox="0 0 100 99.999997"
   xml:space="preserve"
   id="svg26"
   sodipodi:docname="13-Writer.svg"
   width="100"
   height="100"
   inkscape:version="0.92.1 r15371"><metadata
     id="metadata32"><rdf:RDF><cc:Work
         rdf:about=""><dc:format>image/svg+xml</dc:format><dc:type
           rdf:resource="http://purl.org/dc/dcmitype/StillImage" /><dc:title></dc:title></cc:Work></rdf:RDF></metadata><defs
     id="defs30" /><sodipodi:namedview
     pagecolor="#ffffff"
     bordercolor="#666666"
     borderopacity="1"
     objecttolerance="10"
     gridtolerance="10"
     guidetolerance="10"
     inkscape:pageopacity="0"
     inkscape:pageshadow="2"
     inkscape:window-width="2560"
     inkscape:window-height="1506"
     id="namedview28"
     showgrid="false"
     inkscape:zoom="3.2951832"
     inkscape:cx="-32.398868"
     inkscape:cy="106.9576"
     inkscape:window-x="-11"
     inkscape:window-y="-11"
     inkscape:window-maximized="1"
     inkscape:current-layer="svg26" /><g
     id="g20"
     transform="matrix(0.41452341,0,0,0.41452341,15.352777,1.8450746)"
     style="stroke-width:2.41240907"><path
       d="m 56.84,216.82 v -73.718 l -24.729,22.17 v 51.547 c 0,6.828 5.537,12.363 12.365,12.363 6.827,0.001 12.364,-5.534 12.364,-12.362 z"
       id="path2"
       inkscape:connector-curvature="0"
       style="stroke-width:2.41240907" /><circle
       transform="matrix(0.9739,-0.2268,0.2268,0.9739,-3.5613,14.0023)"
       cx="59.157001"
       cy="22.5"
       id="ellipse4"
       r="22.495001"
       style="stroke-width:2.41240907" /><path
       d="m 169.203,67.42 -0.002,-6.916 -0.003,-9.964 c 0.005,-6.222 -5.031,-11.257 -11.252,-11.252 L 124.19,39.276 c -6.22,0.008 -11.256,5.044 -11.264,11.264 l 0.005,9.964 0.003,6.914 z"
       id="path6"
       inkscape:connector-curvature="0"
       style="stroke-width:2.41240907" /><polygon
       points="152.321,171.255 152.321,70.492 129.808,70.5 129.808,76.387 129.809,92.55 129.811,171.25 "
       id="polygon8"
       style="stroke-width:2.41240907" /><polygon
       points="112.934,71.991 112.934,88.867 112.933,171.246 125.882,171.255 125.887,91.951 125.888,75.674 125.889,70.498 112.934,70.5 "
       id="polygon10"
       style="stroke-width:2.41240907" /><polygon
       points="169.203,70.5 156.255,70.492 156.247,171.248 169.203,171.246 169.204,171.246 "
       id="polygon12"
       style="stroke-width:2.41240907" /><path
       d="m 136.033,224.528 c 2.768,5.542 7.299,5.538 10.065,0.004 l 23.105,-50.202 h -56.27 z"
       id="path14"
       inkscape:connector-curvature="0"
       style="stroke-width:2.41240907" /><path
       d="m 59.191,138.307 c 0.841,-0.754 1.349,-1.731 1.55,-2.761 0.292,-1.487 -0.076,-3.085 -1.166,-4.3 l -2.736,-3.052 -16.847,-18.788 c -1.843,-2.057 -5.004,-2.229 -7.061,-0.385 l -0.821,0.736 -4.945,4.435 c 1.362,3.021 3.01,6.156 4.945,9.401 0.99,1.659 2.05,3.345 3.188,5.06 1.285,1.938 1.795,4.163 1.623,6.318 -0.238,2.957 -1.769,5.781 -4.424,7.543 -0.125,0.083 -0.26,0.141 -0.387,0.218 -1.559,0.938 -3.318,1.451 -5.137,1.451 -3.364,0 -6.482,-1.671 -8.344,-4.471 -2.628,-3.96 -4.927,-7.847 -6.921,-11.662 l -10.046,9.01 c -2.056,1.844 -2.228,5.005 -0.385,7.061 l 19.583,21.84 c 1.844,2.057 5.004,2.229 7.061,0.385 l 4.19,-3.757 24.729,-22.172 z"
       id="path16"
       inkscape:connector-curvature="0"
       style="stroke-width:2.41240907" /><path
       d="m 13.236,126.683 c 1.984,3.827 4.323,7.797 7.063,11.924 1.54,2.32 4.083,3.577 6.675,3.577 1.52,0 3.056,-0.432 4.418,-1.335 0.254,-0.169 0.492,-0.351 0.72,-0.542 1.958,-1.641 2.952,-4.071 2.838,-6.506 -0.066,-1.396 -0.488,-2.793 -1.316,-4.042 -0.53,-0.798 -1.029,-1.58 -1.521,-2.356 -2.691,-4.249 -4.822,-8.183 -6.494,-11.822 -0.297,-0.648 -0.585,-1.289 -0.854,-1.918 -1.648,-3.862 -2.765,-7.372 -3.46,-10.545 -0.673,-3.073 -0.962,-5.839 -0.96,-8.302 0.012,-5.307 1.253,-9.382 3.086,-12.824 2.223,-4.166 5.504,-7.39 8.682,-9.738 v 34.864 c 0.051,-0.038 0.104,-0.069 0.156,-0.105 1.169,-0.818 2.562,-1.269 4.002,-1.269 1.988,0 3.889,0.849 5.213,2.329 l 15.358,17.128 4.225,4.712 c 0.2,0.223 0.379,0.46 0.547,0.702 0.88,1.269 1.318,2.782 1.232,4.35 -0.011,0.196 -0.034,0.39 -0.061,0.582 -0.15,1.093 -0.553,2.116 -1.172,3.009 v 78.264 c 0,6.828 5.537,12.363 12.365,12.363 6.826,0 12.363,-5.535 12.363,-12.363 V 108.881 c 0,-0.593 -0.056,-1.171 -0.137,-1.742 V 76.331 c 1.08,0.71 2.217,1.432 3.426,2.161 5.686,3.424 12.831,6.958 21.306,9.743 l 10e-4,-17.006 c -5.031,-1.993 -9.4,-4.246 -13.053,-6.443 -4.437,-2.67 -7.812,-5.246 -10.03,-7.109 -1.109,-0.931 -1.93,-1.686 -2.45,-2.18 -0.259,-0.248 -0.444,-0.43 -0.551,-0.54 -0.044,-0.042 -0.075,-0.074 -0.093,-0.093 v 0 C 84.695,54.795 84.624,54.736 84.558,54.67 83.143,52.865 80.949,51.701 78.476,51.701 H 39.84 c -0.636,0 -1.251,0.085 -1.843,0.23 -0.764,0.018 -1.538,0.143 -2.302,0.393 h -0.002 c -0.579,0.21 -7.869,2.579 -15.571,9.003 -3.839,3.221 -7.782,7.506 -10.79,13.098 -3.01,5.58 -4.999,12.475 -4.987,20.394 0.004,4.779 0.714,9.883 2.232,15.334 1.291,4.634 3.18,9.523 5.728,14.682 0.304,0.611 0.608,1.226 0.931,1.848 z"
       id="path18"
       inkscape:connector-curvature="0"
       style="stroke-width:2.41240907" /></g></svg>