<?xml version="1.0" encoding="UTF-8" standalone="no"?>
<svg
   xmlns:dc="http://purl.org/dc/elements/1.1/"
   xmlns:cc="http://creativecommons.org/ns#"
   xmlns:rdf="http://www.w3.org/1999/02/22-rdf-syntax-ns#"
   xmlns:svg="http://www.w3.org/2000/svg"
   xmlns="http://www.w3.org/2000/svg"
   xmlns:sodipodi="http://sodipodi.sourceforge.net/DTD/sodipodi-0.dtd"
   xmlns:inkscape="http://www.inkscape.org/namespaces/inkscape"
   version="1.1"
   x="0px"
   y="0px"
   viewBox="0 0 100 100"
   enable-background="new 0 0 88 100"
   xml:space="preserve"
   id="svg10"
   sodipodi:docname="2-theDVDYear-noun_Calendar_404.html"
   width="100"
   height="100"
   inkscape:version="0.92.1 r15371"><metadata
     id="metadata16"><rdf:RDF><cc:Work
         rdf:about=""><dc:format>image/svg+xml</dc:format><dc:type
           rdf:resource="http://purl.org/dc/dcmitype/StillImage" /><dc:title></dc:title></cc:Work></rdf:RDF></metadata><defs
     id="defs14" /><sodipodi:namedview
     pagecolor="#ffffff"
     bordercolor="#666666"
     borderopacity="1"
     objecttolerance="10"
     gridtolerance="10"
     guidetolerance="10"
     inkscape:pageopacity="0"
     inkscape:pageshadow="2"
     inkscape:window-width="2560"
     inkscape:window-height="1506"
     id="namedview12"
     showgrid="false"
     inkscape:zoom="5.3400704"
     inkscape:cx="-32.166605"
     inkscape:cy="38.115989"
     inkscape:window-x="-11"
     inkscape:window-y="-11"
     inkscape:window-maximized="1"
     inkscape:current-layer="svg10" /><path
     d="m 8.6141186,33.058877 v 56.9107 c 0,4.24745 3.4029004,7.6893 7.6000004,7.6893 h 68.4 c 4.1971,0 7.6,-3.44185 7.6,-7.6893 v -56.9107 z m 20.9000004,58.9 h -15.2 v -15.2 h 15.2 z m 0,-19 h -15.2 v -15.2 h 15.2 z m 0,-19 h -15.2 v -15.2 h 15.2 z m 19,38 h -15.2 v -15.2 h 15.2 z m 0,-19 h -15.2 v -15.2 h 15.2 z m 0,-19 h -15.2 v -15.2 h 15.2 z m 19,38 h -15.2 v -15.2 h 15.2 z m 0,-19 h -15.2 v -15.2 h 15.2 z m 0,-19 h -15.2 v -15.2 h 15.2 z m 19,38 h -15.2 v -15.2 h 15.2 z m 0,-19 h -15.2 v -15.2 h 15.2 z m 0,-19 h -15.2 v -15.2 h 15.2 z"
     id="path2"
     inkscape:connector-curvature="0"
     style="stroke-width:1" /><path
     d="m 84.614119,14.058877 h -12.35 V 5.5088773 c 0,-1.57415 -1.2768,-2.85 -2.85,-2.85 -1.57415,0 -2.85,1.27585 -2.85,2.85 v 8.5499997 h -32.3 V 5.5088773 c 0,-1.57415 -1.2768,-2.85 -2.85,-2.85 -1.57415,0 -2.85,1.27585 -2.85,2.85 v 8.5499997 h -12.35 c -4.1971,0 -7.6000004,3.44185 -7.6000004,7.68835 v 6.56165 0 0.95 H 92.214119 v -0.95 0 -6.56165 c 0,-4.2465 -3.4029,-7.68835 -7.6,-7.68835 z m -53.2,13.3 c -3.14735,0 -5.7,-2.55265 -5.7,-5.7 0,-2.10805 1.14855,-3.9444 2.85,-4.9305 v 4.9305 c 0,1.57415 1.27585,2.85 2.85,2.85 1.5732,0 2.85,-1.27585 2.85,-2.85 v -4.93145 c 1.7024,0.9861 2.85,2.8234 2.85,4.93145 0,3.14735 -2.5517,5.7 -5.7,5.7 z m 38,0 c -3.14735,0 -5.7,-2.55265 -5.7,-5.7 0,-2.10805 1.14855,-3.9444 2.85,-4.9305 v 4.9305 c 0,1.57415 1.27585,2.85 2.85,2.85 1.5732,0 2.85,-1.27585 2.85,-2.85 v -4.93145 c 1.7024,0.9861 2.85,2.8234 2.85,4.93145 0,3.14735 -2.5517,5.7 -5.7,5.7 z"
     id="path4"
     inkscape:connector-curvature="0"
     style="stroke-width:1" /></svg>