<?xml version="1.0" encoding="UTF-8" standalone="no"?>
<svg
   xmlns:dc="http://purl.org/dc/elements/1.1/"
   xmlns:cc="http://creativecommons.org/ns#"
   xmlns:rdf="http://www.w3.org/1999/02/22-rdf-syntax-ns#"
   xmlns:svg="http://www.w3.org/2000/svg"
   xmlns="http://www.w3.org/2000/svg"
   xmlns:sodipodi="http://sodipodi.sourceforge.net/DTD/sodipodi-0.dtd"
   xmlns:inkscape="http://www.inkscape.org/namespaces/inkscape"
   version="1.1"
   x="0px"
   y="0px"
   viewBox="0 0 100 100"
   enable-background="new 0 0 100 100"
   xml:space="preserve"
   id="svg192"
   sodipodi:docname="3-theDVDAges-noun_Movie For Kids_80339.svg"
   width="100"
   height="100"
   inkscape:version="0.92.1 r15371"><metadata
     id="metadata198"><rdf:RDF><cc:Work
         rdf:about=""><dc:format>image/svg+xml</dc:format><dc:type
           rdf:resource="http://purl.org/dc/dcmitype/StillImage" /><dc:title></dc:title></cc:Work></rdf:RDF></metadata><defs
     id="defs196" /><sodipodi:namedview
     pagecolor="#ffffff"
     bordercolor="#666666"
     borderopacity="1"
     objecttolerance="10"
     gridtolerance="10"
     guidetolerance="10"
     inkscape:pageopacity="0"
     inkscape:pageshadow="2"
     inkscape:window-width="2560"
     inkscape:window-height="1506"
     id="namedview194"
     showgrid="false"
     inkscape:zoom="1.888"
     inkscape:cx="50"
     inkscape:cy="62.5"
     inkscape:window-x="-11"
     inkscape:window-y="-11"
     inkscape:window-maximized="1"
     inkscape:current-layer="svg192" /><g
     id="g186"
     transform="matrix(1.2605488,0,0,1.2605488,-14.477062,-12.412086)"
     style="stroke-width:0.79330528"><g
       id="g8"
       style="stroke-width:0.79330528"><g
         id="g6"
         style="stroke-width:0.79330528"><g
           id="g4"
           style="stroke-width:0.79330528"><path
             d="m 67.272,39.188 c -7.35,0 -13.33,-5.98 -13.33,-13.333 0,-7.35 5.98,-13.33 13.33,-13.33 7.352,0 13.333,5.98 13.333,13.33 0,7.353 -5.981,13.333 -13.333,13.333 z m 0,-25.363 c -6.633,0 -12.03,5.397 -12.03,12.03 0,6.635 5.397,12.032 12.03,12.032 6.636,0 12.031,-5.397 12.031,-12.032 0.001,-6.632 -5.395,-12.03 -12.031,-12.03 z"
             id="path2"
             inkscape:connector-curvature="0"
             style="fill:#000000;stroke-width:0.79330528" /></g></g></g><g
       id="g16"
       style="stroke-width:0.79330528"><g
         id="g14"
         style="stroke-width:0.79330528"><g
           id="g12"
           style="stroke-width:0.79330528"><path
             d="m 35.863,39.188 c -7.351,0 -13.332,-5.98 -13.332,-13.333 0,-7.35 5.98,-13.33 13.332,-13.33 7.352,0 13.332,5.98 13.332,13.33 0,7.353 -5.98,13.333 -13.332,13.333 z m 0,-25.363 c -6.633,0 -12.03,5.397 -12.03,12.03 0,6.635 5.397,12.032 12.03,12.032 6.635,0 12.031,-5.397 12.031,-12.032 0.001,-6.632 -5.396,-12.03 -12.031,-12.03 z"
             id="path10"
             inkscape:connector-curvature="0"
             style="fill:#000000;stroke-width:0.79330528" /></g></g></g><g
       id="g24"
       style="stroke-width:0.79330528"><g
         id="g22"
         style="stroke-width:0.79330528"><g
           id="g20"
           style="stroke-width:0.79330528"><path
             stroke-miterlimit="10"
             d="M 45.618,25.855"
             id="path18"
             inkscape:connector-curvature="0"
             style="fill:#000000;stroke:#282626;stroke-width:3.17322111;stroke-miterlimit:10" /></g></g></g><g
       id="g32"
       style="stroke-width:0.79330528"><g
         id="g30"
         style="stroke-width:0.79330528"><g
           id="g28"
           style="stroke-width:0.79330528"><circle
             cx="35.863998"
             cy="25.857"
             r="4.2270002"
             id="circle26"
             style="fill:#000000;stroke-width:0.79330528" /></g></g></g><g
       id="g40"
       style="stroke-width:0.79330528"><g
         id="g38"
         style="stroke-width:0.79330528"><g
           id="g36"
           style="stroke-width:0.79330528"><circle
             cx="67.273003"
             cy="25.857"
             r="4.2259998"
             id="circle34"
             style="fill:#000000;stroke-width:0.79330528" /></g></g></g><g
       id="g48"
       style="stroke-width:0.79330528"><g
         id="g46"
         style="stroke-width:0.79330528"><g
           id="g44"
           style="stroke-width:0.79330528"><path
             d="M 68.152,65.517 H 34.985 c -2.124,0 -3.991,-1.723 -4.162,-3.841 L 29.395,43.962 c -0.084,-1.046 0.25,-2.034 0.941,-2.783 0.691,-0.748 1.649,-1.161 2.698,-1.161 h 37.069 c 1.049,0 2.008,0.413 2.699,1.161 0.69,0.749 1.024,1.737 0.94,2.783 l -1.429,17.715 c -0.171,2.117 -2.037,3.84 -4.161,3.84 z M 33.034,41.318 c -0.682,0 -1.3,0.264 -1.741,0.742 -0.442,0.48 -0.655,1.118 -0.601,1.796 l 1.428,17.715 c 0.116,1.435 1.428,2.645 2.865,2.645 h 33.167 c 1.438,0 2.749,-1.21 2.864,-2.645 l 1.429,-17.715 c 0.055,-0.678 -0.158,-1.315 -0.6,-1.796 -0.442,-0.479 -1.062,-0.742 -1.743,-0.742 z"
             id="path42"
             inkscape:connector-curvature="0"
             style="fill:#000000;stroke-width:0.79330528" /></g></g></g><g
       id="g56"
       style="stroke-width:0.79330528"><g
         id="g54"
         style="stroke-width:0.79330528"><g
           id="g52"
           style="stroke-width:0.79330528"><path
             d="m 51.568,56.669 c -4.662,0 -8.454,-3.793 -8.454,-8.454 0,-0.36 0.291,-0.65 0.65,-0.65 0.359,0 0.651,0.29 0.651,0.65 0,3.944 3.209,7.153 7.153,7.153 3.944,0 7.153,-3.209 7.153,-7.153 0,-0.36 0.292,-0.65 0.651,-0.65 0.358,0 0.648,0.29 0.648,0.65 10e-4,4.661 -3.791,8.454 -8.452,8.454 z"
             id="path50"
             inkscape:connector-curvature="0"
             style="fill:#000000;stroke-width:0.79330528" /></g></g></g><g
       id="g64"
       style="stroke-width:0.79330528"><g
         id="g62"
         style="stroke-width:0.79330528"><g
           id="g60"
           style="stroke-width:0.79330528"><path
             d="m 33.002,44.611 c -0.561,0 -1.017,-0.456 -1.017,-1.017 0,-0.561 0.456,-1.017 1.017,-1.017 0.56,0 1.016,0.456 1.016,1.017 0,0.561 -0.456,1.017 -1.016,1.017 z m 0,-1.382 c -0.202,0 -0.366,0.165 -0.366,0.366 0,0.201 0.164,0.365 0.366,0.365 0.202,0 0.366,-0.164 0.366,-0.365 0,-0.201 -0.164,-0.366 -0.366,-0.366 z"
             id="path58"
             inkscape:connector-curvature="0"
             style="fill:#000000;stroke-width:0.79330528" /></g></g></g><g
       id="g72"
       style="stroke-width:0.79330528"><g
         id="g70"
         style="stroke-width:0.79330528"><g
           id="g68"
           style="stroke-width:0.79330528"><path
             d="m 34.929,63.31 c -0.56,0 -1.016,-0.456 -1.016,-1.017 0,-0.561 0.456,-1.017 1.016,-1.017 0.561,0 1.016,0.456 1.016,1.017 0,0.561 -0.456,1.017 -1.016,1.017 z m 0,-1.383 c -0.202,0 -0.366,0.163 -0.366,0.366 0,0.201 0.165,0.365 0.366,0.365 0.201,0 0.366,-0.164 0.366,-0.365 -0.001,-0.203 -0.165,-0.366 -0.366,-0.366 z"
             id="path66"
             inkscape:connector-curvature="0"
             style="fill:#000000;stroke-width:0.79330528" /></g></g></g><g
       id="g80"
       style="stroke-width:0.79330528"><g
         id="g78"
         style="stroke-width:0.79330528"><g
           id="g76"
           style="stroke-width:0.79330528"><path
             d="m 68.249,63.31 c -0.561,0 -1.016,-0.456 -1.016,-1.017 0,-0.561 0.455,-1.017 1.016,-1.017 0.56,0 1.016,0.456 1.016,1.017 0,0.561 -0.456,1.017 -1.016,1.017 z m 0,-1.383 c -0.202,0 -0.366,0.163 -0.366,0.366 0,0.201 0.164,0.365 0.366,0.365 0.202,0 0.365,-0.164 0.365,-0.365 0,-0.203 -0.163,-0.366 -0.365,-0.366 z"
             id="path74"
             inkscape:connector-curvature="0"
             style="fill:#000000;stroke-width:0.79330528" /></g></g></g><g
       id="g88"
       style="stroke-width:0.79330528"><g
         id="g86"
         style="stroke-width:0.79330528"><g
           id="g84"
           style="stroke-width:0.79330528"><path
             d="m 70.178,44.611 c -0.561,0 -1.017,-0.456 -1.017,-1.017 0,-0.561 0.456,-1.017 1.017,-1.017 0.56,0 1.017,0.456 1.017,1.017 0,0.561 -0.458,1.017 -1.017,1.017 z m 0,-1.382 c -0.201,0 -0.365,0.165 -0.365,0.366 0,0.201 0.164,0.365 0.365,0.365 0.202,0 0.365,-0.164 0.365,-0.365 0,-0.201 -0.163,-0.366 -0.365,-0.366 z"
             id="path82"
             inkscape:connector-curvature="0"
             style="fill:#000000;stroke-width:0.79330528" /></g></g></g><g
       id="g96"
       style="stroke-width:0.79330528"><g
         id="g94"
         style="stroke-width:0.79330528"><g
           id="g92"
           style="stroke-width:0.79330528"><path
             d="m 28.343,56.751 c -0.928,0 -1.706,-0.725 -1.771,-1.651 L 26.27,50.78 c -0.068,-0.978 0.671,-1.828 1.647,-1.896 l 1.373,-0.096 c 0.976,-0.071 1.828,0.679 1.896,1.647 l 0.302,4.319 c 0.033,0.474 -0.12,0.931 -0.431,1.289 -0.311,0.357 -0.743,0.573 -1.216,0.606 l -1.372,0.097 c -0.043,0.004 -0.086,0.005 -0.126,0.005 z m 1.073,-6.667 -0.035,10e-4 -1.373,0.096 c -0.261,0.019 -0.458,0.246 -0.441,0.508 l 0.302,4.32 c 0.017,0.248 0.226,0.442 0.473,0.442 l 0.034,-10e-4 1.373,-0.098 c 0.127,-0.008 0.243,-0.065 0.326,-0.161 0.083,-0.097 0.124,-0.219 0.115,-0.346 l -0.302,-4.32 c -0.017,-0.247 -0.225,-0.441 -0.472,-0.441 z"
             id="path90"
             inkscape:connector-curvature="0"
             style="fill:#000000;stroke-width:0.79330528" /></g></g></g><g
       id="g104"
       style="stroke-width:0.79330528"><g
         id="g102"
         style="stroke-width:0.79330528"><g
           id="g100"
           style="stroke-width:0.79330528"><rect
             x="25.379"
             y="52.401001"
             transform="matrix(0.0658,0.9978,-0.9978,0.0658,79.406,20.642)"
             width="6.6009998"
             height="0.65100002"
             id="rect98"
             style="fill:#000000;stroke-width:0.79330528" /></g></g></g><g
       id="g112"
       style="stroke-width:0.79330528"><g
         id="g110"
         style="stroke-width:0.79330528"><g
           id="g108"
           style="stroke-width:0.79330528"><path
             d="m 20.68,62.059 v 0 c -1.281,0 -2.281,-0.971 -2.376,-2.307 l -0.902,-12.7 c -0.052,-0.733 0.172,-1.408 0.632,-1.902 0.538,-0.578 1.351,-0.841 2.205,-0.709 l 4.193,0.646 c 1.548,0.239 2.849,1.651 2.96,3.215 l 0.625,8.803 c 0.111,1.563 -0.977,3.146 -2.477,3.601 l -4.059,1.232 c -0.267,0.081 -0.536,0.121 -0.801,0.121 z M 19.803,45.707 c -0.334,0 -0.617,0.113 -0.817,0.329 -0.21,0.226 -0.312,0.554 -0.286,0.924 l 0.901,12.698 c 0.047,0.668 0.471,1.1 1.079,1.1 v 0 c 0.137,0 0.279,-0.022 0.423,-0.066 l 4.06,-1.232 c 0.911,-0.276 1.624,-1.312 1.558,-2.262 l -0.626,-8.805 c -0.068,-0.95 -0.92,-1.876 -1.862,-2.021 l -4.192,-0.646 c -0.082,-0.013 -0.162,-0.019 -0.238,-0.019 z"
             id="path106"
             inkscape:connector-curvature="0"
             style="fill:#000000;stroke-width:0.79330528" /></g></g></g><g
       id="g120"
       style="stroke-width:0.79330528"><g
         id="g118"
         style="stroke-width:0.79330528"><g
           id="g116"
           style="stroke-width:0.79330528"><path
             d="m 60.224,68.891 h -17.31 c -0.627,0 -1.266,-0.444 -1.486,-1.033 l -0.799,-2.155 c -0.134,-0.362 -0.095,-0.737 0.107,-1.028 0.204,-0.292 0.541,-0.458 0.927,-0.458 h 19.812 c 0.386,0 0.725,0.166 0.927,0.458 0.202,0.291 0.241,0.666 0.106,1.028 l -0.8,2.154 c -0.218,0.589 -0.856,1.034 -1.484,1.034 z m -18.277,-3.374 0.7,1.888 c 0.03,0.08 0.182,0.186 0.267,0.186 h 17.31 c 0.084,0 0.236,-0.105 0.266,-0.186 l 0.7,-1.888 z"
             id="path114"
             inkscape:connector-curvature="0"
             style="fill:#000000;stroke-width:0.79330528" /></g></g></g><g
       id="g128"
       style="stroke-width:0.79330528"><g
         id="g126"
         style="stroke-width:0.79330528"><g
           id="g124"
           style="stroke-width:0.79330528"><path
             d="m 66.945,87.889 c -0.837,0 -1.649,-0.44 -2.087,-1.221 L 55.226,69.454 C 55.028,69.099 54.922,68.697 54.922,68.29 v -0.048 h 1.301 v 0.048 c 0,0.185 0.048,0.367 0.138,0.528 l 9.632,17.215 c 0.292,0.521 0.955,0.71 1.476,0.417 0.343,-0.192 0.556,-0.555 0.556,-0.948 0,-0.185 -0.047,-0.363 -0.141,-0.53 L 58.703,68.56 59.838,67.924 69.022,84.34 c 0.198,0.358 0.304,0.76 0.304,1.162 0,0.863 -0.469,1.661 -1.22,2.083 -0.368,0.206 -0.767,0.304 -1.161,0.304 z"
             id="path122"
             inkscape:connector-curvature="0"
             style="fill:#000000;stroke-width:0.79330528" /></g></g></g><g
       id="g136"
       style="stroke-width:0.79330528"><g
         id="g134"
         style="stroke-width:0.79330528"><g
           id="g132"
           style="stroke-width:0.79330528"><path
             d="m 36.192,87.889 c -0.394,0 -0.793,-0.098 -1.16,-0.304 -0.752,-0.422 -1.221,-1.22 -1.221,-2.083 0,-0.402 0.105,-0.804 0.303,-1.16 l 9.184,-16.418 1.135,0.636 -9.183,16.414 c -0.091,0.165 -0.138,0.343 -0.138,0.528 0,0.394 0.212,0.756 0.555,0.948 0.521,0.292 1.183,0.104 1.477,-0.418 l 9.63,-17.214 c 0.091,-0.161 0.139,-0.344 0.139,-0.528 v -0.048 h 1.301 v 0.048 c 0,0.407 -0.105,0.81 -0.305,1.165 l -9.63,17.213 c -0.439,0.78 -1.252,1.221 -2.087,1.221 z"
             id="path130"
             inkscape:connector-curvature="0"
             style="fill:#000000;stroke-width:0.79330528" /></g></g></g><g
       id="g144"
       style="stroke-width:0.79330528"><g
         id="g142"
         style="stroke-width:0.79330528"><g
           id="g140"
           style="stroke-width:0.79330528"><path
             d="m 39.217,83.982 c -0.054,0 -0.108,-0.014 -0.159,-0.042 l -1.317,-0.735 c -0.156,-0.088 -0.213,-0.286 -0.125,-0.442 0.087,-0.156 0.285,-0.213 0.443,-0.125 l 1.317,0.735 c 0.158,0.088 0.213,0.286 0.126,0.442 -0.061,0.107 -0.171,0.167 -0.285,0.167 z"
             id="path138"
             inkscape:connector-curvature="0"
             style="fill:#000000;stroke-width:0.79330528" /></g></g></g><g
       id="g152"
       style="stroke-width:0.79330528"><g
         id="g150"
         style="stroke-width:0.79330528"><g
           id="g148"
           style="stroke-width:0.79330528"><path
             d="m 39.719,83.125 c -0.055,0 -0.11,-0.015 -0.161,-0.043 L 37.74,82.045 c -0.156,-0.089 -0.211,-0.287 -0.122,-0.443 0.089,-0.157 0.288,-0.211 0.443,-0.121 l 1.819,1.036 c 0.156,0.09 0.21,0.288 0.123,0.443 -0.061,0.105 -0.171,0.165 -0.284,0.165 z"
             id="path146"
             inkscape:connector-curvature="0"
             style="fill:#000000;stroke-width:0.79330528" /></g></g></g><g
       id="g160"
       style="stroke-width:0.79330528"><g
         id="g158"
         style="stroke-width:0.79330528"><g
           id="g156"
           style="stroke-width:0.79330528"><path
             d="m 43.214,73.565 c -0.048,0 -0.098,-0.011 -0.145,-0.034 l -1.35,-0.676 c -0.161,-0.08 -0.226,-0.274 -0.146,-0.436 0.081,-0.161 0.276,-0.225 0.437,-0.146 l 1.35,0.676 c 0.16,0.08 0.226,0.275 0.146,0.436 -0.058,0.115 -0.173,0.18 -0.292,0.18 z"
             id="path154"
             inkscape:connector-curvature="0"
             style="fill:#000000;stroke-width:0.79330528" /></g></g></g><g
       id="g168"
       style="stroke-width:0.79330528"><g
         id="g166"
         style="stroke-width:0.79330528"><g
           id="g164"
           style="stroke-width:0.79330528"><path
             d="m 42.787,74.463 c -0.048,0 -0.097,-0.01 -0.144,-0.032 l -1.88,-0.922 c -0.162,-0.079 -0.228,-0.273 -0.149,-0.435 0.079,-0.161 0.273,-0.228 0.435,-0.148 l 1.881,0.92 c 0.16,0.08 0.227,0.275 0.148,0.437 -0.056,0.114 -0.171,0.18 -0.291,0.18 z"
             id="path162"
             inkscape:connector-curvature="0"
             style="fill:#000000;stroke-width:0.79330528" /></g></g></g><g
       id="g176"
       style="stroke-width:0.79330528"><g
         id="g174"
         style="stroke-width:0.79330528"><g
           id="g172"
           style="stroke-width:0.79330528"><path
             d="m 60.157,77.394 c -0.112,0 -0.223,-0.06 -0.282,-0.165 -0.089,-0.156 -0.032,-0.355 0.124,-0.443 l 1.193,-0.672 c 0.157,-0.088 0.356,-0.031 0.442,0.124 0.09,0.156 0.034,0.355 -0.123,0.443 l -1.194,0.672 c -0.051,0.027 -0.105,0.041 -0.16,0.041 z"
             id="path170"
             inkscape:connector-curvature="0"
             style="fill:#000000;stroke-width:0.79330528" /></g></g></g><g
       id="g184"
       style="stroke-width:0.79330528"><g
         id="g182"
         style="stroke-width:0.79330528"><g
           id="g180"
           style="stroke-width:0.79330528"><path
             d="m 61.126,78.065 c -0.115,0 -0.226,-0.06 -0.285,-0.166 -0.086,-0.156 -0.031,-0.354 0.125,-0.442 l 1.194,-0.672 c 0.156,-0.088 0.354,-0.032 0.443,0.124 0.088,0.156 0.032,0.354 -0.124,0.443 l -1.195,0.671 c -0.05,0.029 -0.105,0.042 -0.158,0.042 z"
             id="path178"
             inkscape:connector-curvature="0"
             style="fill:#000000;stroke-width:0.79330528" /></g></g></g></g></svg>