<?xml version="1.0" encoding="UTF-8" standalone="no"?>
<svg
   xmlns:dc="http://purl.org/dc/elements/1.1/"
   xmlns:cc="http://creativecommons.org/ns#"
   xmlns:rdf="http://www.w3.org/1999/02/22-rdf-syntax-ns#"
   xmlns:svg="http://www.w3.org/2000/svg"
   xmlns="http://www.w3.org/2000/svg"
   xmlns:sodipodi="http://sodipodi.sourceforge.net/DTD/sodipodi-0.dtd"
   xmlns:inkscape="http://www.inkscape.org/namespaces/inkscape"
   version="1.1"
   x="0px"
   y="0px"
   viewBox="0 0 100 100"
   xml:space="preserve"
   id="svg14"
   sodipodi:docname="4-released-noun_date_1828463.html"
   width="100"
   height="100"
   inkscape:version="0.92.1 r15371"><metadata
     id="metadata20"><rdf:RDF><cc:Work
         rdf:about=""><dc:format>image/svg+xml</dc:format><dc:type
           rdf:resource="http://purl.org/dc/dcmitype/StillImage" /><dc:title></dc:title></cc:Work></rdf:RDF></metadata><defs
     id="defs18" /><sodipodi:namedview
     pagecolor="#ffffff"
     bordercolor="#666666"
     borderopacity="1"
     objecttolerance="10"
     gridtolerance="10"
     guidetolerance="10"
     inkscape:pageopacity="0"
     inkscape:pageshadow="2"
     inkscape:window-width="2560"
     inkscape:window-height="1506"
     id="namedview16"
     showgrid="false"
     inkscape:zoom="4.17193"
     inkscape:cx="152.89044"
     inkscape:cy="142.93019"
     inkscape:window-x="-11"
     inkscape:window-y="-11"
     inkscape:window-maximized="1"
     inkscape:current-layer="svg14" /><g
     id="g8"
     transform="matrix(0.22727273,0,0,0.22727273,-7.9389256,-7.1563961)"
     style="stroke-width:4.4000001"><path
       d="m 63.425,435 c 0,16.542 13.458,30 30,30 h 325.15 c 16.542,0 30,-13.458 30,-30 V 202.2 H 63.425 Z M 173.748,309.274 c 1.176,-3.62 4.306,-6.258 8.073,-6.806 l 45.061,-6.548 20.152,-40.832 c 1.685,-3.413 5.161,-5.574 8.967,-5.574 3.806,0 7.283,2.161 8.967,5.574 l 20.152,40.832 45.061,6.548 c 3.767,0.547 6.896,3.186 8.073,6.806 1.177,3.62 0.195,7.594 -2.531,10.251 l -32.606,31.784 7.697,44.878 c 0.644,3.751 -0.898,7.543 -3.978,9.781 -1.742,1.266 -3.806,1.91 -5.879,1.91 -1.592,0 -3.189,-0.379 -4.652,-1.149 L 256,385.541 215.696,406.729 c -3.369,1.772 -7.453,1.476 -10.531,-0.761 -3.08,-2.237 -4.622,-6.029 -3.978,-9.781 l 7.697,-44.878 -32.606,-31.784 c -2.726,-2.656 -3.707,-6.63 -2.53,-10.251 z"
       id="path2"
       inkscape:connector-curvature="0"
       style="stroke-width:4.4000001" /><path
       d="m 229.485,349.508 -5.161,30.089 27.022,-14.206 c 1.457,-0.766 3.055,-1.149 4.653,-1.149 1.598,0 3.197,0.383 4.653,1.149 l 27.022,14.206 -5.161,-30.089 c -0.557,-3.244 0.519,-6.554 2.876,-8.851 l 21.861,-21.31 -30.212,-4.39 c -3.257,-0.473 -6.073,-2.519 -7.529,-5.47 L 256,282.11 242.489,309.486 c -1.457,2.951 -4.272,4.997 -7.529,5.47 l -30.212,4.39 21.861,21.31 c 2.357,2.299 3.433,5.609 2.876,8.852 z"
       id="path4"
       inkscape:connector-curvature="0"
       style="stroke-width:4.4000001" /><path
       d="m 131.975,47 c -5.523,0 -10,4.477 -10,10 v 43.8 h -28.55 c -16.542,0 -30,13.458 -30,30 v 51.4 h 385.15 v -51.4 c 0,-16.542 -13.458,-30 -30,-30 h -28.55 V 57 c 0,-5.523 -4.477,-10 -10,-10 -5.523,0 -10,4.477 -10,10 v 43.8 H 141.975 V 57 c 0,-5.523 -4.477,-10 -10,-10 z"
       id="path6"
       inkscape:connector-curvature="0"
       style="stroke-width:4.4000001" /></g></svg>