<?xml version="1.0" encoding="UTF-8" standalone="no"?>
<svg
   xmlns:x="adobe:ns:meta/"
   xmlns:dc="http://purl.org/dc/elements/1.1/"
   xmlns:cc="http://creativecommons.org/ns#"
   xmlns:rdf="http://www.w3.org/1999/02/22-rdf-syntax-ns#"
   xmlns:svg="http://www.w3.org/2000/svg"
   xmlns="http://www.w3.org/2000/svg"
   xmlns:sodipodi="http://sodipodi.sourceforge.net/DTD/sodipodi-0.dtd"
   xmlns:inkscape="http://www.inkscape.org/namespaces/inkscape"
   viewBox="0 0 100 100"
   x="0px"
   y="0px"
   version="1.1"
   id="svg10"
   sodipodi:docname="5-Runtime-noun_duration_1729065_000000.html"
   width="100"
   height="100"
   inkscape:version="0.92.1 r15371">
  <sodipodi:namedview
     pagecolor="#ffffff"
     bordercolor="#666666"
     borderopacity="1"
     objecttolerance="10"
     gridtolerance="10"
     guidetolerance="10"
     inkscape:pageopacity="0"
     inkscape:pageshadow="2"
     inkscape:window-width="2560"
     inkscape:window-height="1506"
     id="namedview12"
     showgrid="false"
     inkscape:zoom="4.72"
     inkscape:cx="25"
     inkscape:cy="25"
     inkscape:window-x="-11"
     inkscape:window-y="-11"
     inkscape:window-maximized="1"
     inkscape:current-layer="svg10" />
  <metadata
     id="metadata2">
<?xpacket begin="&#65279;" id="W5M0MpCehiHzreSzNTczkc9d"?>    <x:xmpmeta
       x:xmptk="Adobe XMP Core 5.6-c138 79.159824, 2016/09/14-01:09:01        " />
<?xpacket end="w"?>    <rdf:RDF>
      <cc:Work
         rdf:about="">
        <dc:format>image/svg+xml</dc:format>
        <dc:type
           rdf:resource="http://purl.org/dc/dcmitype/StillImage" />
        <dc:title></dc:title>
      </cc:Work>
    </rdf:RDF>
  </metadata>
  <defs
     id="defs6">
    <style
       id="style4">
      .cls-1 {
        fill-rule: evenodd;
      }
    </style>
  </defs>
  <path
     class="cls-1"
     d="M 63.9567,42.76535 C 69.846683,38.532163 78.508757,32.300182 79.878653,13.870237 H 80.71465 A 4.5960862,4.5960862 0 0 0 85.337336,9.3102512 V 8.0771545 A 4.5960862,4.5960862 0 0 0 80.71465,3.5171682 H 19.683033 a 4.5960862,4.5960862 0 0 0 -4.632185,4.5599863 v 1.2254967 a 4.5960862,4.5960862 0 0 0 4.622685,4.5599858 h 2.048194 c 1.369896,18.429945 10.02627,24.660026 15.921952,28.895113 3.799989,2.724592 5.772183,4.282587 5.772183,7.199079 0,2.916491 -1.970294,4.480186 -5.755083,7.204778 -6.114181,4.390887 -15.199954,10.932567 -16.043552,31.002207 H 19.683033 A 4.5960862,4.5960862 0 0 0 15.050848,92.7314 v 1.225497 a 4.5960862,4.5960862 0 0 0 4.632185,4.559986 H 80.71465 a 4.5960862,4.5960862 0 0 0 4.622686,-4.559986 V 92.7314 A 4.5960862,4.5960862 0 0 0 80.71465,88.171414 H 80.000252 C 79.156655,68.094174 70.070882,61.554394 63.9567,57.161607 60.156712,54.437015 58.184518,52.87902 58.184518,49.962529 c 0,-2.916492 1.979794,-4.472587 5.772182,-7.197179 z m -2.504192,17.801047 c 6.062882,4.354787 13.524159,9.726071 14.289857,27.597417 h -49.87485 c 0.759997,-17.873246 8.226975,-23.24453 14.289857,-27.599317 3.870288,-2.779692 7.527777,-5.405484 7.527777,-10.601968 0,-5.196485 -3.655589,-7.820377 -7.527777,-10.601969 C 34.339589,35.180573 27.237411,30.069588 25.989114,13.868337 H 75.620765 C 74.380069,30.071488 67.26079,35.182473 61.452508,39.36056 57.58222,42.140252 53.92473,44.766044 53.92473,49.962529 c 0,5.196484 3.65559,7.822276 7.527778,10.601968 z m 7.710177,-32.451903 a 52.871141,52.871141 0 0 0 -18.656044,-3.28129 53.099141,53.099141 0 0 0 -18.165846,3.093191 28.805814,28.805814 0 0 0 9.281472,9.442971 c 4.008988,2.880392 8.549975,6.144582 8.549975,12.593163 0,0.0475 0,0.0931 0,0.140599 h 1.257796 c 0,-0.0475 0,-0.0931 0,-0.140599 0,-6.450481 4.544786,-9.714671 8.549974,-12.593163 a 28.995813,28.995813 0 0 0 9.182673,-9.256772 z m -40.543979,56.64453 c -0.0665,0.619398 -0.125399,1.250197 -0.172899,1.899995 h 44.716366 c -0.0095,-0.1444 -0.0247,-0.2793 -0.0342,-0.419899 A 24.889925,24.889925 0 0 0 28.618706,84.759024 Z"
     id="path8"
     inkscape:connector-curvature="0"
     style="fill-rule:evenodd;stroke-width:1" />
</svg>
