<?xml version="1.0" encoding="UTF-8" standalone="no"?>
<svg
   xmlns:dc="http://purl.org/dc/elements/1.1/"
   xmlns:cc="http://creativecommons.org/ns#"
   xmlns:rdf="http://www.w3.org/1999/02/22-rdf-syntax-ns#"
   xmlns:svg="http://www.w3.org/2000/svg"
   xmlns="http://www.w3.org/2000/svg"
   xmlns:sodipodi="http://sodipodi.sourceforge.net/DTD/sodipodi-0.dtd"
   xmlns:inkscape="http://www.inkscape.org/namespaces/inkscape"
   version="1.1"
   x="0px"
   y="0px"
   viewBox="0 0 100 100"
   enable-background="new 0 0 100 100"
   xml:space="preserve"
   id="svg10"
   sodipodi:docname="6-Genre-noun_drama_60742.html"
   width="100"
   height="100"
   inkscape:version="0.92.1 r15371"><metadata
     id="metadata16"><rdf:RDF><cc:Work
         rdf:about=""><dc:format>image/svg+xml</dc:format><dc:type
           rdf:resource="http://purl.org/dc/dcmitype/StillImage" /><dc:title></dc:title></cc:Work></rdf:RDF></metadata><defs
     id="defs14" /><sodipodi:namedview
     pagecolor="#ffffff"
     bordercolor="#666666"
     borderopacity="1"
     objecttolerance="10"
     gridtolerance="10"
     guidetolerance="10"
     inkscape:pageopacity="0"
     inkscape:pageshadow="2"
     inkscape:window-width="2560"
     inkscape:window-height="1506"
     id="namedview12"
     showgrid="false"
     inkscape:zoom="3.776"
     inkscape:cx="65.258575"
     inkscape:cy="36.734819"
     inkscape:window-x="-11"
     inkscape:window-y="-11"
     inkscape:window-maximized="1"
     inkscape:current-layer="svg10" /><path
     d="M -126,-10"
     id="path2"
     inkscape:connector-curvature="0" /><path
     d="M 81.060837,8.6389 C 62.126615,0.928461 34.057473,0.122774 15.973382,9.982472 c -2.142421,1.168076 -3.802798,3.658071 -3.740121,5.977129 0,0 0.513953,19.162138 0.513953,19.162138 2.686005,35.419473 18.304031,62.598599 37.172156,62.598599 18.868126,0 34.487291,-27.179126 37.172156,-62.597459 0,0 0.512814,-19.127951 0.513953,-19.164418 0.09345,-3.498529 -2.732727,-5.768584 -6.544642,-7.319561 z M 45.447635,45.640118 c 0,0 -13.652241,10.428351 -24.272043,0 0,0 10.619802,-11.567938 24.272043,0 z M 28.841587,61.949873 c 0,0 19.162139,29.542627 45.510507,0 0,0 -23.155248,47.905917 -45.510507,0 z M 55.668581,45.640118 c 0,0 10.618663,-11.567938 24.273182,0 0,0 -13.65338,10.428351 -24.273182,0 z"
     id="path4"
     inkscape:connector-curvature="0"
     style="stroke-width:0.99999994" /></svg>