<?xml version="1.0" encoding="UTF-8" standalone="no"?>
<svg
   xmlns:dc="http://purl.org/dc/elements/1.1/"
   xmlns:cc="http://creativecommons.org/ns#"
   xmlns:rdf="http://www.w3.org/1999/02/22-rdf-syntax-ns#"
   xmlns:svg="http://www.w3.org/2000/svg"
   xmlns="http://www.w3.org/2000/svg"
   xmlns:sodipodi="http://sodipodi.sourceforge.net/DTD/sodipodi-0.dtd"
   xmlns:inkscape="http://www.inkscape.org/namespaces/inkscape"
   version="1.1"
   x="0px"
   y="0px"
   viewBox="0 0 100 100"
   xml:space="preserve"
   id="svg18"
   sodipodi:docname="7-Language-noun_Language_1682450.html"
   width="100"
   height="100"
   inkscape:version="0.92.1 r15371"><metadata
     id="metadata24"><rdf:RDF><cc:Work
         rdf:about=""><dc:format>image/svg+xml</dc:format><dc:type
           rdf:resource="http://purl.org/dc/dcmitype/StillImage" /><dc:title></dc:title></cc:Work></rdf:RDF></metadata><defs
     id="defs22" /><sodipodi:namedview
     pagecolor="#ffffff"
     bordercolor="#666666"
     borderopacity="1"
     objecttolerance="10"
     gridtolerance="10"
     guidetolerance="10"
     inkscape:pageopacity="0"
     inkscape:pageshadow="2"
     inkscape:window-width="2560"
     inkscape:window-height="1506"
     id="namedview20"
     showgrid="false"
     inkscape:zoom="7.552"
     inkscape:cx="-1.2668967"
     inkscape:cy="69.505159"
     inkscape:window-x="-11"
     inkscape:window-y="-11"
     inkscape:window-maximized="1"
     inkscape:current-layer="svg18" /><path
     d="m 74.401405,11.54941 c -7.867495,0 -14.259834,6.39234 -14.259834,14.259834 0,7.867495 6.392339,14.259835 14.259834,14.259835 4.327122,0 8.162526,-1.86853 10.719462,-4.917185 v 0 0 c 2.163561,-2.458592 3.442029,-5.703933 3.442029,-9.244306 C 88.661239,17.843406 82.2689,11.54941 74.401405,11.54941 Z m 4.720497,21.733954 h -3.73706 v -6.68737 h 5.408903 c -0.196688,2.261905 -0.688406,4.622153 -1.671843,6.68737 z m -10.522774,-6.68737 h 5.015528 v 6.68737 H 70.27097 c -0.983436,-2.065217 -1.573499,-4.327122 -1.671842,-6.68737 z m 5.015528,-7.867495 v 6.195652 h -5.015528 c 0.09834,-2.065217 0.590062,-4.228778 1.376811,-6.195652 z m 1.671842,6.097309 v -6.195653 h 4.032091 c 0.78675,1.966874 1.278468,4.032092 1.376812,6.195653 z m 0,-11.506212 c 0.196688,0 0.295031,0 0.491719,0 1.08178,1.081781 1.966873,2.360249 2.655279,3.638717 h -3.146998 z m -1.671842,3.638717 h -2.753624 c 0.688406,-1.278468 1.671843,-2.556936 2.753624,-3.638717 z m -9.539338,1.770186 h 4.032091 c -0.786749,1.966874 -1.180124,4.032091 -1.278468,6.195652 h -4.917184 c 0.196688,-2.360248 0.983437,-4.425466 2.163561,-6.195652 z m -2.065217,7.867495 h 4.917184 c 0.09834,2.261905 0.590062,4.523809 1.475155,6.68737 h -3.835403 c -1.475156,-1.86853 -2.458592,-4.130434 -2.556936,-6.68737 z m 11.604555,11.506211 c -0.885094,-0.983437 -1.671843,-1.966874 -2.360249,-3.048654 h 2.360249 z m 1.671842,0.09834 v -3.146998 h 2.851967 c -0.688406,1.08178 -1.475155,2.163561 -2.458592,3.146998 -0.09834,0 -0.196687,0 -0.393375,0 z m 9.047619,-4.917185 h -3.343685 c 0.885093,-2.163561 1.376812,-4.425465 1.475155,-6.68737 h 4.425466 c -0.196687,2.55694 -1.08178,4.818844 -2.556936,6.687374 z m 2.556936,-8.457552 h -4.425466 c -0.09834,-2.065218 -0.491718,-4.130435 -1.278468,-6.195653 h 3.540373 c 1.278468,1.86853 1.966874,3.933748 2.163561,6.195653 z"
     id="path2"
     inkscape:connector-curvature="0"
     style="stroke-width:1" /><path
     d="M 50.995608,44.297857 C 50.110515,39.970735 47.553579,32.398271 40.866209,30.23471 41.062896,29.546304 41.16124,28.661211 41.16124,27.677774 V 26.300963 H 23.656064 c -0.295031,0 -7.965839,-0.295031 -12.489648,4.032091 -2.261905,2.163561 -3.3436855,4.917184 -3.3436855,8.457557 l 0.098344,4.622153 c -2.3602488,0.688406 -4.0320914,2.851967 -4.0320914,5.310559 0,2.360248 1.573499,4.523809 3.9337474,5.310559 v 0.590062 c 0,7.080745 3.9337475,13.276398 9.8343685,16.620083 l -0.196687,4.622153 c -6.293996,0.393375 -9.5393378,2.950311 -10.6211184,4.032091 -1.9668737,1.86853 -2.9503105,4.425466 -2.9503105,7.375777 V 97.796822 H 6.5442626 V 87.274048 c 0,-2.261905 0.6884058,-4.032092 2.1635611,-5.507247 3.2453413,-3.146998 9.0476193,-3.245341 9.9327123,-3.245341 0,0 0,0 0.09834,0 0.295031,0 0.688406,-0.09834 0.885094,-0.393375 0.295031,-0.196688 0.393374,-0.590062 0.393374,-0.983437 l 0.196688,-4.720497 c 2.360248,0.983437 5.015528,1.475155 7.769151,1.475155 2.753623,0 5.408902,-0.491718 7.769151,-1.475155 l 0.196687,4.720497 c 0,0.688406 0.590062,1.278468 1.376812,1.278468 0,0 0,0 0,0 0.590062,0 6.097308,0.09834 9.244306,3.146998 1.475156,1.376811 2.163561,3.343685 2.163561,5.703934 v 10.522774 h 2.655283 V 87.274048 c 0,-3.048655 -0.983437,-5.605591 -3.048654,-7.572464 -3.048655,-2.950311 -7.47412,-3.638717 -9.834369,-3.835404 l -0.196687,-4.720497 c 5.802277,-3.442029 9.736025,-9.539337 9.736025,-16.620083 0,-1.376811 0,-4.81884 0,-6.785714 h 3.540372 z m -5.507246,10.326087 c 0,9.244306 -7.867495,16.718427 -17.505176,16.718427 -9.637681,0 -17.505176,-7.474121 -17.505176,-16.718427 V 51.771977 L 9.1995421,51.673634 C 7.7243868,51.476946 6.5442626,50.198478 6.5442626,48.723323 c 0,-1.573499 1.1801242,-2.851967 2.7536232,-2.851967 l 1.1801242,-0.09834 v -6.982401 c 0,-2.65528 0.885093,-4.917184 2.556936,-6.490683 3.245341,-3.048655 8.654244,-3.343686 10.227743,-3.343686 0.196687,0 15.243271,0 15.243271,0 -0.09834,0.78675 -0.295031,0.983437 -0.295031,0.983437 l -2.95031,1.966874 3.442028,0.491718 c 6.490684,0.983437 8.949276,8.457557 9.834369,12.686336 h -2.950311 c -0.196687,0.09834 -0.09834,9.440993 -0.09834,9.539337 z"
     id="path4"
     inkscape:connector-curvature="0"
     style="stroke-width:1" /><path
     d="m 27.589811,62.294752 c -2.753623,0 -5.212215,-1.573499 -5.212215,-3.442029 0,-0.590063 -0.491719,-1.081781 -1.081781,-1.081781 -0.590062,0 -1.08178,0.491718 -1.08178,1.081781 0,3.048654 3.343685,5.60559 7.375776,5.60559 0.590062,0 1.081781,-0.491719 1.081781,-1.081781 0.09834,-0.590062 -0.393375,-1.08178 -1.081781,-1.08178 z"
     id="path6"
     inkscape:connector-curvature="0"
     style="stroke-width:1" /><path
     d="m 22.574283,51.083571 c 0,0.590063 0.491719,1.081781 1.081781,1.081781 0.590062,0 1.08178,-0.491718 1.08178,-1.081781 0,-1.86853 -1.86853,-3.343685 -4.228778,-3.343685 -2.360249,0 -4.228779,1.475155 -4.228779,3.343685 0,0.590063 0.491719,1.081781 1.081781,1.081781 0.590062,0 1.08178,-0.491718 1.08178,-1.081781 0,-0.590062 0.885094,-1.180124 2.065218,-1.180124 1.180124,0 2.065217,0.590062 2.065217,1.180124 z"
     id="path8"
     inkscape:connector-curvature="0"
     style="stroke-width:1" /><path
     d="m 33.883807,47.739886 c -2.360249,0 -4.228779,1.475155 -4.228779,3.343685 0,0.590063 0.491719,1.081781 1.081781,1.081781 0.590062,0 1.081781,-0.491718 1.081781,-1.081781 0,-0.590062 0.885093,-1.180124 2.065217,-1.180124 1.180124,0 2.065217,0.590062 2.065217,1.180124 0,0.590063 0.491719,1.081781 1.081781,1.081781 0.590062,0 1.08178,-0.491718 1.08178,-1.081781 0,-1.86853 -1.86853,-3.343685 -4.228778,-3.343685 z"
     id="path10"
     inkscape:connector-curvature="0"
     style="stroke-width:1" /><path
     d="M 94.758548,38.102205 C 97.905546,32.693302 98.790639,26.399307 97.21714,20.301998 95.545297,14.303033 91.709894,9.1891621 86.300991,6.0421641 82.662275,3.8786031 78.630184,2.7968221 74.499749,2.7968221 c -2.065218,0 -4.032091,0.295031 -5.998965,0.78675 -6.097308,1.573499 -11.112836,5.408902 -14.259834,10.9161489 -3.146998,5.408902 -4.032091,11.702898 -2.458592,17.800207 1.376811,5.212215 4.523809,9.736024 8.850931,12.981366 l 0.196688,0.09834 -7.080746,10.621118 26.651139,-6.982402 c 6.097308,-1.573495 11.112836,-5.507242 14.358178,-10.916145 z m -15.046584,8.457557 -20.160455,5.310559 4.720497,-7.179089 -1.081781,-0.688406 c -4.425466,-2.851967 -7.670807,-7.179089 -8.949275,-12.29296 -1.376812,-5.408903 -0.688406,-11.014493 2.163561,-15.833334 2.851967,-4.81884 7.375776,-8.2608689 12.784679,-9.6376809 5.310559,-1.376812 11.112836,-0.590062 15.833333,2.163561 4.818841,2.8519669 8.26087,7.3757769 9.736025,12.7846789 1.376812,5.408903 0.688406,11.014493 -2.163561,15.833333 -2.950311,4.622154 -7.47412,8.064183 -12.883023,9.539338 z"
     id="path12"
     inkscape:connector-curvature="0"
     style="stroke-width:1" /></svg>