<?xml version="1.0" encoding="UTF-8" standalone="no"?>
<svg
   xmlns:dc="http://purl.org/dc/elements/1.1/"
   xmlns:cc="http://creativecommons.org/ns#"
   xmlns:rdf="http://www.w3.org/1999/02/22-rdf-syntax-ns#"
   xmlns:svg="http://www.w3.org/2000/svg"
   xmlns="http://www.w3.org/2000/svg"
   xmlns:sodipodi="http://sodipodi.sourceforge.net/DTD/sodipodi-0.dtd"
   xmlns:inkscape="http://www.inkscape.org/namespaces/inkscape"
   version="1.1"
   x="0px"
   y="0px"
   viewBox="0 0 100 100"
   enable-background="new 0 0 90 90"
   xml:space="preserve"
   id="svg22"
   sodipodi:docname="9-Movie-Type-noun_Movie_32637.html"
   width="100"
   height="100"
   inkscape:version="0.92.1 r15371"><metadata
     id="metadata28"><rdf:RDF><cc:Work
         rdf:about=""><dc:format>image/svg+xml</dc:format><dc:type
           rdf:resource="http://purl.org/dc/dcmitype/StillImage" /><dc:title></dc:title></cc:Work></rdf:RDF></metadata><defs
     id="defs26" /><sodipodi:namedview
     pagecolor="#ffffff"
     bordercolor="#666666"
     borderopacity="1"
     objecttolerance="10"
     gridtolerance="10"
     guidetolerance="10"
     inkscape:pageopacity="0"
     inkscape:pageshadow="2"
     inkscape:window-width="2560"
     inkscape:window-height="1506"
     id="namedview24"
     showgrid="false"
     inkscape:zoom="4.1955556"
     inkscape:cx="89.239283"
     inkscape:cy="93.087201"
     inkscape:window-x="-11"
     inkscape:window-y="-11"
     inkscape:window-maximized="1"
     inkscape:current-layer="svg22" /><polygon
     points="54.301,33.019 35.697,40.771 35.697,25.268 "
     id="polygon2"
     transform="matrix(1.05318,0,0,1.05318,3.3304406,2.708371)"
     style="stroke-width:0.94950527" /><path
     d="M 79.668086,88.695253 H 21.777941 c -4.91835,0 -8.906743,3.986286 -8.906743,8.906743 H 88.57483 c 0,-4.920457 -3.990499,-8.906743 -8.906744,-8.906743 z"
     id="path4"
     inkscape:connector-curvature="0"
     style="stroke-width:0.99999994" /><path
     d="m 65.19634,79.046018 c -5.115295,0 -9.277463,-4.161114 -9.277463,-9.279569 0,-5.114242 4.161115,-9.277463 9.277463,-9.277463 5.114242,0 9.277463,4.162167 9.277463,9.277463 -0.0011,5.118455 -4.163221,9.279569 -9.277463,9.279569 z m 0,-15.587064 c -3.478653,0 -6.309601,2.830948 -6.309601,6.308548 0,3.4776 2.830948,6.308548 6.309601,6.308548 3.478654,0 6.308548,-2.830948 6.308548,-6.308548 0,-3.4776 -2.830948,-6.308548 -6.308548,-6.308548 z"
     id="path6"
     inkscape:connector-curvature="0"
     style="stroke-width:0.99999994" /><path
     d="m 57.402808,90.179184 h -21.15312 c -2.660333,0 -4.823565,-2.166392 -4.823565,-4.824618 0,-2.660333 2.163232,-4.823564 4.823565,-4.823564 h 21.152067 v 2.968914 H 36.249688 c -1.022638,0 -1.855703,0.829906 -1.855703,1.85465 0,1.022638 0.833065,1.855703 1.855703,1.855703 h 21.152067 v 2.968915 z"
     id="path8"
     inkscape:connector-curvature="0"
     style="stroke-width:0.99999994" /><path
     stroke-miterlimit="10"
     d="M 61.856706,86.466724"
     id="path10"
     inkscape:connector-curvature="0"
     style="fill:none;stroke:#000000;stroke-width:2.81879997;stroke-miterlimit:10" /><path
     d="M 74.472749,90.179184 H 57.402808 c -0.819374,0 -1.483931,-0.66561 -1.483931,-1.483931 0,-0.820427 0.664557,-1.484984 1.483931,-1.484984 h 14.10208 v -2.967861 c 0,-2.863597 -2.830948,-5.195337 -6.308548,-5.195337 -3.851479,0 -6.309601,1.948383 -6.309601,2.967861 0,0.818321 -0.663504,1.484984 -1.483931,1.484984 -0.819374,0 -1.483931,-0.666663 -1.483931,-1.484984 0,-3.219571 4.247475,-5.938882 9.277463,-5.938882 5.114242,0 9.277463,3.664013 9.277463,8.165305 v 5.937829 z"
     id="path12"
     inkscape:connector-curvature="0"
     style="stroke-width:0.99999994" /><path
     d="M 86.347354,72.365697 H 71.173137 l 0.233806,-1.688248 c 0.05898,-0.411793 0.09794,-0.655078 0.09794,-0.909947 0,-3.478654 -2.830948,-6.308548 -6.308548,-6.308548 -3.478653,0 -6.309601,2.830948 -6.309601,6.308548 0,0.280146 0.04529,0.5466 0.08531,0.815161 l 0.253817,1.700886 -1.709311,0.08215 h -5.29539 l -0.432857,-0.422325 c -2.37492,-2.325422 -6.438089,-2.324368 -8.80985,-0.0011 l -0.431804,0.423378 H 15.098674 C 9.3693747,72.365652 4.708,67.704277 4.708,61.976031 v -48.98441 c 0,-5.729299 4.6603215,-10.38962 10.390674,-10.38962 h 71.24868 c 5.729299,0 10.391727,4.660321 10.391727,10.38962 v 48.984455 c 0,5.728246 -4.661375,10.389621 -10.391727,10.389621 z M 74.465377,69.395729 h 11.881977 c 4.093711,0 7.422813,-3.328048 7.422813,-7.420706 V 12.991621 c 0,-4.092657 -3.330156,-7.421759 -7.422813,-7.421759 h -71.24868 c -4.092658,0 -7.4228127,3.330155 -7.4228127,7.421759 v 48.984455 c 0,4.092658 3.3301547,7.420707 7.4228127,7.420707 H 41.36393 c 3.354378,-2.877288 8.678203,-2.879395 12.0389,0 h 2.52342 c 0.195891,-4.942574 4.27907,-8.90569 9.27009,-8.90569 4.99102,-0.0011 9.073146,3.962063 9.269037,8.904636 z"
     id="path14"
     inkscape:connector-curvature="0"
     style="stroke-width:0.99999994" /><path
     d="M 53.432319,83.499916 H 41.334441 l -0.432857,-0.424432 c -1.803044,-1.765129 -2.796193,-4.117933 -2.796193,-6.625555 0,-5.117402 4.162167,-9.279569 9.277463,-9.279569 5.115295,0 9.277462,4.161114 9.277462,9.279569 0,2.508675 -0.991042,4.861479 -2.79514,6.625555 z M 42.583512,80.531002 h 9.600789 c 0.977351,-1.143754 1.508154,-2.570813 1.508154,-4.081073 0,-3.481813 -2.830948,-6.310655 -6.309601,-6.310655 -3.478654,0 -6.308549,2.829895 -6.308549,6.310655 0,1.509207 0.531856,2.937319 1.509207,4.081073 z"
     id="path16"
     inkscape:connector-curvature="0"
     style="stroke-width:0.99999994" /></svg>