<?xml version="1.0" encoding="UTF-8" standalone="no"?>
<svg
   xmlns:dc="http://purl.org/dc/elements/1.1/"
   xmlns:cc="http://creativecommons.org/ns#"
   xmlns:rdf="http://www.w3.org/1999/02/22-rdf-syntax-ns#"
   xmlns:svg="http://www.w3.org/2000/svg"
   xmlns="http://www.w3.org/2000/svg"
   xmlns:sodipodi="http://sodipodi.sourceforge.net/DTD/sodipodi-0.dtd"
   xmlns:inkscape="http://www.inkscape.org/namespaces/inkscape"
   version="1.1"
   x="0px"
   y="0px"
   viewBox="0 0 48 60"
   enable-background="new 0 0 48 48"
   xml:space="preserve"
   id="svg6338"
   sodipodi:docname="VideoRating.svg"
   inkscape:export-filename="C:\Users\george\Desktop\WINDOWS APPS\SearchAndSave\ICONS_SCREENSHOTS\VideoIconLarge.png"
   inkscape:export-xdpi="1400"
   inkscape:export-ydpi="1400"
   inkscape:version="0.92.1 r15371"><metadata
     id="metadata6344"><rdf:RDF><cc:Work
         rdf:about=""><dc:format>image/svg+xml</dc:format><dc:type
           rdf:resource="http://purl.org/dc/dcmitype/StillImage" /><dc:title></dc:title></cc:Work></rdf:RDF></metadata><defs
     id="defs6342" /><sodipodi:namedview
     pagecolor="#ffffff"
     bordercolor="#666666"
     borderopacity="1"
     objecttolerance="10"
     gridtolerance="10"
     guidetolerance="10"
     inkscape:pageopacity="0"
     inkscape:pageshadow="2"
     inkscape:window-width="2560"
     inkscape:window-height="1506"
     id="namedview6340"
     showgrid="false"
     inkscape:zoom="11.125147"
     inkscape:cx="-35.009505"
     inkscape:cy="17.403276"
     inkscape:window-x="-11"
     inkscape:window-y="-11"
     inkscape:window-maximized="1"
     inkscape:current-layer="svg6338" /><g
     id="g6332"
     transform="translate(0.44943226,5.4830736)"
     style="fill:#f0f0f0;fill-opacity:1"><path
       d="M 4,0 V 48 H 44 V 0 Z m 8,1 c 0.553,0 1,0.447 1,1 0,0.553 -0.447,1 -1,1 C 11.447,3 11,2.553 11,2 11,1.447 11.447,1 12,1 Z M 9,1 C 9.553,1 10,1.447 10,2 10,2.553 9.553,3 9,3 8.447,3 8,2.553 8,2 8,1.447 8.447,1 9,1 Z M 6,1 C 6.553,1 7,1.447 7,2 7,2.553 6.553,3 6,3 5.447,3 5,2.553 5,2 5,1.447 5.447,1 6,1 Z M 43,47 H 5 V 4 h 38 z"
       id="path6310"
       inkscape:connector-curvature="0"
       style="fill:#f0f0f0;fill-opacity:1" /><rect
       x="10"
       y="29"
       width="10"
       height="2"
       id="rect6312"
       style="fill:#f0f0f0;fill-opacity:1" /><rect
       x="10"
       y="35"
       width="14"
       height="1"
       id="rect6314"
       style="fill:#f0f0f0;fill-opacity:1" /><rect
       x="10"
       y="33"
       width="17"
       height="1"
       id="rect6316"
       style="fill:#f0f0f0;fill-opacity:1" /><rect
       x="10"
       y="37"
       width="17"
       height="1"
       id="rect6318"
       style="fill:#f0f0f0;fill-opacity:1" /><path
       d="M 23.819,14.573 C 23.369,14.258 23,14.45 23,15 v 5 c 0,0.55 0.369,0.742 0.819,0.427 l 3.361,-2.354 c 0.45,-0.315 0.45,-0.831 0,-1.146 z"
       id="path6320"
       inkscape:connector-curvature="0"
       style="fill:#f0f0f0;fill-opacity:1" /><path
       d="M 38,8 H 10 V 26 H 38 Z M 24.5,23 C 21.463,23 19,20.537 19,17.5 19,14.463 21.463,12 24.5,12 c 3.037,0 5.5,2.463 5.5,5.5 0,3.037 -2.463,5.5 -5.5,5.5 z"
       id="path6322"
       inkscape:connector-curvature="0"
       style="fill:#f0f0f0;fill-opacity:1" /><polygon
       points="13,39.764 12.343,41.096 10.873,41.309 11.937,42.346 11.686,43.809 13,43.118 14.314,43.809 14.063,42.346 15.127,41.309 13.657,41.096 "
       id="polygon6324"
       style="fill:#f0f0f0;fill-opacity:1" /><polygon
       points="19,39.764 18.343,41.096 16.873,41.309 17.937,42.346 17.686,43.809 19,43.118 20.314,43.809 20.063,42.346 21.127,41.309 19.657,41.096 "
       id="polygon6326"
       style="fill:#f0f0f0;fill-opacity:1" /><polygon
       points="25,39.764 24.343,41.096 22.873,41.309 23.937,42.346 23.686,43.809 25,43.118 26.314,43.809 26.063,42.346 27.127,41.309 25.657,41.096 "
       id="polygon6328"
       style="fill:#f0f0f0;fill-opacity:1" /><polygon
       points="31,39.764 30.343,41.096 28.873,41.309 29.937,42.346 29.686,43.809 31,43.118 32.314,43.809 32.063,42.346 33.127,41.309 31.657,41.096 "
       id="polygon6330"
       style="fill:#f0f0f0;fill-opacity:1" /></g></svg>