<?xml version="1.0" encoding="UTF-8" standalone="no"?>
<!-- Created with Inkscape (http://www.inkscape.org/) -->

<svg
   xmlns:dc="http://purl.org/dc/elements/1.1/"
   xmlns:cc="http://creativecommons.org/ns#"
   xmlns:rdf="http://www.w3.org/1999/02/22-rdf-syntax-ns#"
   xmlns:svg="http://www.w3.org/2000/svg"
   xmlns="http://www.w3.org/2000/svg"
   xmlns:sodipodi="http://sodipodi.sourceforge.net/DTD/sodipodi-0.dtd"
   xmlns:inkscape="http://www.inkscape.org/namespaces/inkscape"
   width="453.5433"
   height="453.5433"
   viewBox="0 0 120 120"
   version="1.1"
   id="svg5135"
   inkscape:version="0.92.1 r15371"
   sodipodi:docname="privacyredicon.svg">
  <defs
     id="defs5129" />
  <sodipodi:namedview
     id="base"
     pagecolor="#ffffff"
     bordercolor="#666666"
     borderopacity="1.0"
     inkscape:pageopacity="0.0"
     inkscape:pageshadow="2"
     inkscape:zoom="1.4"
     inkscape:cx="507.866"
     inkscape:cy="292.00404"
     inkscape:document-units="mm"
     inkscape:current-layer="layer1"
     showgrid="false"
     inkscape:window-width="2560"
     inkscape:window-height="1521"
     inkscape:window-x="-9"
     inkscape:window-y="-9"
     inkscape:window-maximized="1"
     units="px" />
  <metadata
     id="metadata5132">
    <rdf:RDF>
      <cc:Work
         rdf:about="">
        <dc:format>image/svg+xml</dc:format>
        <dc:type
           rdf:resource="http://purl.org/dc/dcmitype/StillImage" />
        <dc:title></dc:title>
      </cc:Work>
    </rdf:RDF>
  </metadata>
  <g
     inkscape:label="Layer 1"
     inkscape:groupmode="layer"
     id="layer1"
     transform="translate(0,-177)">
    <g
       transform="matrix(1.2970664,0,0,1.292178,-4.9090757,170.49976)"
       id="g4"
       style="fill:#c21616;fill-opacity:1;stroke:#000000;stroke-width:0.20469321;stroke-miterlimit:4;stroke-dasharray:none;stroke-opacity:1">
      <path
         style="fill:#c21616;fill-opacity:1;stroke:#000000;stroke-width:0.20469321;stroke-miterlimit:4;stroke-dasharray:none;stroke-opacity:1"
         inkscape:connector-curvature="0"
         d="M 83.492,38.625 C 83.492,20.128 68.497,5.133 50,5.133 c -18.497,0 -33.492,14.995 -33.492,33.492 0,6.847 2.059,13.211 5.585,18.516 h -0.006 l 0.05,0.067 c 0.565,0.845 1.168,1.66 1.805,2.449 L 50,95 c 0,0 27.3,-36.948 27.864,-37.792 l 0.05,-0.067 h -0.006 c 3.526,-5.305 5.584,-11.669 5.584,-18.516 z M 50,52.131 c -7.459,0 -13.506,-6.047 -13.506,-13.506 0,-7.459 6.047,-13.506 13.506,-13.506 7.459,0 13.506,6.047 13.506,13.506 0,7.459 -6.047,13.506 -13.506,13.506 z"
         id="path2" />
    </g>
    <rect
       style="opacity:0.95;fill:#bd0f0f;fill-opacity:1;stroke:#000000;stroke-width:0.36500001;stroke-miterlimit:4;stroke-dasharray:none;stroke-opacity:1"
       id="rect5059"
       width="119.635"
       height="34.100834"
       x="0.1825"
       y="262.71667"
       ry="8.0180855"
       rx="8.0180855" />
    <rect
       rx="8.0180855"
       ry="8.0180855"
       y="266.32901"
       x="4.2011876"
       height="25.489315"
       width="112.11491"
       id="rect5067"
       style="opacity:0.95;fill:#b70505;fill-opacity:1;stroke:#000000;stroke-width:0.69999999;stroke-miterlimit:4;stroke-dasharray:none;stroke-opacity:1" />
    <g
       id="g5081"
       transform="matrix(1.0247024,0,0,1.0208404,8.4598741,-802.40154)"
       style="fill:#a80505;fill-opacity:1;stroke:#000000;stroke-width:0.55242133;stroke-miterlimit:4;stroke-dasharray:none;stroke-opacity:1">
      <path
         id="path5079"
         overflow="visible"
         display="inline"
         visibility="visible"
         marker="none"
         style="color:#000000;display:inline;overflow:visible;visibility:visible;fill:#a80505;fill-opacity:1;stroke:#000000;stroke-width:0.55242133;stroke-miterlimit:4;stroke-dasharray:none;stroke-opacity:1;enable-background:accumulate"
         d="m 50.000002,968.36218 c -18.77766,0 -34,15.22258 -34,34.00002 0,18.7776 15.22234,34 34,34 18.777656,0 33.999997,-15.2224 33.999997,-34 0,-18.77744 -15.222341,-34.00002 -33.999997,-34.00002 z"
         inkscape:connector-curvature="0" />
    </g>
    <rect
       ry="0.33408672"
       rx="0.044225633"
       y="200.48935"
       x="74.484322"
       height="24.568451"
       width="10.29985"
       id="rect4707"
       style="opacity:1;fill:#a80505;fill-opacity:1;fill-rule:evenodd;stroke:none;stroke-width:0.10000001;stroke-miterlimit:4;stroke-dasharray:none;stroke-dashoffset:0;stroke-opacity:1" />
    <text
       style="font-weight:bold;font-size:12.88615799px;font-family:'Helvetica Neue', Helvetica, Arial-Unicode, Arial, Sans-serif;fill:#000000;stroke-width:0.26458338"
       x="11.920243"
       y="284.1069"
       font-size="5px"
       font-weight="bold"
       id="text8"
       transform="scale(1.0018898,0.99811377)">
      <tspan
         style="font-style:normal;font-variant:normal;font-weight:bold;font-stretch:normal;font-size:14.15238667px;font-family:'Helvetica Neue', Helvetica, Arial-Unicode, Arial, Sans-serif;-inkscape-font-specification:'Helvetica Neue, Helvetica, Arial-Unicode, Arial, Sans-serif, Bold';font-variant-ligatures:normal;font-variant-caps:normal;font-variant-numeric:normal;font-feature-settings:normal;text-align:start;writing-mode:lr-tb;text-anchor:start;fill:#f5f5f5;fill-opacity:1;stroke-width:0.26458338"
         id="tspan6304">Privacy Policy</tspan>
    </text>
    <g
       id="g8"
       transform="matrix(1.75,0,0,1.75,39.425836,197.42448)"
       style="stroke-width:0.15119047;fill:#ffffff;fill-opacity:1">
      <g
         id="g6"
         style="stroke-width:0.15119047;fill:#ffffff;fill-opacity:1">
        <path
           inkscape:connector-curvature="0"
           d="M 23.5,17 H 23 V 16.5 C 23,14.57 21.43,13 19.5,13 17.57,13 16,14.57 16,16.5 V 17 H 15.5 C 15.224,17 15,17.224 15,17.5 v 6 c 0,0.276 0.224,0.5 0.5,0.5 h 8 c 0.276,0 0.5,-0.224 0.5,-0.5 v -6 C 24,17.224 23.776,17 23.5,17 Z M 17,16.5 c 0,-1.379 1.122,-2.5 2.5,-2.5 1.378,0 2.5,1.121 2.5,2.5 V 17 h -5 z m 3,4.346 V 21.5 C 20,21.776 19.776,22 19.5,22 19.224,22 19,21.776 19,21.5 V 20.846 C 18.707,20.672 18.5,20.365 18.5,20 c 0,-0.552 0.449,-1 1,-1 0.551,0 1,0.448 1,1 0,0.366 -0.207,0.672 -0.5,0.846 z"
           id="path2-1"
           style="stroke-width:0.15119047;fill:#ffffff;fill-opacity:1" />
        <path
           inkscape:connector-curvature="0"
           d="M 14.023,14.207 C 14.788,13.505 15.5,12.449 15.5,11.5 c 0,-0.354 0.105,-0.5 0.121,-0.515 0.156,-0.039 0.284,-0.15 0.343,-0.3 C 16.019,10.549 16.5,9.322 16.5,8.5 16.5,8.459 16.495,8.418 16.485,8.379 16.43,8.159 16.277,7.839 16,7.651 V 5 C 16,3.389 15.508,2.729 14.99,2.345 14.892,1.569 14.06,0 11,0 7.902,0 6,2.912 6,5 V 7.651 C 5.723,7.839 5.57,8.159 5.515,8.379 5.505,8.418 5.5,8.459 5.5,8.5 c 0,0.822 0.481,2.049 0.536,2.186 0.06,0.149 0.148,0.248 0.304,0.287 C 6.395,11 6.5,11.146 6.5,11.5 c 0,0.949 0.713,2.006 1.478,2.708 -0.105,0.655 -0.593,2.382 -1.636,2.817 L 1.904,18.504 C 0.685,18.91 0.276,19.932 0.015,20.976 0.005,21.016 0,21.057 0,21.098 V 23.5 C 0,23.776 0.224,24 0.5,24 h 13 c 0.276,0 0.5,-0.224 0.5,-0.5 v -6 c 0,-0.409 0.165,-0.793 0.464,-1.081 0.16,-0.153 0.2,-0.393 0.098,-0.59 -0.325,-0.632 -0.483,-1.285 -0.539,-1.622 z"
           id="path4"
           style="stroke-width:0.15119047;fill:#ffffff;fill-opacity:1" />
      </g>
    </g>
  </g>
</svg>
