<?xml version="1.0" encoding="UTF-8" standalone="no"?>
<!-- Created with Inkscape (http://www.inkscape.org/) -->

<svg
   xmlns:dc="http://purl.org/dc/elements/1.1/"
   xmlns:cc="http://creativecommons.org/ns#"
   xmlns:rdf="http://www.w3.org/1999/02/22-rdf-syntax-ns#"
   xmlns:svg="http://www.w3.org/2000/svg"
   xmlns="http://www.w3.org/2000/svg"
   xmlns:sodipodi="http://sodipodi.sourceforge.net/DTD/sodipodi-0.dtd"
   xmlns:inkscape="http://www.inkscape.org/namespaces/inkscape"
   width="120mm"
   height="120mm"
   viewBox="0 0 120 120"
   version="1.1"
   id="svg5135"
   inkscape:version="0.92.1 r15371"
   sodipodi:docname="contactblueicon.svg">
  <defs
     id="defs5129" />
  <sodipodi:namedview
     id="base"
     pagecolor="#ffffff"
     bordercolor="#666666"
     borderopacity="1.0"
     inkscape:pageopacity="0.0"
     inkscape:pageshadow="2"
     inkscape:zoom="0.9899495"
     inkscape:cx="-30.590819"
     inkscape:cy="244.21578"
     inkscape:document-units="mm"
     inkscape:current-layer="layer1"
     showgrid="false"
     inkscape:window-width="2560"
     inkscape:window-height="1506"
     inkscape:window-x="-11"
     inkscape:window-y="-11"
     inkscape:window-maximized="1" />
  <metadata
     id="metadata5132">
    <rdf:RDF>
      <cc:Work
         rdf:about="">
        <dc:format>image/svg+xml</dc:format>
        <dc:type
           rdf:resource="http://purl.org/dc/dcmitype/StillImage" />
        <dc:title />
      </cc:Work>
    </rdf:RDF>
  </metadata>
  <g
     inkscape:label="Layer 1"
     inkscape:groupmode="layer"
     id="layer1"
     transform="translate(0,-177)">
    <g
       transform="matrix(1.2970664,0,0,1.292178,-4.9090757,170.49976)"
       id="g4"
       style="fill:#1b4db9;fill-opacity:1;stroke:#000000;stroke-width:0.20469321;stroke-miterlimit:4;stroke-dasharray:none;stroke-opacity:1">
      <path
         style="fill:#1b4db9;fill-opacity:1;stroke:#000000;stroke-width:0.20469321;stroke-miterlimit:4;stroke-dasharray:none;stroke-opacity:1"
         inkscape:connector-curvature="0"
         d="M 83.492,38.625 C 83.492,20.128 68.497,5.133 50,5.133 c -18.497,0 -33.492,14.995 -33.492,33.492 0,6.847 2.059,13.211 5.585,18.516 h -0.006 l 0.05,0.067 c 0.565,0.845 1.168,1.66 1.805,2.449 L 50,95 c 0,0 27.3,-36.948 27.864,-37.792 l 0.05,-0.067 h -0.006 c 3.526,-5.305 5.584,-11.669 5.584,-18.516 z M 50,52.131 c -7.459,0 -13.506,-6.047 -13.506,-13.506 0,-7.459 6.047,-13.506 13.506,-13.506 7.459,0 13.506,6.047 13.506,13.506 0,7.459 -6.047,13.506 -13.506,13.506 z"
         id="path2" />
    </g>
    <rect
       style="opacity:0.95;fill:#1b4db9;fill-opacity:1;stroke:#000000;stroke-width:0.36500001;stroke-miterlimit:4;stroke-dasharray:none;stroke-opacity:1"
       id="rect5059"
       width="119.635"
       height="34.100834"
       x="0.1825"
       y="262.71667"
       ry="8.0180855"
       rx="8.0180855" />
    <rect
       rx="8.0180855"
       ry="8.0180855"
       y="266.32901"
       x="4.2011876"
       height="25.489315"
       width="112.11491"
       id="rect5067"
       style="opacity:0.95;fill:#103aac;fill-opacity:1;stroke:#000000;stroke-width:0.69999999;stroke-miterlimit:4;stroke-dasharray:none;stroke-opacity:1" />
    <g
       id="g5081"
       transform="matrix(1.0247024,0,0,1.0208404,8.4598741,-802.40154)"
       style="fill:#103aac;fill-opacity:1;stroke:#000000;stroke-width:0.55242133;stroke-miterlimit:4;stroke-dasharray:none;stroke-opacity:1">
      <path
         id="path5079"
         overflow="visible"
         display="inline"
         visibility="visible"
         marker="none"
         style="color:#000000;display:inline;overflow:visible;visibility:visible;fill:#103aac;fill-opacity:1;stroke:#000000;stroke-width:0.55242133;stroke-miterlimit:4;stroke-dasharray:none;stroke-opacity:1;enable-background:accumulate"
         d="m 50.000002,968.36218 c -18.77766,0 -34,15.22258 -34,34.00002 0,18.7776 15.22234,34 34,34 18.777656,0 33.999997,-15.2224 33.999997,-34 0,-18.77744 -15.222341,-34.00002 -33.999997,-34.00002 z"
         inkscape:connector-curvature="0" />
    </g>
    <g
       transform="matrix(0.77907286,0,0,0.77613663,24.501504,184.83112)"
       id="g6"
       style="fill:#f5f5f5;fill-opacity:1;stroke-width:0.34025472">
      <polygon
         points="25.7,28.1 47.4,46.2 69.1,28.1 "
         id="polygon2"
         style="fill:#f5f5f5;fill-opacity:1;stroke-width:0.34025472" />
      <path
         inkscape:connector-curvature="0"
         d="M 26.7,44.5 H 10 c -0.9,0 -1.7,0.8 -1.7,1.7 0,0.9 0.8,1.7 1.7,1.7 h 21.7 c 0.9,0 1.7,-0.8 1.7,-1.7 0,0 0,0 0,0 0,0 0,0 0,0 0.4,3.7 -0.8,4.9 -1.7,4.9 H 23.1 V 54 H 15 c -0.9,0 -1.7,0.8 -1.7,1.7 0,0.9 0.8,1.7 1.7,1.7 h 21.9 c 0.9,0 1.7,-0.8 1.7,-1.7 0,-0.1 0,-0.2 0,0 0.4,3.2 -0.8,4 -1.7,4 H 23.1 v 3.1 c 0,0.9 0.8,1.7 1.7,1.7 h 40.9 c 3.3,0 5.9,-2.7 5.9,-5.9 V 30.4 L 48.4,49.7 c -0.3,0.3 -0.7,0.4 -1.1,0.4 -0.4,0 -0.8,-0.1 -1.1,-0.4 L 23.1,30.3 v 8.3 h -5.2 c -0.9,0 -1.7,0.8 -1.7,1.7 0,0.9 0.8,1.7 1.7,1.7 h 8.8 c 0.9,0 1.7,-0.8 1.7,-1.7 0,-0.1 0,-0.1 0,0 0.1,2.9 -0.8,4.2 -1.7,4.2 z"
         id="path4"
         style="fill:#f5f5f5;fill-opacity:1;stroke-width:0.34025472" />
    </g>
    <text
       style="font-weight:bold;font-size:12.88615799px;font-family:'Helvetica Neue', Helvetica, Arial-Unicode, Arial, Sans-serif;fill:#000000;stroke-width:0.26458335"
       x="26.932014"
       y="286.12961"
       font-size="5px"
       font-weight="bold"
       id="text8"
       transform="scale(1.0018898,0.99811378)">
      <tspan
         style="font-size:17.6802578px;fill:#f5f5f5;fill-opacity:1;stroke-width:0.26458335"
         id="tspan6304">Contact</tspan>
    </text>
  </g>
</svg>
