<?xml version="1.0" encoding="UTF-8" standalone="no"?>
<!-- Created with Inkscape (http://www.inkscape.org/) -->

<svg
   xmlns:dc="http://purl.org/dc/elements/1.1/"
   xmlns:cc="http://creativecommons.org/ns#"
   xmlns:rdf="http://www.w3.org/1999/02/22-rdf-syntax-ns#"
   xmlns:svg="http://www.w3.org/2000/svg"
   xmlns="http://www.w3.org/2000/svg"
   xmlns:sodipodi="http://sodipodi.sourceforge.net/DTD/sodipodi-0.dtd"
   xmlns:inkscape="http://www.inkscape.org/namespaces/inkscape"
   width="453.5433"
   height="453.5433"
   viewBox="0 0 120 120"
   version="1.1"
   id="svg5135"
   inkscape:version="0.92.1 r15371"
   sodipodi:docname="discsupportredicon.svg">
  <defs
     id="defs5129" />
  <sodipodi:namedview
     id="base"
     pagecolor="#ffffff"
     bordercolor="#666666"
     borderopacity="1.0"
     inkscape:pageopacity="0.0"
     inkscape:pageshadow="2"
     inkscape:zoom="0.9899495"
     inkscape:cx="-30.620659"
     inkscape:cy="243.99181"
     inkscape:document-units="mm"
     inkscape:current-layer="layer1"
     showgrid="false"
     inkscape:window-width="2560"
     inkscape:window-height="1506"
     inkscape:window-x="-11"
     inkscape:window-y="-11"
     inkscape:window-maximized="1"
     units="px" />
  <metadata
     id="metadata5132">
    <rdf:RDF>
      <cc:Work
         rdf:about="">
        <dc:format>image/svg+xml</dc:format>
        <dc:type
           rdf:resource="http://purl.org/dc/dcmitype/StillImage" />
        <dc:title></dc:title>
      </cc:Work>
    </rdf:RDF>
  </metadata>
  <g
     inkscape:label="Layer 1"
     inkscape:groupmode="layer"
     id="layer1"
     transform="translate(0,-177)">
    <g
       transform="matrix(1.2970664,0,0,1.292178,-4.9090757,170.49976)"
       id="g4"
       style="fill:#c21616;fill-opacity:1;stroke:#000000;stroke-width:0.20469321;stroke-miterlimit:4;stroke-dasharray:none;stroke-opacity:1">
      <path
         style="fill:#c21616;fill-opacity:1;stroke:#000000;stroke-width:0.20469321;stroke-miterlimit:4;stroke-dasharray:none;stroke-opacity:1"
         inkscape:connector-curvature="0"
         d="M 83.492,38.625 C 83.492,20.128 68.497,5.133 50,5.133 c -18.497,0 -33.492,14.995 -33.492,33.492 0,6.847 2.059,13.211 5.585,18.516 h -0.006 l 0.05,0.067 c 0.565,0.845 1.168,1.66 1.805,2.449 L 50,95 c 0,0 27.3,-36.948 27.864,-37.792 l 0.05,-0.067 h -0.006 c 3.526,-5.305 5.584,-11.669 5.584,-18.516 z M 50,52.131 c -7.459,0 -13.506,-6.047 -13.506,-13.506 0,-7.459 6.047,-13.506 13.506,-13.506 7.459,0 13.506,6.047 13.506,13.506 0,7.459 -6.047,13.506 -13.506,13.506 z"
         id="path2" />
    </g>
    <rect
       style="opacity:0.95;fill:#bd0f0f;fill-opacity:1;stroke:#000000;stroke-width:0.36500001;stroke-miterlimit:4;stroke-dasharray:none;stroke-opacity:1"
       id="rect5059"
       width="119.635"
       height="34.100834"
       x="0.1825"
       y="262.71667"
       ry="8.0180855"
       rx="8.0180855" />
    <rect
       rx="8.0180855"
       ry="8.0180855"
       y="266.32901"
       x="4.2011876"
       height="25.489315"
       width="112.11491"
       id="rect5067"
       style="opacity:0.95;fill:#b70505;fill-opacity:1;stroke:#000000;stroke-width:0.69999999;stroke-miterlimit:4;stroke-dasharray:none;stroke-opacity:1" />
    <g
       id="g5081"
       transform="matrix(1.0247024,0,0,1.0208404,8.4598741,-802.40154)"
       style="fill:#a80505;fill-opacity:1;stroke:#000000;stroke-width:0.55242133;stroke-miterlimit:4;stroke-dasharray:none;stroke-opacity:1">
      <path
         id="path5079"
         overflow="visible"
         display="inline"
         visibility="visible"
         marker="none"
         style="color:#000000;display:inline;overflow:visible;visibility:visible;fill:#a80505;fill-opacity:1;stroke:#000000;stroke-width:0.55242133;stroke-miterlimit:4;stroke-dasharray:none;stroke-opacity:1;enable-background:accumulate"
         d="m 50.000002,968.36218 c -18.77766,0 -34,15.22258 -34,34.00002 0,18.7776 15.22234,34 34,34 18.777656,0 33.999997,-15.2224 33.999997,-34 0,-18.77744 -15.222341,-34.00002 -33.999997,-34.00002 z"
         inkscape:connector-curvature="0" />
    </g>
    <text
       style="font-weight:bold;font-size:12.88615799px;font-family:'Helvetica Neue', Helvetica, Arial-Unicode, Arial, Sans-serif;fill:#000000;stroke-width:0.26458335"
       x="10.030627"
       y="284.00888"
       font-size="5px"
       font-weight="bold"
       id="text8"
       transform="scale(1.0018898,0.99811377)">
      <tspan
         style="font-size:12.69999981px;fill:#f5f5f5;fill-opacity:1;stroke-width:0.26458335"
         id="tspan6304">Discs Supported</tspan>
    </text>
    <path
       inkscape:connector-curvature="0"
       style="color:#000000;fill:#f5f5f5;fill-opacity:1;stroke-width:0.26458332"
       d="m 59.486214,209.16052 c -3.708645,0 -6.715091,3.00644 -6.715091,6.71509 0,3.70864 3.006446,6.71509 6.715091,6.71509 3.708645,0 6.715096,-3.00645 6.715096,-6.71509 0,-3.70865 -3.006451,-6.71509 -6.715096,-6.71509 z m 0,4.02906 c 1.483471,0 2.68605,1.20258 2.68605,2.68603 0,1.48347 -1.202579,2.68605 -2.68605,2.68605 -1.483449,0 -2.686028,-1.20258 -2.686028,-2.68605 0,-1.48345 1.202579,-2.68603 2.686028,-2.68603 z"
       id="path2-03" />
    <path
       inkscape:connector-curvature="0"
       style="color:#000000;fill:#f5f5f5;fill-opacity:1;stroke-width:0.265;stroke:none;stroke-opacity:1;stroke-miterlimit:4;stroke-dasharray:none"
       d="m 59.486214,195.73033 c -11.125932,0 -20.145272,9.01934 -20.145272,20.14528 0,2.82631 0.58609,5.51908 1.63681,7.96018 l 11.415652,-5.20419 c -0.331796,-0.85419 -0.517631,-1.78454 -0.517631,-2.75599 0,-4.20313 3.407313,-7.61044 7.610441,-7.61044 1.030675,0 2.013418,0.2164 2.909882,0.58757 L 67.880082,197.563 c -2.556054,-1.17366 -5.397052,-1.83267 -8.393868,-1.83267 z"
       id="path4" />
    <path
       inkscape:connector-curvature="0"
       style="color:#000000;fill:#f5f5f5;fill-opacity:1;stroke-width:0.26458332"
       d="m 68.677501,197.9547 -5.469998,11.28976 c 0.862991,0.48557 1.625868,1.13213 2.238359,1.90261 l 10.254505,-7.23272 c -1.840148,-2.49117 -4.248065,-4.53293 -7.022866,-5.95965 z"
       id="path6-2" />
    <path
       inkscape:connector-curvature="0"
       style="color:#000000;fill:#f5f5f5;fill-opacity:1;stroke-width:0.26458332"
       d="m 76.204,204.64182 -10.254507,7.23272 c 0.0915,0.1474 0.184329,0.29375 0.265806,0.44766 l 11.415659,-5.21819 C 77.21565,206.2469 76.731957,205.42591 76.204,204.64182 Z"
       id="path8" />
    <path
       inkscape:connector-curvature="0"
       style="color:#000000;fill:#f5f5f5;fill-opacity:1;stroke-width:0.265;stroke:none;stroke-opacity:1;stroke-miterlimit:4;stroke-dasharray:none"
       d="m 77.994691,207.91542 -11.415656,5.20421 c 0.331787,0.85417 0.51762,1.78452 0.51762,2.75598 0,4.20313 -3.407313,7.61044 -7.610441,7.61044 -1.030675,0 -2.013418,-0.21641 -2.90986,-0.58758 l -5.483993,11.28976 c 2.556052,1.17365 5.397037,1.83265 8.393853,1.83265 11.125936,0 20.14528,-9.01934 20.14528,-20.14527 0,-2.82629 -0.586079,-5.51909 -1.636803,-7.96019 z"
       id="path10-6" />
    <path
       inkscape:connector-curvature="0"
       style="color:#000000;fill:#f5f5f5;fill-opacity:1;stroke-width:0.26458332"
       d="m 50.294932,233.79651 5.470015,-11.28975 c -0.863009,-0.48558 -1.625872,-1.13211 -2.238364,-1.9026 l -10.254521,7.2327 c 1.84016,2.4912 4.24807,4.53294 7.02287,5.95965 z"
       id="path12" />
    <path
       inkscape:connector-curvature="0"
       style="color:#000000;fill:#f5f5f5;fill-opacity:1;stroke-width:0.26458332"
       d="m 42.768432,227.1094 10.254518,-7.2327 c -0.0915,-0.1474 -0.184306,-0.29378 -0.265825,-0.44769 l -11.415653,5.21819 c 0.4153,0.85711 0.899,1.67813 1.42696,2.4622 z"
       id="path14-9" />
    <g
       transform="matrix(0.50362855,0,0,0.50363193,34.083202,191.77636)"
       id="g22"
       style="fill:#f5f5f5;fill-opacity:1;stroke-width:0.45793271">
      <path
         style="color:#000000;fill:#f5f5f5;fill-opacity:1;stroke-width:0.45793271"
         inkscape:connector-curvature="0"
         d="m 34.837731,103.39365 c 0,5.41259 -4.387771,9.80036 -9.800362,9.80036 -5.412591,0 -9.800363,-4.38777 -9.800363,-9.80036 0,-5.412589 4.387772,-9.800365 9.800363,-9.800365 5.412591,0 9.800362,4.387776 9.800362,9.800365 z m -4.900181,0 -7.46512,-5.589269 v 11.140249 z"
         id="path16" />
      <path
         style="color:#000000;fill:#f5f5f5;fill-opacity:1;stroke-width:0.45793271"
         inkscape:connector-curvature="0"
         d="m 75.829978,93.608581 c -5.41259,0 -9.78125,4.36866 -9.78125,9.781249 0,5.41259 4.36866,9.8125 9.78125,9.8125 5.412587,0 9.8125,-4.39991 9.8125,-9.8125 0,-5.412589 -4.399913,-9.781249 -9.8125,-9.781249 z m -3.46875,6.28125 h 7 v 6.999999 h -7 z"
         id="path18-9" />
      <path
         style="color:#000000;fill:#f5f5f5;fill-opacity:1;stroke-width:0.45793271"
         inkscape:connector-curvature="0"
         d="m 50.298728,93.608581 c -5.412591,0 -9.8125,4.36866 -9.8125,9.781249 0,5.41259 4.399909,9.8125 9.8125,9.8125 5.412591,0 9.8125,-4.39991 9.8125,-9.8125 0,-5.412589 -4.399909,-9.781249 -9.8125,-9.781249 z m -4.28125,5.0625 h 3.0625 v 9.468749 h -3.0625 z m 5.5,0 h 3.0625 v 9.468749 h -3.0625 z"
         id="path20" />
    </g>
  </g>
</svg>
