<?xml version="1.0" encoding="UTF-8" standalone="no"?>
<svg
   xmlns:dc="http://purl.org/dc/elements/1.1/"
   xmlns:cc="http://creativecommons.org/ns#"
   xmlns:rdf="http://www.w3.org/1999/02/22-rdf-syntax-ns#"
   xmlns:svg="http://www.w3.org/2000/svg"
   xmlns="http://www.w3.org/2000/svg"
   xmlns:sodipodi="http://sodipodi.sourceforge.net/DTD/sodipodi-0.dtd"
   xmlns:inkscape="http://www.inkscape.org/namespaces/inkscape"
   version="1.1"
   x="0px"
   y="0px"
   viewBox="0 0 100 100"
   enable-background="new 0 0 100 100"
   xml:space="preserve"
   id="svg24"
   sodipodi:docname="dropboxplay.svg"
   width="100"
   height="100"
   inkscape:version="0.92.1 r15371"><metadata
     id="metadata30"><rdf:RDF><cc:Work
         rdf:about=""><dc:format>image/svg+xml</dc:format><dc:type
           rdf:resource="http://purl.org/dc/dcmitype/StillImage" /><dc:title></dc:title></cc:Work></rdf:RDF></metadata><defs
     id="defs28" /><sodipodi:namedview
     pagecolor="#ffffff"
     bordercolor="#666666"
     borderopacity="1"
     objecttolerance="10"
     gridtolerance="10"
     guidetolerance="10"
     inkscape:pageopacity="0"
     inkscape:pageshadow="2"
     inkscape:window-width="2560"
     inkscape:window-height="1506"
     id="namedview26"
     showgrid="false"
     inkscape:zoom="3.776"
     inkscape:cx="149.66866"
     inkscape:cy="36.644364"
     inkscape:window-x="-11"
     inkscape:window-y="-11"
     inkscape:window-maximized="1"
     inkscape:current-layer="svg24" /><path
     d="m 39.130405,32.379425 c 6.505994,0 12.167815,3.58497 15.141546,8.882088 1.044801,-0.330698 2.155062,-0.510925 3.30953,-0.510925 4.947717,0 9.126073,3.279776 10.490521,7.782879 8.82768,0.816968 15.741733,8.236844 15.741733,17.277055 0,9.58769 -7.772678,17.359517 -17.359518,17.359517 H 26.273141 c -9.58684,0 -17.359517,-7.771827 -17.359517,-17.359517 0,-8.039616 5.473093,-14.783643 12.892119,-16.75763 0.363003,-9.267193 7.969056,-16.673467 17.324662,-16.673467 m 0,-2.55037 c -10.110516,0 -18.448525,7.467483 -19.720309,17.30851 -7.765876,2.847913 -13.046842,10.283941 -13.046842,18.672107 0,10.978492 8.931395,19.909887 19.909887,19.909887 h 40.180226 c 10.978492,0 19.909887,-8.931395 19.909887,-19.909887 0,-9.79512 -6.959959,-17.954603 -16.438833,-19.602142 -2.146562,-4.851654 -6.917454,-8.008161 -12.34379,-8.008161 -0.711554,0 -1.418856,0.05526 -2.117657,0.166624 -3.701437,-5.30987 -9.796821,-8.536938 -16.332569,-8.536938 z"
     id="path2"
     inkscape:connector-curvature="0"
     style="stroke-width:1" /><path
     d="m 47.690297,53.024668 c -0.234634,-0.143671 -0.254187,-0.406359 -0.04251,-0.583184 l 5.641418,-4.707133 c 0.211681,-0.176826 0.576384,-0.201479 0.810168,-0.05526 l 9.319051,6.100485 c 0.232934,0.146221 0.249936,0.408059 0.03571,0.582334 l -5.632916,4.584715 c -0.214232,0.174275 -0.581485,0.198079 -0.816119,0.05441 z"
     id="path4"
     inkscape:connector-curvature="0"
     style="stroke-width:1" /><path
     d="M 46.33435,52.807037"
     id="path6"
     inkscape:connector-curvature="0"
     style="stroke-width:1" /><path
     d="m 57.98869,60.120647 c -0.20913,-0.180226 -0.572983,-0.21083 -0.809318,-0.06886 l -8.824279,5.319221 c -0.235484,0.141971 -0.258438,0.406359 -0.04931,0.584885 l 4.89926,4.209811 c 0.209131,0.180226 0.575534,0.213381 0.813568,0.07481 l 8.948398,-5.199354 c 0.238034,-0.13857 0.262688,-0.399558 0.05356,-0.579784 z"
     id="path8"
     inkscape:connector-curvature="0"
     style="stroke-width:1" /><path
     d="m 47.64779,66.437063 c -0.21168,-0.176826 -0.385105,-0.09521 -0.385105,0.180226 v 10.27204 c 0,0.27544 0.192978,0.382555 0.427612,0.238884 l 9.005355,-5.532602 C 56.930286,71.45109 57.123264,71.10764 57.123264,70.8322 v -0.986993 c 0,-0.27544 -0.194678,-0.387656 -0.432712,-0.248236 l -2.649835,1.549775 c -0.238034,0.13857 -0.606138,0.108816 -0.817818,-0.06801 z"
     id="path10"
     inkscape:connector-curvature="0"
     style="stroke-width:1" /><path
     d="m 46.12522,53.024668 c 0.235484,-0.143671 0.254186,-0.406359 0.04336,-0.583184 l -5.641418,-4.707133 c -0.211681,-0.176826 -0.576384,-0.201479 -0.810168,-0.05526 l -9.319051,6.100485 c -0.233784,0.146221 -0.249936,0.408059 -0.03655,0.582334 l 5.633767,4.584715 c 0.213381,0.174275 0.581484,0.198079 0.816118,0.05441 z"
     id="path12"
     inkscape:connector-curvature="0"
     style="stroke-width:1" /><path
     d="M 48.188469,52.807037"
     id="path14"
     inkscape:connector-curvature="0"
     style="stroke-width:1" /><path
     d="m 35.826826,60.120647 c 0.208281,-0.180226 0.572983,-0.21083 0.808468,-0.06886 l 8.824279,5.319221 c 0.236334,0.141971 0.258438,0.406359 0.04931,0.584885 l -4.89926,4.209811 c -0.20828,0.180226 -0.575534,0.213381 -0.813568,0.07481 l -8.948401,-5.199353 c -0.238034,-0.13857 -0.262688,-0.399558 -0.05356,-0.579784 z"
     id="path16"
     inkscape:connector-curvature="0"
     style="stroke-width:1" /><path
     d="m 46.167726,66.437063 c 0.21168,-0.176826 0.385106,-0.09521 0.385106,0.180226 v 10.27204 c 0,0.27544 -0.192128,0.382555 -0.426762,0.238884 L 37.119864,71.595611 C 36.88608,71.45109 36.693102,71.10764 36.693102,70.8322 v -0.986993 c 0,-0.27544 0.194678,-0.387656 0.432713,-0.248236 l 2.649834,1.549775 c 0.237184,0.13857 0.606138,0.108816 0.817818,-0.06801 z"
     id="path18"
     inkscape:connector-curvature="0"
     style="stroke-width:1" /><path
     inkscape:connector-curvature="0"
     d="m 94.647496,72.899458 h -16.55578 c -2.32256,0 -4.22211,1.899551 -4.22211,4.222108 v 16.555785 c 0,2.32206 1.89955,4.222107 4.22211,4.222107 h 16.55578 c 2.32206,0 4.22211,-1.900047 4.22211,-4.222107 V 77.121566 c 0,-2.322557 -1.90005,-4.222108 -4.22211,-4.222108 z M 82.644976,91.198402 V 79.600515 l 9.68245,5.798943 z"
     id="path2-0"
     style="stroke-width:0.99999994" /></svg>