<?xml version="1.0" encoding="UTF-8" standalone="no"?>
<svg
   xmlns:dc="http://purl.org/dc/elements/1.1/"
   xmlns:cc="http://creativecommons.org/ns#"
   xmlns:rdf="http://www.w3.org/1999/02/22-rdf-syntax-ns#"
   xmlns:svg="http://www.w3.org/2000/svg"
   xmlns="http://www.w3.org/2000/svg"
   xmlns:sodipodi="http://sodipodi.sourceforge.net/DTD/sodipodi-0.dtd"
   xmlns:inkscape="http://www.inkscape.org/namespaces/inkscape"
   viewBox="0 0 100 100"
   x="0px"
   y="0px"
   version="1.1"
   id="svg14"
   sodipodi:docname="3dfilm.svg"
   width="100"
   height="100"
   inkscape:version="0.92.1 r15371">
  <metadata
     id="metadata20">
    <rdf:RDF>
      <cc:Work
         rdf:about="">
        <dc:format>image/svg+xml</dc:format>
        <dc:type
           rdf:resource="http://purl.org/dc/dcmitype/StillImage" />
        <dc:title />
      </cc:Work>
    </rdf:RDF>
  </metadata>
  <defs
     id="defs18" />
  <sodipodi:namedview
     pagecolor="#ffffff"
     bordercolor="#666666"
     borderopacity="1"
     objecttolerance="10"
     gridtolerance="10"
     guidetolerance="10"
     inkscape:pageopacity="0"
     inkscape:pageshadow="2"
     inkscape:window-width="2560"
     inkscape:window-height="1506"
     id="namedview16"
     showgrid="false"
     inkscape:zoom="3.776"
     inkscape:cx="-31.774961"
     inkscape:cy="46.278405"
     inkscape:window-x="-11"
     inkscape:window-y="-11"
     inkscape:window-maximized="1"
     inkscape:current-layer="svg14" />
  <path
     d="m 5,70.166204 v 1.243923 h 0.5487216 c 0.3086943,0 0.5580224,0.249333 0.5580224,0.558022 v 1.990277 c 0,0.308692 -0.2493281,0.560347 -0.5580224,0.560347 H 5 v 1.271824 h 7.407735 V 93.512429 H 5 v 1.271826 h 0.5487216 c 0.3086943,0 0.5580224,0.249323 0.5580224,0.558021 v 1.992606 c 0,0.30869 -0.2493281,0.55802 -0.5580224,0.55802 H 5 v 1.24392 h 90 l -4.27e-4,-1.24392 H 94.45085 c -0.308695,0 -0.558021,-0.24933 -0.558021,-0.55802 v -1.992606 c 0,-0.308698 0.249326,-0.558021 0.558021,-0.558021 h 0.548723 V 93.512429 H 87.591835 V 75.790597 h 7.407738 V 74.518773 H 94.45085 c -0.308695,0 -0.558021,-0.251651 -0.558021,-0.560347 v -1.990277 c 0,-0.308694 0.249326,-0.558021 0.558021,-0.558021 h 0.548723 L 95,70.166204 Z m 3.952653,1.243923 h 1.095116 c 0.308695,0 0.558021,0.249333 0.558021,0.558022 v 1.990277 c 0,0.308692 -0.249326,0.560347 -0.558021,0.560347 H 8.952653 c -0.308692,0 -0.560347,-0.251654 -0.560347,-0.560347 v -1.990277 c 0,-0.308693 0.251655,-0.558022 0.560347,-0.558022 z m 4.499048,0 h 1.097441 c 0.308695,0 0.558023,0.249331 0.558022,0.558022 v 1.990277 c 0,0.308692 -0.249327,0.560347 -0.558022,0.560347 h -1.097441 c -0.308696,0 -0.560347,-0.251651 -0.560347,-0.560347 v -1.990277 c 0,-0.308695 0.251651,-0.558022 0.560347,-0.558022 z m 4.499048,0 h 1.097443 c 0.308694,0 0.560346,0.249331 0.560346,0.558022 v 1.990277 c 0,0.308692 -0.251652,0.560347 -0.560346,0.560347 h -1.097443 c -0.308695,0 -0.558022,-0.251651 -0.558022,-0.560347 v -1.990277 c 0,-0.308695 0.249327,-0.558022 0.558022,-0.558022 z m 4.501374,0 h 1.097443 c 0.308693,0 0.55802,0.249333 0.55802,0.558022 v 1.990277 c 0,0.308692 -0.249327,0.560347 -0.55802,0.560347 h -1.097443 c -0.308695,0 -0.560346,-0.251651 -0.560346,-0.560347 v -1.990277 c 0,-0.308695 0.251651,-0.558022 0.560346,-0.558022 z m 4.499048,0 h 1.097442 c 0.308696,0 0.558023,0.249333 0.558023,0.558022 v 1.990277 c 0,0.308692 -0.249327,0.560347 -0.558023,0.560347 h -1.097442 c -0.308691,0 -0.55802,-0.251654 -0.55802,-0.560347 v -1.990277 c 0,-0.308693 0.249329,-0.558022 0.55802,-0.558022 z m 4.499049,0 h 1.097442 c 0.308692,0 0.558022,0.249331 0.558022,0.558022 v 1.990277 c 0,0.308692 -0.24933,0.560347 -0.558022,0.560347 H 31.45022 c -0.308693,0 -0.558022,-0.251651 -0.558022,-0.560347 v -1.990277 c 0,-0.308695 0.249329,-0.558022 0.558022,-0.558022 z m 4.501375,0 h 1.097441 c 0.308693,0 0.558021,0.249331 0.558021,0.558022 v 1.990277 c 0,0.308692 -0.249328,0.560347 -0.558021,0.560347 h -1.097441 c -0.308696,0 -0.560348,-0.251651 -0.560348,-0.560347 v -1.990277 c 0,-0.308695 0.251652,-0.558022 0.560348,-0.558022 z m 4.499047,0 h 1.097443 c 0.308693,0 0.558021,0.249333 0.558021,0.558022 v 1.990277 c 0,0.308692 -0.249328,0.560347 -0.558021,0.560347 h -1.097443 c -0.308694,0 -0.558021,-0.251651 -0.558021,-0.560347 v -1.990277 c 0,-0.308695 0.249327,-0.558022 0.558021,-0.558022 z m 4.501374,0 h 1.097442 c 0.308696,0 0.558022,0.249333 0.558022,0.558022 v 1.990277 c 0,0.308692 -0.249326,0.560347 -0.558022,0.560347 h -1.097442 c -0.308693,0 -0.560346,-0.251654 -0.560346,-0.560347 v -1.990277 c 0,-0.308693 0.251653,-0.558022 0.560346,-0.558022 z m 4.499049,0 h 1.097442 c 0.308693,0 0.558021,0.249331 0.558022,0.558022 v 1.990277 c 0,0.308692 -0.249329,0.560347 -0.558022,0.560347 h -1.097442 c -0.308693,0 -0.558022,-0.251651 -0.558022,-0.560347 v -1.990277 c 0,-0.308695 0.249329,-0.558022 0.558022,-0.558022 z m 4.499049,0 h 1.097443 c 0.308693,0 0.560345,0.249331 0.560345,0.558022 v 1.990277 c 0,0.308692 -0.251652,0.560347 -0.560345,0.560347 h -1.097443 c -0.308695,0 -0.558022,-0.251651 -0.558022,-0.560347 v -1.990277 c 0,-0.308695 0.249327,-0.558022 0.558022,-0.558022 z m 4.501373,0 h 0.548721 0.548721 c 0.308697,0 0.558022,0.249333 0.558022,0.558022 v 1.990277 c 0,0.308692 -0.249325,0.560347 -0.558022,0.560347 h -0.548721 -0.548721 c -0.308688,0 -0.560346,-0.251651 -0.560346,-0.560347 v -1.990277 c 0,-0.308695 0.251658,-0.558022 0.560346,-0.558022 z m 4.501374,0 h 1.095117 c 0.308695,0 0.558022,0.249333 0.558022,0.558022 v 1.990277 c 0,0.308692 -0.249327,0.560347 -0.558022,0.560347 h -1.095117 c -0.308691,0 -0.560347,-0.251654 -0.560347,-0.560347 v -1.990277 c 0,-0.308693 0.251656,-0.558022 0.560347,-0.558022 z m 4.499049,0 h 1.097442 c 0.308693,0 0.558021,0.249331 0.558021,0.558022 v 1.990277 c 0,0.308692 -0.249327,0.560347 -0.558021,0.560347 H 67.45191 c -0.308697,0 -0.560347,-0.251651 -0.560348,-0.560347 v -1.990277 c 0,-0.308695 0.251651,-0.558022 0.560348,-0.558022 z m 4.499046,0 H 73.0484 c 0.308694,0 0.558022,0.249331 0.558022,0.558022 v 1.990277 c 0,0.308692 -0.249328,0.560347 -0.558022,0.560347 h -1.097444 c -0.308694,0 -0.55802,-0.251651 -0.55802,-0.560347 v -1.990277 c 0,-0.308695 0.249326,-0.558022 0.55802,-0.558022 z m 4.49905,0 h 1.097442 c 0.308693,0 0.558021,0.249333 0.558021,0.558022 v 1.990277 c 0,0.308692 -0.249328,0.560347 -0.558021,0.560347 h -1.097442 c -0.308694,0 -0.558022,-0.251651 -0.558022,-0.560347 v -1.990277 c 0,-0.308695 0.249328,-0.558022 0.558022,-0.558022 z m 4.501374,0 h 1.097442 c 0.308694,0 0.55802,0.249333 0.55802,0.558022 v 1.990277 c 0,0.308692 -0.249325,0.560347 -0.55802,0.560347 H 80.95138 c -0.308692,0 -0.560348,-0.251654 -0.560348,-0.560347 v -1.990277 c 0,-0.308693 0.251656,-0.558022 0.560348,-0.558022 z m 4.499047,0 h 1.097443 c 0.308692,0 0.558022,0.249331 0.558022,0.558022 v 1.990277 c 0,0.308692 -0.24933,0.560347 -0.558022,0.560347 h -1.097443 c -0.308693,0 -0.55802,-0.251651 -0.55802,-0.560347 v -1.990277 c 0,-0.308695 0.249328,-0.558022 0.55802,-0.558022 z m 4.501374,0 h 1.097443 c 0.308694,0 0.558022,0.249331 0.558022,0.558022 v 1.990277 c 0,0.308692 -0.249328,0.560347 -0.558022,0.560347 h -1.097443 c -0.308694,0 -0.560346,-0.251651 -0.560346,-0.560347 v -1.990277 c 0,-0.308695 0.25165,-0.558022 0.560346,-0.558022 z m -74.361018,4.38047 H 30.40858 V 93.512429 H 15.590783 Z m 18.000845,0 H 48.407099 V 93.512429 H 33.591628 Z m 17.998519,0 H 66.407943 V 93.512429 H 51.590147 Z m 18.000844,0 H 84.406463 V 93.512429 H 69.590991 Z M 8.952653,94.784255 h 1.095116 c 0.308695,0 0.558021,0.249323 0.558021,0.558021 v 1.992606 c 0,0.30869 -0.249326,0.55802 -0.558021,0.55802 H 8.952653 c -0.308692,0 -0.560347,-0.24933 -0.560347,-0.55802 v -1.992606 c 0,-0.308698 0.251655,-0.558021 0.560347,-0.558021 z m 4.499048,0 h 1.097441 c 0.308695,0 0.558023,0.249322 0.558022,0.558021 v 1.992606 c 0,0.30869 -0.249327,0.55802 -0.558022,0.55802 h -1.097441 c -0.308696,0 -0.560347,-0.24933 -0.560347,-0.55802 v -1.992606 c 0,-0.308698 0.251651,-0.558021 0.560347,-0.558021 z m 4.499048,0 h 1.097443 c 0.308694,0 0.560346,0.249323 0.560346,0.558021 v 1.992606 c 0,0.30869 -0.251652,0.55802 -0.560346,0.55802 h -1.097443 c -0.308695,0 -0.558022,-0.24933 -0.558022,-0.55802 v -1.992606 c 0,-0.308698 0.249327,-0.558021 0.558022,-0.558021 z m 4.501374,0 h 1.097443 c 0.308693,0 0.55802,0.249323 0.55802,0.558021 v 1.992606 c 0,0.30869 -0.249327,0.55802 -0.55802,0.55802 h -1.097443 c -0.308695,0 -0.560346,-0.24933 -0.560346,-0.55802 v -1.992606 c 0,-0.308698 0.251651,-0.558021 0.560346,-0.558021 z m 4.499048,0 h 1.097442 c 0.308696,0 0.558023,0.249323 0.558023,0.558021 v 1.992606 c 0,0.30869 -0.249327,0.55802 -0.558023,0.55802 h -1.097442 c -0.308691,0 -0.55802,-0.24933 -0.55802,-0.55802 v -1.992606 c 0,-0.308698 0.249329,-0.558021 0.55802,-0.558021 z m 4.499049,0 h 1.097442 c 0.308692,0 0.558022,0.249323 0.558022,0.558021 v 1.992606 c 0,0.30869 -0.24933,0.55802 -0.558022,0.55802 H 31.45022 c -0.308693,0 -0.558022,-0.24933 -0.558022,-0.55802 v -1.992606 c 0,-0.308698 0.249329,-0.558021 0.558022,-0.558021 z m 4.501375,0 h 1.097441 c 0.308693,0 0.558021,0.249323 0.558021,0.558021 v 1.992606 c 0,0.30869 -0.249328,0.55802 -0.558021,0.55802 h -1.097441 c -0.308696,0 -0.560348,-0.24933 -0.560348,-0.55802 v -1.992606 c 0,-0.308698 0.251652,-0.558021 0.560348,-0.558021 z m 4.499047,0 h 1.097443 c 0.308693,0 0.558021,0.249323 0.558021,0.558021 v 1.992606 c 0,0.30869 -0.249328,0.55802 -0.558021,0.55802 h -1.097443 c -0.308694,0 -0.558021,-0.24933 -0.558021,-0.55802 v -1.992606 c 0,-0.308698 0.249327,-0.558021 0.558021,-0.558021 z m 4.501374,0 h 1.097442 c 0.308696,0 0.558022,0.249323 0.558022,0.558021 v 1.992606 c 0,0.30869 -0.249326,0.55802 -0.558022,0.55802 h -1.097442 c -0.308693,0 -0.560346,-0.24933 -0.560346,-0.55802 v -1.992606 c 0,-0.308698 0.251653,-0.558021 0.560346,-0.558021 z m 4.499049,0 h 1.097442 c 0.308693,0 0.558021,0.249323 0.558022,0.558021 v 1.992606 c 0,0.30869 -0.249329,0.55802 -0.558022,0.55802 h -1.097442 c -0.308693,0 -0.558022,-0.24933 -0.558022,-0.55802 v -1.992606 c 0,-0.308698 0.249329,-0.558021 0.558022,-0.558021 z m 4.499049,0 h 1.097443 c 0.308693,0 0.560345,0.249323 0.560345,0.558021 v 1.992606 c 0,0.30869 -0.251652,0.55802 -0.560345,0.55802 h -1.097443 c -0.308695,0 -0.558022,-0.24933 -0.558022,-0.55802 v -1.992606 c 0,-0.308698 0.249327,-0.558021 0.558022,-0.558021 z m 4.501373,0 h 0.548721 0.548721 c 0.308697,0 0.558022,0.249323 0.558022,0.558021 v 1.992606 c 0,0.30869 -0.249325,0.55802 -0.558022,0.55802 h -0.548721 -0.548721 c -0.308688,0 -0.560346,-0.24933 -0.560346,-0.55802 v -1.992606 c 0,-0.308698 0.251657,-0.558021 0.560346,-0.558021 z m 4.501374,0 h 1.095117 c 0.308695,0 0.558022,0.249323 0.558022,0.558021 v 1.992606 c 0,0.30869 -0.249327,0.55802 -0.558022,0.55802 h -1.095117 c -0.308691,0 -0.560347,-0.24933 -0.560347,-0.55802 v -1.992606 c 0,-0.308698 0.251656,-0.558021 0.560347,-0.558021 z m 4.499049,0 h 1.097442 c 0.308693,0 0.558021,0.249322 0.558021,0.558021 v 1.992606 c 0,0.30869 -0.249327,0.55802 -0.558021,0.55802 H 67.45191 c -0.308697,0 -0.560347,-0.24933 -0.560348,-0.55802 v -1.992606 c 0,-0.308698 0.251651,-0.558021 0.560348,-0.558021 z m 4.499046,0 H 73.0484 c 0.308694,0 0.558022,0.249323 0.558022,0.558021 v 1.992606 c 0,0.30869 -0.249328,0.55802 -0.558022,0.55802 h -1.097444 c -0.308694,0 -0.55802,-0.24933 -0.55802,-0.55802 v -1.992606 c 0,-0.308698 0.249326,-0.558021 0.55802,-0.558021 z m 4.49905,0 h 1.097442 c 0.308693,0 0.558021,0.249323 0.558021,0.558021 v 1.992606 c 0,0.30869 -0.249328,0.55802 -0.558021,0.55802 h -1.097442 c -0.308694,0 -0.558022,-0.24933 -0.558022,-0.55802 v -1.992606 c 0,-0.308698 0.249328,-0.558021 0.558022,-0.558021 z m 4.501374,0 h 1.097442 c 0.308694,0 0.55802,0.249323 0.55802,0.558021 v 1.992606 c 0,0.30869 -0.249325,0.55802 -0.55802,0.55802 H 80.95138 c -0.308692,0 -0.560348,-0.24933 -0.560348,-0.55802 v -1.992606 c 0,-0.308698 0.251656,-0.558021 0.560348,-0.558021 z m 4.499047,0 h 1.097443 c 0.308692,0 0.558022,0.249323 0.558022,0.558021 v 1.992606 c 0,0.30869 -0.24933,0.55802 -0.558022,0.55802 h -1.097443 c -0.308693,0 -0.55802,-0.24933 -0.55802,-0.55802 v -1.992606 c 0,-0.308698 0.249328,-0.558021 0.55802,-0.558021 z m 4.501374,0 h 1.097443 c 0.308694,0 0.558022,0.249323 0.558022,0.558021 v 1.992606 c 0,0.30869 -0.249328,0.55802 -0.558022,0.55802 h -1.097443 c -0.308694,0 -0.560346,-0.24933 -0.560346,-0.55802 v -1.992606 c 0,-0.308698 0.25165,-0.558021 0.560346,-0.558021 z"
     id="path2"
     inkscape:connector-curvature="0"
     style="fill:#000000" />
  <path
     d="m 43.151655,37.307167 c 1.991744,0 3.606559,1.614813 3.606559,3.606557 v 8.654599 c 0,1.991743 -1.614815,3.606558 -3.606559,3.606558 H 25.120292 c -1.991745,0 -3.606558,-1.614815 -3.606558,-3.606558 v -8.654599 c 0,-1.991744 1.614813,-3.606558 3.606558,-3.606557 z m -0.0584,1.081112 h -0.413072 l 2.995493,3.070987 v -0.423044 z m -1.233521,0 H 41.44666 l 4.229016,4.335846 v -0.418771 z m -1.234947,0 h -0.407376 l 5.458265,5.599281 v -0.414499 z m -1.234948,0 h -0.407374 l 6.693211,6.869837 v -0.420195 z m -1.234946,0 h -0.407375 l 7.928158,8.13612 V 46.10563 Z m -1.233522,0 h -0.407377 l 9.161682,9.402405 v -0.423046 z m -1.234948,0 h -0.407375 l 10.396628,10.667262 v -0.423043 z m -1.233521,0 h -0.414499 l 11.540415,11.835263 c 0.03114,-0.115367 0.05237,-0.233386 0.06695,-0.354672 z m -1.236372,0 h -0.413074 l 12.366562,12.682776 c 0.06057,-0.08119 0.113175,-0.166659 0.1638,-0.254966 z m -1.233523,0 H 31.56851 l 12.960532,13.292415 c 0.08337,-0.05449 0.157452,-0.120056 0.233601,-0.183747 L 31.983011,38.388279 Z m -1.234946,0 h -0.41165 L 43.653042,52.04249 c 0.108467,-0.02188 0.210422,-0.06013 0.313366,-0.09543 L 30.748059,38.388279 Z m -1.233522,0 h -0.413074 l 13.366483,13.705489 h 0.408801 z m -1.236373,0 h -0.411648 l 13.367908,13.705489 h 0.408799 z m -1.233521,0 h -0.413074 l 13.366483,13.705489 h 0.408801 z m -1.234947,0 h -0.41165 l 13.366484,13.705489 h 0.4088 z m -1.186519,0.04985 c -0.108454,0.02168 -0.21041,0.06034 -0.313365,0.09543 L 37.53101,52.093761 h 0.411649 L 24.623179,38.438126 Z m 19.475697,0.138166 1.405873,1.442907 C 45.255458,39.364048 44.74715,38.839277 44.098876,38.576295 Z m -20.35597,0.225053 c -0.08226,0.05376 -0.155528,0.118183 -0.230751,0.180898 l 12.783909,13.111518 h 0.413072 L 23.742908,38.801348 Z m -0.63955,0.608215 c -0.06015,0.08049 -0.11343,0.164608 -0.163804,0.252117 l 12.115869,12.432084 h 0.418769 z m -0.410225,0.847513 c -0.0307,0.113512 -0.05084,0.229716 -0.06552,0.348975 l 11.199986,11.487713 h 0.407376 L 22.693134,40.257076 Z m -0.09686,1.166576 v 0.418771 l 9.990677,10.251341 h 0.413073 z m 0,1.269132 v 0.417347 l 8.75573,8.983633 h 0.413073 z m 0,1.266283 v 0.420196 l 7.520784,7.714501 h 0.413074 l -7.933856,-8.134693 z m 0,1.266283 v 0.421621 l 6.285837,6.446793 h 0.413073 z m 0,1.262011 v 0.423044 l 5.056586,5.183359 h 0.408801 z m 0,1.264859 v 0.424468 l 3.821641,3.917076 h 0.410225 z m 0,1.267708 v 0.42162 l 2.586693,2.652216 h 0.408801 z m 0.169501,1.441484 c 0.249378,0.656769 0.760152,1.181464 1.410149,1.444332 z"
     id="path4"
     inkscape:connector-curvature="0" />
  <path
     d="m 20.788527,32.981713 c -1.991737,0 -3.606366,1.614626 -3.606366,3.606371 v 17.310575 c 0,1.991745 1.614629,3.60637 3.606366,3.60637 h 25.22205 c 0,0 0.721274,-0.721274 1.081914,-1.08191 0.356876,-0.356882 1.070639,-1.070642 1.070639,-1.070642 0.492933,-0.49293 1.14585,-0.732544 1.791919,-0.732544 0.646062,0 1.287711,0.239614 1.780644,0.732544 0,0 0.713762,0.71376 1.070639,1.070642 0.360641,0.360636 1.081913,1.08191 1.081913,1.08191 h 25.323481 c 1.991737,0 3.606366,-1.614625 3.606366,-3.60637 V 36.588084 c 0,-1.991745 -1.614629,-3.606371 -3.606366,-3.606371 z m 0,1.081912 h 58.423199 c 1.394217,0 2.524452,1.13024 2.524452,2.524459 v 17.310575 c 0,1.394219 -1.130235,2.52446 -2.524452,2.52446 H 54.327773 L 52.502044,54.597393 C 51.797858,53.893205 50.878,53.538022 49.955049,53.538022 c -0.92295,0 -1.854084,0.355183 -2.55827,1.059371 l -1.82573,1.825726 H 20.788527 c -1.394217,0 -2.524453,-1.130241 -2.524453,-2.52446 V 36.588084 c 0,-1.394219 1.130236,-2.524459 2.524453,-2.524459 z"
     id="path6"
     inkscape:connector-curvature="0" />
  <path
     d="m 74.888508,37.307167 c 1.991743,0 3.606558,1.614813 3.606558,3.606557 v 8.654599 c 0,1.991743 -1.614815,3.606558 -3.606558,3.606558 H 56.85572 c -1.991737,0 -3.606558,-1.614815 -3.606558,-3.606558 v -8.654599 c 0,-1.991744 1.614821,-3.606558 3.606558,-3.606557 z m 0,1.081112 h -0.488566 l 3.012586,3.006888 v -0.481443 c 0,-0.08154 -0.01666,-0.15832 -0.0242,-0.237874 l -2.26478,-2.263356 c -0.07864,-0.0074 -0.15446,-0.0242 -0.235025,-0.0242 z m -0.848937,0 H 73.34162 l 4.070908,4.072333 v -0.696527 z m -1.04123,0 h -0.699376 l 5.113563,5.114988 v -0.696528 z m -1.052625,0 h -0.695102 l 6.161914,6.157642 v -0.685132 z m -1.042654,0 h -0.7008 l 7.210266,7.211691 v -0.706498 z m -1.044078,0 h -0.709347 l 8.262891,8.255769 v -0.709346 z m -1.054049,0 H 68.10271 l 9.309818,9.319789 v -0.705073 z m -1.04123,0 H 67.062904 L 77.412528,48.739327 V 48.03283 Z m -1.055475,0 h -0.693676 l 11.37661,11.385156 c 0.0056,-0.06887 0.02136,-0.134793 0.02136,-0.205112 V 49.086878 L 66.708226,38.388279 Z m -1.042653,0 h -0.693678 l 12.212727,12.218425 c 0.07607,-0.167893 0.138644,-0.343365 0.176625,-0.528449 z m -1.044079,0 h -0.706497 l 12.853703,12.848005 c 0.114409,-0.128901 0.214182,-0.268334 0.300547,-0.418771 z m -1.054049,0 h -0.686556 l 13.323752,13.325177 c 0.14192,-0.08728 0.274472,-0.18638 0.395981,-0.299123 z m -1.042654,0 H 61.82542 l 13.632844,13.63427 c 0.182769,-0.04237 0.356168,-0.106925 0.521327,-0.186596 z m -1.058322,0 H 60.77422 l 13.714035,13.705489 h 0.400253 c 0.08787,0 0.170841,-0.01688 0.25639,-0.02564 z m -1.026986,0 H 59.737262 L 73.43278,52.093768 h 0.696528 z m -1.064019,0 h -0.695104 l 13.721157,13.705489 h 0.695104 z m -1.038381,0 h -0.70365 l 13.71546,13.705489 h 0.682283 z m -1.052625,0 H 56.85572 c -0.08545,0 -0.166003,0.01736 -0.249269,0.02564 l 13.698368,13.67985 h 0.683706 z m -0.987103,0.06695 c -0.176438,0.03999 -0.34397,0.101817 -0.504235,0.176625 l 13.470465,13.461918 h 0.682283 z m 19.246368,0.02991 1.770518,1.770518 c -0.234049,-0.862668 -0.907399,-1.537563 -1.770518,-1.770518 z m -19.97993,0.269211 c -0.145419,0.08721 -0.280049,0.188223 -0.404527,0.30197 l 13.03745,13.03745 h 0.695102 z m -0.576878,0.47717 c -0.112906,0.125381 -0.21149,0.261172 -0.297697,0.407375 L 67.165461,52.09377 h 0.683708 L 54.986919,39.231514 Z M 54.5653,39.865369 c -0.07409,0.16154 -0.133525,0.3308 -0.172352,0.508508 l 11.718464,11.719887 h 0.670887 z m -0.210811,0.819025 c -0.0071,0.07675 -0.02279,0.150743 -0.02279,0.229326 v 0.454381 l 10.725663,10.725663 h 0.696526 z m -0.02279,1.031258 v 0.706498 l 9.694403,9.671614 h 0.695103 z m 0,1.031259 v 0.705075 l 8.628959,8.641778 h 0.695103 z m 0,1.065444 v 0.682284 l 7.587728,7.599125 h 0.703651 z m 0,1.042655 v 0.693679 l 6.532256,6.545075 h 0.706498 z m 0,1.05405 v 0.682282 l 5.489601,5.502422 h 0.693678 z m 0,1.042654 v 0.695103 l 4.446948,4.446947 h 0.705072 z m 0,1.042653 v 0.697953 l 3.392897,3.401444 h 0.706499 z m 0,1.05405 v 0.519902 c 0,0.062 0.01412,0.120012 0.01852,0.180897 l 2.324605,2.326031 c 0.06089,0.0043 0.118891,0.01852 0.180898,0.01852 h 0.519904 L 54.331701,49.04842 Z m 0.07977,1.120994 c 0.224294,0.913092 0.941064,1.62782 1.855982,1.847436 z"
     id="path8"
     inkscape:connector-curvature="0" />
</svg>
