<?xml version="1.0" encoding="UTF-8" standalone="no"?>
<svg
   xmlns:dc="http://purl.org/dc/elements/1.1/"
   xmlns:cc="http://creativecommons.org/ns#"
   xmlns:rdf="http://www.w3.org/1999/02/22-rdf-syntax-ns#"
   xmlns:svg="http://www.w3.org/2000/svg"
   xmlns="http://www.w3.org/2000/svg"
   xmlns:sodipodi="http://sodipodi.sourceforge.net/DTD/sodipodi-0.dtd"
   xmlns:inkscape="http://www.inkscape.org/namespaces/inkscape"
   version="1.1"
   x="0px"
   y="0px"
   viewBox="0 0 100 100"
   enable-background="new 0 0 100 100"
   xml:space="preserve"
   id="svg24"
   sodipodi:docname="movieplayer.html"
   width="100"
   height="100"
   inkscape:version="0.92.1 r15371"><metadata
     id="metadata30"><rdf:RDF><cc:Work
         rdf:about=""><dc:format>image/svg+xml</dc:format><dc:type
           rdf:resource="http://purl.org/dc/dcmitype/StillImage" /><dc:title /></cc:Work></rdf:RDF></metadata><defs
     id="defs28" /><sodipodi:namedview
     pagecolor="#ffffff"
     bordercolor="#666666"
     borderopacity="1"
     objecttolerance="10"
     gridtolerance="10"
     guidetolerance="10"
     inkscape:pageopacity="0"
     inkscape:pageshadow="2"
     inkscape:window-width="2560"
     inkscape:window-height="1506"
     id="namedview26"
     showgrid="false"
     inkscape:zoom="7.552"
     inkscape:cx="17.141791"
     inkscape:cy="69.849191"
     inkscape:window-x="-11"
     inkscape:window-y="-11"
     inkscape:window-maximized="1"
     inkscape:current-layer="svg24" /><polygon
     transform="matrix(0.84999976,0,0,0.84999976,7.94928,27.510458)"
     style="fill:#000000;fill-opacity:1;stroke-width:1.17647088"
     points="78.096,68.569 92.061,68.569 99.629,68.569 99.629,31.523 92.471,31.523 78.174,31.523 78.096,31.523 "
     id="polygon2" /><polygon
     transform="matrix(0.84999976,0,0,0.84999976,7.94928,27.510458)"
     style="fill:#000000;fill-opacity:1;stroke-width:1.17647088"
     points="0.044,31.475 0.044,68.521 14.438,68.521 22.236,68.521 22.236,31.475 14.863,31.475 0.122,31.475 "
     id="polygon4" /><path
     inkscape:connector-curvature="0"
     style="fill:#000000;fill-opacity:1;stroke-width:0.99999982"
     d="M 40.70828,54.304999 H 29.31575 v 31.48906 h 10.95736 30.23957 0.77183 0.76327 0.0995 v -31.48906 z m 21.95975,17.02971 -20.34898,10.29265 c -1.07525,0.54827 -1.95499,0.22457 -1.95499,-0.714 v -21.12928 0 c 0,-0.9384 0.87974,-1.2614 1.95499,-0.71825 l 20.34898,10.2969 c 1.0795,0.54398 1.0795,1.43223 0,1.97198 z"
     id="path6-0" /><path
     inkscape:connector-curvature="0"
     style="fill:#000000;fill-opacity:1;stroke-width:0.99999982"
     d="m 92.883,45.008539 v -2.1828 H 49.73955 48.32006 7.89151 l 0.033,2.15816 h 1.6107403 v 4.67755 h -0.11639 v 0.01 l -1.2911603,0.002 v -0.0131 H 7.99088 l 0.0373,2.45735 h 4.86455 34.23204 1.1866 1.19085 0.15806 28.80397 14.41852 v -2.44887 h -4.59001 v -4.6648 z m -72.84755,4.66054 h -7.09326 v 0 l 0.003,-4.66479 7.08902,0.003 z m 3.51475,0 0.003,-4.66479 7.08478,0.01 0.003,4.65714 H 23.5477 Z m 10.60462,-0.003 v -4.65713 h 7.08898 l 0.01,4.66055 z m 18.78497,0.01 h -3.20449 -1.42375 -3.5445 l -0.003,-4.66478 h 3.55723 1.41102 3.21638 z m 10.60801,0 -7.08051,-0.003 -0.01,-4.66055 7.09748,-0.003 z m 3.52833,0 v -4.66477 l 7.0805,0.003 v 4.65713 z m 17.69702,-0.003 h -7.08902 v -4.66475 l 7.08902,0.003 z"
     id="path8" /><path
     inkscape:connector-curvature="0"
     style="fill:#000000;fill-opacity:1;stroke-width:0.99999982"
     d="m 92.866,90.118859 v -2.19126 H 49.72338 48.3073 7.883 l 0.0289,2.15811 h 1.6107703 v 4.68182 h -0.11622 v 0.01 H 8.1153 v -0.01 H 7.97848 l 0.0373,2.45735 h 4.86455 v 0 h 34.23202 1.1866 1.19085 0.15806 28.8082 14.41004 v -2.44887 h -4.59 l 0.01,-4.66478 z m -72.8433,4.65715 h -7.09324 l 0.003,-4.66478 h 7.08899 z m 3.5156,0 0.003,-4.66478 7.08473,0.01 0.003,4.65715 h -7.09325 z m 10.60377,0 v -4.66478 h 7.08898 l 0.01,4.66478 z m 18.78498,0 h -3.2045 -1.42377 -3.54448 l -0.003,-4.66478 h 3.55725 1.411 3.2164 z m 10.61223,0 H 56.4503 v -4.66478 h 7.08898 z m 3.52837,0 v -4.66478 l 7.07198,0.01 0.01,4.65715 h -7.08051 z m 17.69698,0 h -7.0975 l 0.01,-4.66478 h 7.08901 z"
     id="path10" /></svg>