<?xml version="1.0" encoding="UTF-8" standalone="no"?>
<svg
   xmlns:dc="http://purl.org/dc/elements/1.1/"
   xmlns:cc="http://creativecommons.org/ns#"
   xmlns:rdf="http://www.w3.org/1999/02/22-rdf-syntax-ns#"
   xmlns:svg="http://www.w3.org/2000/svg"
   xmlns="http://www.w3.org/2000/svg"
   xmlns:xlink="http://www.w3.org/1999/xlink"
   xmlns:sodipodi="http://sodipodi.sourceforge.net/DTD/sodipodi-0.dtd"
   xmlns:inkscape="http://www.inkscape.org/namespaces/inkscape"
   version="1.1"
   x="0px"
   y="0px"
   viewBox="0 0 100 100"
   enable-background="new 0 0 100 100"
   xml:space="preserve"
   id="svg24"
   sodipodi:docname="audiocdplayer.html"
   width="100"
   height="100"
   inkscape:version="0.92.1 r15371"><metadata
     id="metadata30"><rdf:RDF><cc:Work
         rdf:about=""><dc:format>image/svg+xml</dc:format><dc:type
           rdf:resource="http://purl.org/dc/dcmitype/StillImage" /><dc:title></dc:title></cc:Work></rdf:RDF></metadata><defs
     id="defs28"><linearGradient
       inkscape:collect="always"
       id="linearGradient4520"><stop
         style="stop-color:#000000;stop-opacity:1;"
         offset="0"
         id="stop4516" /><stop
         style="stop-color:#000000;stop-opacity:0;"
         offset="1"
         id="stop4518" /></linearGradient><linearGradient
       inkscape:collect="always"
       xlink:href="#linearGradient4520"
       id="linearGradient4522"
       x1="-11.83949"
       y1="182.69664"
       x2="121.18661"
       y2="182.69664"
       gradientUnits="userSpaceOnUse" /></defs><sodipodi:namedview
     pagecolor="#ffffff"
     bordercolor="#666666"
     borderopacity="1"
     objecttolerance="10"
     gridtolerance="10"
     guidetolerance="10"
     inkscape:pageopacity="0"
     inkscape:pageshadow="2"
     inkscape:window-width="2560"
     inkscape:window-height="1506"
     id="namedview26"
     showgrid="false"
     inkscape:zoom="3.776"
     inkscape:cx="151.41928"
     inkscape:cy="-22.099548"
     inkscape:window-x="-11"
     inkscape:window-y="-11"
     inkscape:window-maximized="1"
     inkscape:current-layer="svg24" /><path
     inkscape:connector-curvature="0"
     style="color:#000000;fill:#404040;fill-opacity:1;stroke-width:0.99999988"
     d="M 62.736958,44.999061 C 59.8078,39.260025 52.780866,36.982167 47.041825,39.911327 c -5.739025,2.929152 -8.016884,9.9561 -5.087727,15.695136 2.929159,5.739037 9.956109,8.016885 15.695134,5.087734 5.739041,-2.92916 8.016883,-9.9561 5.087726,-15.695136 z m -6.234867,3.182226 c 1.171671,2.29563 0.26053,5.106412 -2.035071,6.278069 -2.295632,1.171672 -5.106413,0.260528 -6.278085,-2.035103 -1.171656,-2.295604 -0.260512,-5.106377 2.03512,-6.278049 2.295602,-1.171656 5.106378,-0.260522 6.278036,2.035083 z"
     id="path2-03" /><path
     inkscape:connector-curvature="0"
     style="color:#000000;fill:#404040;fill-opacity:1;stroke:none;stroke-width:1.00157475;stroke-miterlimit:4;stroke-dasharray:none;stroke-opacity:1"
     d="M 83.519829,34.391652 C 74.732362,17.174552 53.651532,10.341005 36.434426,19.128476 c -4.373641,2.232271 -8.07773,5.266028 -11.025391,8.820016 l 17.069637,13.555057 c 1.059781,-1.188095 2.352696,-2.210481 3.85599,-2.97775 6.504235,-3.319709 14.468119,-0.738133 17.787826,5.766099 0.814048,1.594948 1.25536,3.286626 1.389028,4.96704 L 87.313453,48.828423 C 87.110842,43.946014 85.88677,39.029149 83.519829,34.391652 Z"
     id="path4" /><path
     inkscape:connector-curvature="0"
     style="color:#000000;fill:#404040;fill-opacity:1;stroke-width:0.99999988"
     d="m 87.33712,50.371782 -21.790917,0.452172 c -0.0698,1.718974 -0.467802,3.410166 -1.176343,4.966519 l 19.291647,10.156055 c 2.401636,-4.815156 3.659391,-10.153969 3.675613,-15.574746 z"
     id="path6-2" /><path
     inkscape:connector-curvature="0"
     style="color:#000000;fill:#404040;fill-opacity:1;stroke-width:0.99999988"
     d="M 82.933543,67.300455 63.641897,57.1444 c -0.155832,0.258012 -0.308984,0.517254 -0.482804,0.764901 L 80.2504,71.45331 c 0.998337,-1.319635 1.886772,-2.71657 2.683143,-4.152855 z"
     id="path8" /><path
     inkscape:connector-curvature="0"
     style="color:#000000;fill:#404040;fill-opacity:1;stroke:none;stroke-width:1.00157475;stroke-miterlimit:4;stroke-dasharray:none;stroke-opacity:1"
     d="M 79.282051,72.657052 62.212373,59.101991 c -1.059754,1.188071 -2.352668,2.210457 -3.855979,2.977734 -6.504235,3.319709 -14.468119,0.738134 -17.787826,-5.766099 -0.814044,-1.594938 -1.255343,-3.286635 -1.388997,-4.967022 l -21.801966,0.43053 c 0.202619,4.882393 1.426694,9.799234 3.793635,14.436731 8.787468,17.2171 29.868311,24.050663 47.085399,15.263201 4.373612,-2.232256 8.077751,-5.266028 11.025412,-8.820014 z"
     id="path10-6" /><path
     inkscape:connector-curvature="0"
     style="color:#000000;fill:#404040;fill-opacity:1;stroke-width:0.99999988"
     d="m 17.353954,50.233744 21.790912,-0.452147 c 0.06981,-1.719001 0.467773,-3.41015 1.176324,-4.966521 L 21.029569,34.658998 c -2.40168,4.815189 -3.659405,10.153975 -3.675615,15.574746 z"
     id="path12" /><path
     inkscape:connector-curvature="0"
     style="color:#000000;fill:#404040;fill-opacity:1;stroke-width:0.99999988"
     d="m 21.757519,33.305078 19.29162,10.15608 c 0.155831,-0.258011 0.309056,-0.517232 0.482832,-0.764954 l -17.091303,-13.544 c -0.998343,1.319625 -1.886819,2.716594 -2.683152,4.152873 z"
     id="path14-9" /><rect
     style="opacity:0.95;fill:#f5f5f5;fill-opacity:1;stroke:#000000;stroke-width:0.324;stroke-miterlimit:4;stroke-dasharray:none;stroke-opacity:1"
     id="rect4526"
     width="89.376381"
     height="26.919577"
     x="5.2887936"
     y="70.578529"
     ry="9.2690678"
     rx="9.2690678" /><rect
     rx="9.2690687"
     ry="9.2690678"
     y="72.138969"
     x="8.3548107"
     height="23.859219"
     width="84.245232"
     id="rect4528"
     style="opacity:0.95;fill:#ebebeb;fill-opacity:1;stroke:#000000;stroke-width:0.62362206;stroke-miterlimit:4;stroke-dasharray:none;stroke-opacity:1" /><path
     inkscape:connector-curvature="0"
     d="m 90.939867,3.5138648 h -16.55578 c -2.32256,0 -4.22211,1.899551 -4.22211,4.222108 V 24.291758 c 0,2.32206 1.89955,4.222107 4.22211,4.222107 h 16.55578 c 2.32206,0 4.22211,-1.900047 4.22211,-4.222107 V 7.7359728 c 0,-2.322557 -1.90005,-4.222108 -4.22211,-4.222108 z M 78.937347,21.812809 V 10.214922 l 9.68245,5.798943 z"
     id="path2-0"
     style="stroke-width:0.99999994;stroke:#ffffff;stroke-opacity:1;fill:#404040;fill-opacity:1" /><text
     transform="scale(1.0018898,0.99811377)"
     id="text4542"
     font-weight="bold"
     font-size="5px"
     y="90.369408"
     x="14.210477"
     style="font-style:normal;font-variant:normal;font-weight:bold;font-stretch:normal;font-size:24px;font-family:'Helvetica Neue', Helvetica, Arial-Unicode, Arial, Sans-serif;-inkscape-font-specification:'Helvetica Neue, Helvetica, Arial-Unicode, Arial, Sans-serif, Bold';font-variant-ligatures:normal;font-variant-caps:normal;font-variant-numeric:normal;font-feature-settings:normal;text-align:start;writing-mode:lr-tb;text-anchor:start;fill:#404040;fill-opacity:1;stroke-width:1.00000012;"><tspan
       id="tspan4540"
       style="font-style:normal;font-variant:normal;font-weight:bold;font-stretch:normal;font-size:16px;font-family:'Helvetica Neue', Helvetica, Arial-Unicode, Arial, Sans-serif;-inkscape-font-specification:'Helvetica Neue, Helvetica, Arial-Unicode, Arial, Sans-serif, Bold';font-variant-ligatures:normal;font-variant-caps:normal;font-variant-numeric:normal;font-feature-settings:normal;text-align:start;writing-mode:lr-tb;text-anchor:start;fill:#404040;fill-opacity:1;stroke-width:1.00000012;">Audio CD</tspan></text>
</svg>