<?xml version="1.0" encoding="UTF-8" standalone="no"?>
<svg
   xmlns:dc="http://purl.org/dc/elements/1.1/"
   xmlns:cc="http://creativecommons.org/ns#"
   xmlns:rdf="http://www.w3.org/1999/02/22-rdf-syntax-ns#"
   xmlns:svg="http://www.w3.org/2000/svg"
   xmlns="http://www.w3.org/2000/svg"
   xmlns:xlink="http://www.w3.org/1999/xlink"
   xmlns:sodipodi="http://sodipodi.sourceforge.net/DTD/sodipodi-0.dtd"
   xmlns:inkscape="http://www.inkscape.org/namespaces/inkscape"
   version="1.1"
   x="0px"
   y="0px"
   viewBox="0 0 100 100"
   enable-background="new 0 0 100 100"
   xml:space="preserve"
   id="svg24"
   sodipodi:docname="vcdplayer.html"
   width="100"
   height="100"
   inkscape:version="0.92.1 r15371"><metadata
     id="metadata30"><rdf:RDF><cc:Work
         rdf:about=""><dc:format>image/svg+xml</dc:format><dc:type
           rdf:resource="http://purl.org/dc/dcmitype/StillImage" /><dc:title></dc:title></cc:Work></rdf:RDF></metadata><defs
     id="defs28"><linearGradient
       inkscape:collect="always"
       id="linearGradient4520"><stop
         style="stop-color:#000000;stop-opacity:1;"
         offset="0"
         id="stop4516" /><stop
         style="stop-color:#000000;stop-opacity:0;"
         offset="1"
         id="stop4518" /></linearGradient><linearGradient
       inkscape:collect="always"
       xlink:href="#linearGradient4520"
       id="linearGradient4522"
       x1="-11.83949"
       y1="182.69664"
       x2="121.18661"
       y2="182.69664"
       gradientUnits="userSpaceOnUse" /></defs><sodipodi:namedview
     pagecolor="#ffffff"
     bordercolor="#666666"
     borderopacity="1"
     objecttolerance="10"
     gridtolerance="10"
     guidetolerance="10"
     inkscape:pageopacity="0"
     inkscape:pageshadow="2"
     inkscape:window-width="2560"
     inkscape:window-height="1506"
     id="namedview26"
     showgrid="false"
     inkscape:zoom="5.3400704"
     inkscape:cx="148.37029"
     inkscape:cy="-5.5895208"
     inkscape:window-x="-11"
     inkscape:window-y="-11"
     inkscape:window-maximized="1"
     inkscape:current-layer="svg24" /><path
     inkscape:connector-curvature="0"
     style="color:#000000;fill:#202020;fill-opacity:1;stroke-width:0.99999988"
     d="m 57.285788,39.733709 c -5.837136,-2.728432 -12.780882,-0.208345 -15.509316,5.628796 -2.728427,5.837125 -0.208333,12.780882 5.628803,15.509314 5.837137,2.728432 12.78089,0.208328 15.509317,-5.628796 2.728434,-5.837141 0.208332,-12.780881 -5.628804,-15.509314 z m -2.964158,6.341443 c 2.334871,1.09138 3.342912,3.868884 2.251546,6.203725 -1.091381,2.334872 -3.868886,3.342911 -6.203757,2.25153 -2.334843,-1.091368 -3.342876,-3.868867 -2.251495,-6.203739 1.091367,-2.334841 3.868862,-3.342884 6.203706,-2.251516 z"
     id="path2-03" /><path
     inkscape:connector-curvature="0"
     style="color:#000000;fill:#202020;fill-opacity:1;stroke:none;stroke-width:1.00157475;stroke-miterlimit:4;stroke-dasharray:none;stroke-opacity:1"
     d="M 67.166307,18.595587 C 49.654908,10.410294 28.823665,17.970591 20.63837,35.481996 c -2.079301,4.448402 -3.137897,9.117806 -3.280045,13.732925 l 21.796079,0.207423 c 0.106206,-1.58853 0.498165,-3.189551 1.212856,-4.718542 3.09222,-6.615415 10.96182,-9.471525 17.577232,-6.379306 1.622211,0.758265 3.009764,1.821857 4.147666,3.065576 L 79.02935,27.655396 C 75.869763,23.927665 71.883075,20.800329 67.166307,18.595587 Z"
     id="path4" /><path
     inkscape:connector-curvature="0"
     style="color:#000000;fill:#202020;fill-opacity:1;stroke-width:0.99999988"
     d="M 79.996255,28.858563 63.081064,42.603556 c 1.001058,1.399152 1.726093,2.978031 2.123271,4.641316 L 86.665247,43.405295 C 85.601727,38.13059 83.313954,33.145516 79.996255,28.858563 Z"
     id="path6-2" /><path
     inkscape:connector-curvature="0"
     style="color:#000000;fill:#202020;fill-opacity:1;stroke-width:0.99999988"
     d="m 86.92273,44.920798 -21.460911,3.839577 c 0.03557,0.299313 0.07401,0.597951 0.08902,0.900138 l 21.806388,0.185392 c -0.02309,-1.654564 -0.180386,-3.302593 -0.434498,-4.925107 z"
     id="path8" /><path
     inkscape:connector-curvature="0"
     style="color:#000000;fill:#202020;fill-opacity:1;stroke:none;stroke-width:1.00157475;stroke-miterlimit:4;stroke-dasharray:none;stroke-opacity:1"
     d="m 87.332774,51.390604 -21.796113,-0.2074 c -0.1062,1.588494 -0.498159,3.189515 -1.212858,4.718522 -3.09222,6.615415 -10.96182,9.471526 -17.577232,6.379307 -1.622202,-0.75826 -3.009756,-1.821875 -4.14763,-3.065581 L 25.661735,72.950158 c 3.159584,3.727713 7.14626,6.855028 11.863028,9.05977 17.511399,8.185292 38.342662,0.625001 46.527949,-16.886387 2.079287,-4.448372 3.137913,-9.117818 3.280062,-13.732937 z"
     id="path10-6" /><path
     inkscape:connector-curvature="0"
     style="color:#000000;fill:#202020;fill-opacity:1;stroke-width:0.99999988"
     d="M 24.694824,71.746956 41.610026,58.001986 C 40.608957,56.602808 39.883919,55.023985 39.486739,53.36068 l -21.460906,3.839543 c 1.063506,5.274758 3.351286,10.259793 6.668991,14.546733 z"
     id="path12" /><path
     inkscape:connector-curvature="0"
     style="color:#000000;fill:#202020;fill-opacity:1;stroke-width:0.99999988"
     d="m 17.768343,55.684734 21.460906,-3.839541 c -0.03557,-0.299313 -0.07394,-0.597978 -0.08903,-0.900198 l -21.80638,-0.185387 c 0.02308,1.65456 0.180364,3.302641 0.434501,4.925126 z"
     id="path14-9" /><rect
     style="opacity:0.95;fill:#f5f5f5;fill-opacity:1;stroke:#000000;stroke-width:0.324;stroke-miterlimit:4;stroke-dasharray:none;stroke-opacity:1"
     id="rect4526"
     width="89.376381"
     height="26.919577"
     x="5.2887936"
     y="70.578529"
     ry="9.2690678"
     rx="9.2690678" /><rect
     rx="9.2690687"
     ry="9.2690678"
     y="72.138969"
     x="8.3548107"
     height="23.859219"
     width="84.245232"
     id="rect4528"
     style="opacity:0.95;fill:#ebebeb;fill-opacity:1;stroke:#000000;stroke-width:0.62362206;stroke-miterlimit:4;stroke-dasharray:none;stroke-opacity:1" /><text
     style="font-style:normal;font-variant:normal;font-weight:bold;font-stretch:normal;font-size:24px;font-family:'Helvetica Neue', Helvetica, Arial-Unicode, Arial, Sans-serif;-inkscape-font-specification:'Helvetica Neue, Helvetica, Arial-Unicode, Arial, Sans-serif, Bold';font-variant-ligatures:normal;font-variant-caps:normal;font-variant-numeric:normal;font-feature-settings:normal;text-align:start;writing-mode:lr-tb;text-anchor:start;fill:#000000;fill-opacity:1;stroke-width:1.00000012"
     x="27.346668"
     y="92.226723"
     font-size="5px"
     font-weight="bold"
     id="text8"
     transform="scale(1.0018898,0.99811377)"><tspan
       style="font-style:normal;font-variant:normal;font-weight:bold;font-stretch:normal;font-size:24px;font-family:'Helvetica Neue', Helvetica, Arial-Unicode, Arial, Sans-serif;-inkscape-font-specification:'Helvetica Neue, Helvetica, Arial-Unicode, Arial, Sans-serif, Bold';font-variant-ligatures:normal;font-variant-caps:normal;font-variant-numeric:normal;font-feature-settings:normal;text-align:start;writing-mode:lr-tb;text-anchor:start;fill:#000000;fill-opacity:1;stroke-width:1.00000012"
       id="tspan6304">VCD</tspan></text>
<path
     inkscape:connector-curvature="0"
     d="m 90.939867,3.5138648 h -16.55578 c -2.32256,0 -4.22211,1.899551 -4.22211,4.222108 V 24.291758 c 0,2.32206 1.89955,4.222107 4.22211,4.222107 h 16.55578 c 2.32206,0 4.22211,-1.900047 4.22211,-4.222107 V 7.7359728 c 0,-2.322557 -1.90005,-4.222108 -4.22211,-4.222108 z M 78.937347,21.812809 V 10.214922 l 9.68245,5.798943 z"
     id="path2-0"
     style="stroke-width:0.99999994;stroke:#ffffff;stroke-opacity:1" /></svg>