<?xml version="1.0" encoding="UTF-8" standalone="no"?>
<svg
   xmlns:dc="http://purl.org/dc/elements/1.1/"
   xmlns:cc="http://creativecommons.org/ns#"
   xmlns:rdf="http://www.w3.org/1999/02/22-rdf-syntax-ns#"
   xmlns:svg="http://www.w3.org/2000/svg"
   xmlns="http://www.w3.org/2000/svg"
   xmlns:sodipodi="http://sodipodi.sourceforge.net/DTD/sodipodi-0.dtd"
   xmlns:inkscape="http://www.inkscape.org/namespaces/inkscape"
   version="1.1"
   x="0px"
   y="0px"
   viewBox="0 0 100 100"
   enable-background="new 0 0 100 100"
   xml:space="preserve"
   id="svg24"
   sodipodi:docname="movietrailers.html"
   width="100"
   height="100"
   inkscape:version="0.92.1 r15371"><metadata
     id="metadata30"><rdf:RDF><cc:Work
         rdf:about=""><dc:format>image/svg+xml</dc:format><dc:type
           rdf:resource="http://purl.org/dc/dcmitype/StillImage" /><dc:title></dc:title></cc:Work></rdf:RDF></metadata><defs
     id="defs28" /><sodipodi:namedview
     pagecolor="#ffffff"
     bordercolor="#666666"
     borderopacity="1"
     objecttolerance="10"
     gridtolerance="10"
     guidetolerance="10"
     inkscape:pageopacity="0"
     inkscape:pageshadow="2"
     inkscape:window-width="2560"
     inkscape:window-height="1506"
     id="namedview26"
     showgrid="false"
     inkscape:zoom="7.552"
     inkscape:cx="115.64302"
     inkscape:cy="63.162063"
     inkscape:window-x="-11"
     inkscape:window-y="-11"
     inkscape:window-maximized="1"
     inkscape:current-layer="svg24" /><g
     id="g4579"
     transform="matrix(1.2878788,0,0,1.2878788,167.20155,66.890775)"
     style="stroke-width:0.7764706"><path
       id="path2"
       d="m -123.63551,-27.363746 v 47 c 0,1.657 1.343,3 3,3 h 60.000001 c 1.657,0 3,-1.343 3,-3 v -47 z m 63.000001,47 h -60.000001 v -44 h 60.000001 z"
       inkscape:connector-curvature="0"
       style="stroke-width:0.7764706" /><path
       id="path4"
       d="m -60.635509,-38.363746 h -60.000001 c -1.657,0 -3,0.844 -3,2.5 v 6.5 h 66.000001 v -6.5 c 0,-1.656 -1.343,-2.5 -3,-2.5 z m -10,6 c -0.828,0 -1.5,-0.672 -1.5,-1.5 0,-0.828 0.672,-1.5 1.5,-1.5 0.828,0 1.5,0.672 1.5,1.5 0,0.828 -0.672,1.5 -1.5,1.5 z m 4,0 c -0.828,0 -1.5,-0.672 -1.5,-1.5 0,-0.828 0.672,-1.5 1.5,-1.5 0.828,0 1.5,0.672 1.5,1.5 0,0.828 -0.672,1.5 -1.5,1.5 z m 4,0 c -0.828,0 -1.5,-0.672 -1.5,-1.5 0,-0.828 0.672,-1.5 1.5,-1.5 0.828,0 1.5,0.672 1.5,1.5 0,0.828 -0.672,1.5 -1.5,1.5 z"
       inkscape:connector-curvature="0"
       style="stroke-width:0.7764706" /><rect
       id="rect6"
       height="5"
       width="8"
       y="-20.363747"
       x="-80.635506"
       style="stroke-width:0.7764706" /><rect
       id="rect8"
       height="1"
       width="8"
       y="-20.363747"
       x="-71.635506"
       style="stroke-width:0.7764706" /><rect
       id="rect10"
       height="1"
       width="8"
       y="-18.363747"
       x="-71.635506"
       style="stroke-width:0.7764706" /><rect
       id="rect12"
       height="1"
       width="5"
       y="-16.363747"
       x="-71.635506"
       style="stroke-width:0.7764706" /><rect
       id="rect14"
       height="5"
       width="8"
       y="-12.363747"
       x="-80.635506"
       style="stroke-width:0.7764706" /><rect
       id="rect16"
       height="1"
       width="8"
       y="-12.363747"
       x="-71.635506"
       style="stroke-width:0.7764706" /><rect
       id="rect18"
       height="1"
       width="8"
       y="-10.363747"
       x="-71.635506"
       style="stroke-width:0.7764706" /><rect
       id="rect20"
       height="1"
       width="5"
       y="-8.3637466"
       x="-71.635506"
       style="stroke-width:0.7764706" /><rect
       id="rect22"
       height="5"
       width="8"
       y="-4.3637462"
       x="-80.635506"
       style="stroke-width:0.7764706" /><rect
       id="rect24"
       height="1"
       width="8"
       y="-4.3637462"
       x="-71.635506"
       style="stroke-width:0.7764706" /><rect
       id="rect26"
       height="1"
       width="8"
       y="-2.3637462"
       x="-71.635506"
       style="stroke-width:0.7764706" /><rect
       id="rect28"
       height="1"
       width="5"
       y="-0.36374626"
       x="-71.635506"
       style="stroke-width:0.7764706" /><rect
       id="rect30"
       height="5"
       width="8"
       y="3.6362538"
       x="-80.635506"
       style="stroke-width:0.7764706" /><rect
       id="rect32"
       height="1"
       width="8"
       y="3.6362538"
       x="-71.635506"
       style="stroke-width:0.7764706" /><rect
       id="rect34"
       height="1"
       width="8"
       y="5.6362538"
       x="-71.635506"
       style="stroke-width:0.7764706" /><rect
       id="rect36"
       height="1"
       width="5"
       y="7.6362538"
       x="-71.635506"
       style="stroke-width:0.7764706" /><rect
       id="rect38"
       height="5"
       width="8"
       y="11.636253"
       x="-80.635506"
       style="stroke-width:0.7764706" /><rect
       id="rect40"
       height="1"
       width="8"
       y="11.636253"
       x="-71.635506"
       style="stroke-width:0.7764706" /><rect
       id="rect42"
       height="1"
       width="8"
       y="13.636253"
       x="-71.635506"
       style="stroke-width:0.7764706" /><rect
       id="rect44"
       height="1"
       width="5"
       y="15.636253"
       x="-71.635506"
       style="stroke-width:0.7764706" /><path
       id="path46"
       d="M -117.63551,-20.363746 V 4.6362537 h 34.000001 V -20.363746 Z m 13,15.9999997 v -7.9999997 l 8.000001,3.9999997 z"
       inkscape:connector-curvature="0"
       style="stroke-width:0.7764706" /><rect
       id="rect48"
       height="3"
       width="1"
       y="5.6362538"
       x="-117.63551"
       style="stroke-width:0.7764706" /><rect
       id="rect50"
       height="3"
       width="1"
       y="5.6362538"
       x="-115.63551"
       style="stroke-width:0.7764706" /><rect
       id="rect52"
       height="1"
       width="30"
       y="6.6362538"
       x="-113.63551"
       style="stroke-width:0.7764706" /></g></svg>