<?xml version="1.0" encoding="UTF-8" standalone="no"?>
<svg
   xmlns:dc="http://purl.org/dc/elements/1.1/"
   xmlns:cc="http://creativecommons.org/ns#"
   xmlns:rdf="http://www.w3.org/1999/02/22-rdf-syntax-ns#"
   xmlns:svg="http://www.w3.org/2000/svg"
   xmlns="http://www.w3.org/2000/svg"
   xmlns:sodipodi="http://sodipodi.sourceforge.net/DTD/sodipodi-0.dtd"
   xmlns:inkscape="http://www.inkscape.org/namespaces/inkscape"
   version="1.1"
   x="0px"
   y="0px"
   viewBox="0 0 100 100"
   enable-background="new 0 0 100 100"
   xml:space="preserve"
   id="svg24"
   sodipodi:docname="videorotate.svg"
   width="100"
   height="100"
   inkscape:version="0.92.1 r15371"><metadata
     id="metadata30"><rdf:RDF><cc:Work
         rdf:about=""><dc:format>image/svg+xml</dc:format><dc:type
           rdf:resource="http://purl.org/dc/dcmitype/StillImage" /><dc:title></dc:title></cc:Work></rdf:RDF></metadata><defs
     id="defs28" /><sodipodi:namedview
     pagecolor="#ffffff"
     bordercolor="#666666"
     borderopacity="1"
     objecttolerance="10"
     gridtolerance="10"
     guidetolerance="10"
     inkscape:pageopacity="0"
     inkscape:pageshadow="2"
     inkscape:window-width="2560"
     inkscape:window-height="1506"
     id="namedview26"
     showgrid="false"
     inkscape:zoom="3.776"
     inkscape:cx="149.66866"
     inkscape:cy="36.644364"
     inkscape:window-x="-11"
     inkscape:window-y="-11"
     inkscape:window-maximized="1"
     inkscape:current-layer="svg24" /><g
     id="g4633"
     transform="matrix(1.1618596,0,0,1.1618596,121.00211,119.0169)"
     style="stroke-width:0.86068916"><g
       id="g12"
       style="fill:none;fill-rule:evenodd;stroke:none;stroke-width:0.86068916"
       transform="translate(-87.713026,-90.656508)"><g
         id="g10"
         style="fill:#000000;fill-rule:nonzero;stroke-width:0.86068916"><path
           id="path6-2"
           d="m 31.43665,32.7 v 3.01 l 8.51,4.91 2.61,-1.5 z m 0,0 v 3.01 l 8.51,4.91 2.61,-1.5 z m 0,0 v 3.01 l 8.51,4.91 2.61,-1.5 z m 15.73,9.08 -2.61,-1.5 -2.61,1.5 1.61,0.93 c 1.976675,1.376342 3.168172,3.621567 3.2,6.03 v 21.8 l 2.19,-1.26 c 0.19,-0.11 0.42,-0.52 0.42,-1.3 V 46.09 c -0.03932,-1.696569 -0.849041,-3.282912 -2.19996,-4.31 z m -15.73,-9.08 v 3.01 l 8.51,4.91 2.61,-1.5 z m 0,0 v 3.01 l 8.51,4.91 2.61,-1.5 z m 0,0 v 3.01 l 8.51,4.91 2.61,-1.5 z m -4.72,-8.57 V 58.6 l 2.72,-1.57 V 22.56 Z m 0,0 V 58.6 l 2.72,-1.57 V 22.56 Z m 0,0 V 58.6 l 2.72,-1.57 V 22.56 Z m 0,42.45 2.41,-1.39 c 0.0052,-0.0057 0.01232,-0.0093 0.02,-0.01 0.03,-0.02 0.04,-0.04 0.07,-0.05 0.1,-0.05 0.22,-0.28 0.22,-0.68 v -5.11 l -2.72,1.57 z m 0,-42.45 V 58.6 l 2.72,-1.57 V 22.56 Z m 0,0 V 58.6 l 2.72,-1.57 V 22.56 Z m -14.54,31.17 c -0.181128,-0.11369 -0.386884,-0.182275 -0.6,-0.2 -0.04844,-0.0018 -0.09657,0.0085 -0.14,0.03 -0.1,0.06 -0.21,0.3 -0.21,0.7 0.101008,1.356874 0.819978,2.59206 1.94995,3.35 0.36005,0.2 0.62,0.23 0.73,0.17 0.11,-0.06 0.21,-0.3 0.21,-0.7 -0.09883,-1.355038 -0.813891,-2.589825 -1.93996,-3.35 z m -0.4,-21.04 v 1 l 0.72,-0.08 z m 0,0 v 1 l 0.72,-0.08 z m 0,1 0.72,-0.08 -0.72,-0.92 z m -7.27,-10.51 v 11.02 l 15.43,8.91 V 33.66 Z m 10.82,11.61 c -0.137652,0.33653 -0.448541,0.570656 -0.81,0.61 l -3.63,0.4 c -0.03611,0.0079 -0.07306,0.01121 -0.11,0.01 -0.248364,0.0022 -0.488133,-0.09084 -0.67,-0.26 -0.2094019,-0.189115 -0.3292394,-0.457842 -0.33,-0.74 v -5 c -0.00122,-0.426863 0.267492,-0.807869 0.67,-0.95 0.402442,-0.141192 0.850056,-0.0081 1.11,0.33 l 3.63,4.59 c 0.228085,0.285633 0.2818,0.673091 0.14002,1.01 z m -3.55,-2.1 v 1 l 0.72,-0.08 z m 0,0 v 1 l 0.72,-0.08 z m 0,0 v 1 l 0.72,-0.08 z m 0,0 v 1 l 0.72,-0.08 z m 0,1 0.72,-0.08 -0.72,-0.92 z m -7.27,-10.51 v 11.02 l 15.43,8.91 V 33.66 Z m 10.82,11.61 c -0.137652,0.33653 -0.448541,0.570656 -0.81,0.61 l -3.63,0.4 c -0.03611,0.0079 -0.07306,0.01121 -0.11,0.01 -0.248364,0.0022 -0.488133,-0.09084 -0.67,-0.26 -0.2094019,-0.189115 -0.3292394,-0.457842 -0.33,-0.74 v -5 c -0.00122,-0.426863 0.267492,-0.807869 0.67,-0.95 0.402442,-0.141192 0.850056,-0.0081 1.11,0.33 l 3.63,4.59 c 0.228085,0.285633 0.2818,0.673091 0.14002,1.01 z m -3.55,-2.1 v 1 l 0.72,-0.08 z m 0,0 v 1 l 0.72,-0.08 z m 0,1 0.72,-0.08 -0.72,-0.92 z m -7.27,-10.51 v 11.02 l 15.43,8.91 V 33.66 Z m 10.82,11.61 c -0.137652,0.33653 -0.448541,0.570656 -0.81,0.61 l -3.63,0.4 c -0.03611,0.0079 -0.07306,0.01121 -0.11,0.01 -0.248364,0.0022 -0.488133,-0.09084 -0.67,-0.26 -0.2094019,-0.189115 -0.3292394,-0.457842 -0.33,-0.74 v -5 c -0.00122,-0.426863 0.267492,-0.807869 0.67,-0.95 0.402442,-0.141192 0.850056,-0.0081 1.11,0.33 l 3.63,4.59 c 0.228085,0.285633 0.2818,0.673091 0.14002,1.01 z m -3.55,-2.1 v 1 l 0.72,-0.08 z m -7.27,1.50995 15.43,8.91 V 33.66 l -15.43,-8.91 z m 5.27,-4.39 c -0.00122,-0.426863 0.267492,-0.807869 0.67,-0.95 0.402442,-0.141192 0.850056,-0.0081 1.11,0.33 l 3.63,4.59 c 0.226348,0.285148 0.280421,0.670554 0.141282,1.006981 -0.13914,0.336426 -0.449645,0.57105 -0.811282,0.613019 l -3.63,0.4 c -0.03611,0.0079 -0.07306,0.01121 -0.11,0.01 -0.248364,0.0022 -0.488133,-0.09084 -0.67,-0.26 -0.2094019,-0.189115 -0.3292394,-0.457842 -0.33,-0.74 z m -9.14,-21.15 V 44.69 l 24.08,13.91 V 24.13 Z m 21.3,36.18 c 6.94e-4,0.358491 -0.1899,0.690126 -0.5,0.87 -0.151602,0.08834 -0.324569,0.133312 -0.5,0.13 -0.175124,7.92e-4 -0.347439,-0.04401 -0.5,-0.13 l -17.43,-10.06 c -0.3101011,-0.179872 -0.5006964,-0.511508 -0.5,-0.87 V 23.02 c -6.923e-4,-0.358491 0.1899019,-0.690125 0.5,-0.87 0.3116634,-0.16998 0.6883366,-0.16998 1,0 l 17.43,10.07 c 0.307614,0.177482 0.497952,0.504863 0.5,0.86 z m -10.16,-12.15 v 1 l 0.72,-0.08 z m 0,1 0.72,-0.08 -0.72,-0.92 z m -7.27,-10.51 V 35.77 l 15.43,8.91 V 33.66 Z m 10.82,11.61 c -0.137652,0.33653 -0.448541,0.570656 -0.81,0.61 l -3.63,0.4 c -0.03611,0.0079 -0.07306,0.01121 -0.11,0.01 -0.248364,0.0022 -0.488133,-0.09084 -0.67,-0.26 -0.2094019,-0.189115 -0.3292394,-0.457842 -0.33,-0.74 v -5 c -0.00122,-0.426863 0.267492,-0.807869 0.67,-0.95 0.402442,-0.141192 0.850056,-0.0081 1.11,0.33 l 3.63,4.59 c 0.228104,0.285644 0.28182,0.673127 0.14002,1.01005 z m -3.55,-2.1 v 1 l 0.72,-0.08 z m 0,0 v 1 l 0.72,-0.08 z m 0,1 0.72,-0.08 -0.72,-0.92 z m -7.27,-10.51 V 35.77 l 15.43,8.91 V 33.66 Z m 10.82,11.61 c -0.137652,0.33653 -0.448541,0.570656 -0.81,0.61 l -3.63,0.4 c -0.03611,0.0079 -0.07306,0.01121 -0.11,0.01 -0.248364,0.0022 -0.488133,-0.09084 -0.67,-0.26 -0.2094019,-0.189115 -0.3292394,-0.457842 -0.33,-0.74 v -5 c -0.00122,-0.426863 0.267492,-0.807869 0.67,-0.95 0.402442,-0.141192 0.850056,-0.0081 1.11,0.33 l 3.63,4.59 c 0.228104,0.285644 0.28182,0.673127 0.14002,1.01005 z m -3.55,-2.1 v 1 l 0.72,-0.08 z m 0,0 v 1 l 0.72,-0.08 z m 0,0 v 1 l 0.72,-0.08 z m 0,1 0.72,-0.08 -0.72,-0.92 z m -7.27,-10.51 V 35.77 l 15.43,8.91 V 33.66 Z m 10.82,11.61 c -0.137652,0.33653 -0.448541,0.570656 -0.81,0.61 l -3.63,0.4 c -0.03611,0.0079 -0.07306,0.01121 -0.11,0.01 -0.248364,0.0022 -0.488133,-0.09084 -0.67,-0.26 -0.2094019,-0.189115 -0.3292394,-0.457842 -0.33,-0.74 v -5 c -0.00122,-0.426863 0.267492,-0.807869 0.67,-0.95 0.402442,-0.141192 0.850056,-0.0081 1.11,0.33 l 3.63,4.59 c 0.228104,0.285644 0.28182,0.673127 0.14002,1.01005 z m -3.55,-2.1 v 1 l 0.72,-0.08 z m 0,0 v 1 l 0.72,-0.08 z m 11.03,-19.07 -21.26,-12.27 c -0.1741872,-0.1128515 -0.3732767,-0.1815031 -0.58,-0.2 -0.0453617,-0.00327 -0.0906578,0.00718 -0.13,0.03 -0.1,0.05 -0.2,0.29 -0.2,0.68 V 7.92 l 24.08,13.9 v -3.34 c -0.09768,-1.331778 -0.801907,-2.544812 -1.91,-3.29 z M 14.3567,13.18 c -0.177138,0.312862 -0.51056,0.504471 -0.87006,0.5 -0.175123,7.86e-4 -0.347437,-0.04401 -0.5,-0.13 l -4.07,-2.35 C 8.6030384,11.022756 8.4085017,10.691018 8.406925,10.330797 8.4053484,9.9705768 8.5969738,9.6371486 8.9090119,9.4571663 9.2210499,9.277184 9.6056192,9.2782655 9.91664,9.46 l 4.07,2.36 c 0.230791,0.129983 0.399863,0.347035 0.469409,0.60262 0.06954,0.255584 0.03376,0.528379 -0.09935,0.75738 z m 3.26,1.89 c -0.180312,0.309659 -0.511669,0.500094 -0.87,0.5 -0.175937,-0.0029 -0.348157,-0.05109 -0.5,-0.14 l -0.81,-0.47 c -0.477726,-0.276142 -0.641142,-0.887274 -0.365,-1.365 0.276142,-0.477726 0.887274,-0.641142 1.365,-0.365 l 0.81,0.47 c 0.231135,0.132237 0.400086,0.351084 0.469508,0.608166 0.06942,0.257081 0.03359,0.531225 -0.09956,0.761834 z m 9.91,-2.6 L 6.26667,0.2 c -0.38,-0.22 -0.62,-0.22 -0.7,-0.18 -0.010999,-0.0013831 -0.022031,0.0022944 -0.03,0.01 l -2.5,1.44 20.77,11.99 c 1.724693,1.10432 2.808832,2.974553 2.91,5.02 v 3.34 l 2.72,-1.56 v -4.5 c -0.09279,-1.333282 -0.798169,-2.548309 -1.90999,-3.29 z m -4.72,2.72 L 1.5467,2.92 C 1.3725128,2.8071485 1.1734233,2.7384969 0.9667,2.72 0.9213383,2.71673 0.8760422,2.72718 0.8367,2.75 c -0.1,0.05 -0.2,0.29 -0.2,0.68 v 4.49 l 24.08,13.9 v -3.34 c -0.09769,-1.331787 -0.801938,-2.544823 -1.91005,-3.29 z m -8.45,-2.01 c -0.177138,0.312862 -0.51056,0.504471 -0.87006,0.5 -0.175123,7.86e-4 -0.347437,-0.04401 -0.5,-0.13 l -4.07,-2.35 C 8.6030384,11.022756 8.4085017,10.691018 8.406925,10.330797 8.4053484,9.9705768 8.5969738,9.6371486 8.9090119,9.4571663 9.2210499,9.277184 9.6056192,9.2782655 9.91664,9.46 l 4.07,2.36 c 0.230791,0.129983 0.399863,0.347035 0.469409,0.60262 0.06954,0.255584 0.03376,0.528379 -0.09935,0.75738 z m 3.26,1.89 c -0.180312,0.309659 -0.511669,0.500094 -0.87,0.5 -0.175937,-0.0029 -0.348157,-0.05109 -0.5,-0.14 l -0.81,-0.47 c -0.477726,-0.276142 -0.641142,-0.887274 -0.365,-1.365 0.276142,-0.477726 0.887274,-0.641142 1.365,-0.365 l 0.81,0.47 c 0.231135,0.132237 0.400086,0.351084 0.469508,0.608166 0.06942,0.257081 0.03359,0.531225 -0.09956,0.761834 z m 9.1,9.06 V 58.6 l 2.72,-1.57 V 22.56 Z m 0,0 V 58.6 l 2.72,-1.57 V 22.56 Z M 27.5267,12.47 6.26667,0.2 c -0.38,-0.22 -0.62,-0.22 -0.7,-0.18 -0.010999,-0.0013831 -0.022031,0.0022944 -0.03,0.01 l -2.5,1.44 20.77,11.99 c 1.724693,1.10432 2.808832,2.974553 2.91,5.02 v 3.34 l 2.72,-1.56 v -4.5 c -0.09279,-1.333282 -0.798169,-2.548309 -1.90999,-3.29 z m -4.72,2.72 L 1.5467,2.92 C 1.3725128,2.8071485 1.1734233,2.7384969 0.9667,2.72 0.9213383,2.71673 0.8760422,2.72718 0.8367,2.75 c -0.1,0.05 -0.2,0.29 -0.2,0.68 v 4.49 l 24.08,13.9 v -3.34 c -0.09769,-1.331787 -0.801938,-2.544823 -1.91005,-3.29 z m -8.45,-2.01 c -0.177138,0.312862 -0.51056,0.504471 -0.87006,0.5 -0.175123,7.86e-4 -0.347437,-0.04401 -0.5,-0.13 l -4.07,-2.35 C 8.6030384,11.022756 8.4085017,10.691018 8.406925,10.330797 8.4053484,9.9705768 8.5969738,9.6371486 8.9090119,9.4571663 9.2210499,9.277184 9.6056192,9.2782655 9.91664,9.46 l 4.07,2.36 c 0.230791,0.129983 0.399863,0.347035 0.469409,0.60262 0.06954,0.255584 0.03376,0.528379 -0.09935,0.75738 z m 3.26,1.89 c -0.180312,0.309659 -0.511669,0.500094 -0.87,0.5 -0.175937,-0.0029 -0.348157,-0.05109 -0.5,-0.14 l -0.81,-0.47 c -0.477726,-0.276142 -0.641142,-0.887274 -0.365,-1.365 0.276142,-0.477726 0.887274,-0.641142 1.365,-0.365 l 0.81,0.47 c 0.231135,0.132237 0.400086,0.351084 0.469508,0.608166 0.06942,0.257081 0.03359,0.531225 -0.09956,0.761834 z m 13.81995,22.95 v 26.43 c -0.0078,0.110601 -0.02115,0.22074 -0.04,0.33 l 7.55,4.37 v -26.8 z m 0,-5.31995 v 3.01 l 8.51,4.91 2.61,-1.5 z m -3.91,-20.23 L 6.26667,0.2 c -0.38,-0.22 -0.62,-0.22 -0.7,-0.18 -0.010999,-0.0013831 -0.022031,0.0022944 -0.03,0.01 l -2.5,1.44 20.77,11.99 c 1.724693,1.10432 2.808832,2.974553 2.91,5.02 v 3.34 l 2.72,-1.56 v -4.5 c -0.09279,-1.333282 -0.798169,-2.548309 -1.90999,-3.29 z m -15.35,42.83 c -0.181128,-0.11369 -0.386884,-0.182275 -0.6,-0.2 -0.04844,-0.0018 -0.09657,0.0085 -0.14,0.03 -0.1,0.06 -0.21,0.3 -0.21,0.7 0.101008,1.356874 0.819978,2.59206 1.94995,3.35 0.36005,0.2 0.62,0.23 0.73,0.17 0.11,-0.06 0.21,-0.3 0.21,-0.7 C 14.01778,57.294994 13.302722,56.060185 12.17664,55.3 Z m -0.4,-21.04 v 1 l 0.72,-0.08 z m 0,0 v 1 l 0.72,-0.08 z m 0,1 0.72,-0.08 -0.72,-0.92 z m -7.27,-10.51 V 35.77 l 15.43,8.91 V 33.66 Z m 10.82,11.61 c -0.137652,0.33653 -0.448541,0.570656 -0.81,0.61 l -3.63,0.4 c -0.03611,0.0079 -0.07306,0.01121 -0.11,0.01 -0.248364,0.0022 -0.488133,-0.09084 -0.67,-0.26 -0.2094019,-0.189115 -0.3292394,-0.457842 -0.33,-0.74 v -5 c -0.00122,-0.426863 0.267492,-0.807869 0.67,-0.95 0.402442,-0.141192 0.850056,-0.0081 1.11,0.33 l 3.63,4.59 c 0.228066,0.285622 0.28178,0.673055 0.14002,1.00995 z m -3.55,-2.1 v 1 l 0.72,-0.08 z m 0,0 v 1 l 0.72,-0.08 z m 0,0 v 1 l 0.72,-0.08 z m 0,0 v 1 l 0.72,-0.08 z m 0,1 0.72,-0.08 -0.72,-0.92 z m -7.27,-10.51 V 35.77 l 15.43,8.91 V 33.66 Z m 10.82,11.61 c -0.137652,0.33653 -0.448541,0.570656 -0.81,0.61 l -3.63,0.4 c -0.03611,0.0079 -0.07306,0.01121 -0.11,0.01 -0.248364,0.0022 -0.488133,-0.09084 -0.67,-0.26 -0.2094019,-0.189115 -0.3292394,-0.457842 -0.33,-0.74 v -5 c -0.00122,-0.426863 0.267492,-0.807869 0.67,-0.95 0.402442,-0.141192 0.850056,-0.0081 1.11,0.33 l 3.63,4.59 c 0.228066,0.285622 0.28178,0.673055 0.14002,1.00995 z m -3.55,-2.1 v 1 l 0.72,-0.08 z m 0,0 v 1 l 0.72,-0.08 z m 0,1 0.72,-0.08 -0.72,-0.92 z m -7.27,-10.51 V 35.77 l 15.43,8.91 V 33.66 Z m 10.82,11.61 c -0.137652,0.33653 -0.448541,0.570656 -0.81,0.61 l -3.63,0.4 c -0.03611,0.0079 -0.07306,0.01121 -0.11,0.01 -0.248364,0.0022 -0.488133,-0.09084 -0.67,-0.26 -0.2094019,-0.189115 -0.3292394,-0.457842 -0.33,-0.74 v -5 c -0.00122,-0.426863 0.267492,-0.807869 0.67,-0.95 0.402442,-0.141192 0.850056,-0.0081 1.11,0.33 l 3.63,4.59 c 0.228066,0.285622 0.28178,0.673055 0.14002,1.00995 z m -3.55,-2.1 v 1 l 0.72,-0.08 z m -7.27,1.50995 15.43,8.91 V 33.66 l -15.43,-8.91 z m 5.27,-4.39 c -0.00122,-0.426863 0.267492,-0.807869 0.67,-0.95 0.402442,-0.141192 0.850056,-0.0081 1.11,0.33 l 3.63,4.59 c 0.226348,0.285148 0.280421,0.670554 0.141282,1.006981 -0.13914,0.336426 -0.449645,0.57105 -0.811282,0.613019 l -3.63,0.4 c -0.03611,0.0079 -0.07306,0.01121 -0.11,0.01 -0.248364,0.0022 -0.488133,-0.09084 -0.67,-0.26 -0.2094019,-0.189115 -0.3292394,-0.457842 -0.33,-0.74 z m -9.14,-21.15 v 34.46 l 24.08,13.91 V 24.13 Z m 21.3,36.18 c 6.94e-4,0.358491 -0.1899,0.690126 -0.5,0.87 -0.151602,0.08834 -0.324569,0.133312 -0.5,0.13 -0.175124,7.92e-4 -0.347439,-0.04401 -0.5,-0.13 l -17.43,-10.06 c -0.3101011,-0.179873 -0.5006964,-0.511508 -0.5,-0.87 V 23.02 c -6.923e-4,-0.358491 0.1899019,-0.690125 0.5,-0.87 0.3116634,-0.16998 0.6883366,-0.16998 1,0 l 17.43,10.07 c 0.307614,0.177482 0.497952,0.504863 0.5,0.86 z m -10.16,-12.15 v 1 l 0.72,-0.08 z m 0,1 0.72,-0.08 -0.72,-0.92 z m -7.27,-10.51 v 11.02 l 15.43,8.91 V 33.66 Z m 10.82,11.61 c -0.137652,0.33653 -0.448541,0.570656 -0.81,0.61 l -3.63,0.4 c -0.03611,0.0079 -0.07306,0.01121 -0.11,0.01 -0.248364,0.0022 -0.488133,-0.09084 -0.67,-0.26 -0.2094019,-0.189115 -0.3292394,-0.457842 -0.33,-0.74 v -5 c -0.00122,-0.426863 0.267492,-0.807869 0.67,-0.95 0.402442,-0.141192 0.850056,-0.0081 1.11,0.33 l 3.63,4.59 c 0.228085,0.285633 0.2818,0.673091 0.14002,1.01 z m -3.55,-2.1 v 1 l 0.72,-0.08 z m 0,0 v 1 l 0.72,-0.08 z m 0,1 0.72,-0.08 -0.72,-0.92 z m -7.27,-10.51 v 11.02 l 15.43,8.91 V 33.66 Z m 10.82,11.61 c -0.137652,0.33653 -0.448541,0.570656 -0.81,0.61 l -3.63,0.4 c -0.03611,0.0079 -0.07306,0.01121 -0.11,0.01 -0.248364,0.0022 -0.488133,-0.09084 -0.67,-0.26 -0.2094019,-0.189115 -0.3292394,-0.457842 -0.33,-0.74 v -5 c -0.00122,-0.426863 0.267492,-0.807869 0.67,-0.95 0.402442,-0.141192 0.850056,-0.0081 1.11,0.33 l 3.63,4.59 c 0.228085,0.285633 0.2818,0.673091 0.14002,1.01 z m -3.55,-2.1 v 1 l 0.72,-0.08 z m 0.4,21.04 c -0.181128,-0.11369 -0.386884,-0.182275 -0.6,-0.2 -0.04844,-0.0018 -0.09657,0.0085 -0.14,0.03 -0.1,0.06 -0.21,0.3 -0.21,0.7 0.101008,1.356874 0.819978,2.59206 1.94995,3.35 0.36005,0.2 0.62,0.23 0.73,0.17 0.11,-0.06 0.21,-0.3 0.21,-0.7 -0.09883,-1.355038 -0.813891,-2.589825 -1.93996,-3.35 z m -0.4,-20.04 0.72,-0.08 -0.72,-0.92 z m -7.27,-10.51 v 11.02 l 15.43,8.91 V 33.66 Z m 10.82,11.61 c -0.137652,0.33653 -0.448541,0.570656 -0.81,0.61 l -3.63,0.4 c -0.03611,0.0079 -0.07306,0.01121 -0.11,0.01 -0.248364,0.0022 -0.488133,-0.09084 -0.67,-0.26 -0.2094019,-0.189115 -0.3292394,-0.457842 -0.33,-0.74 v -5 c -0.00122,-0.426863 0.267492,-0.807869 0.67,-0.95 0.402442,-0.141192 0.850056,-0.0081 1.11,0.33 l 3.63,4.59 c 0.228085,0.285633 0.2818,0.673091 0.14002,1.01 z m -3.55,-2.1 v 1 l 0.72,-0.08 z m -7.27,1.50995 15.43,8.91 V 33.66 l -15.43,-8.91 z m 5.27,-4.39 c -0.00122,-0.426863 0.267492,-0.807869 0.67,-0.95 0.402442,-0.141192 0.850056,-0.0081 1.11,0.33 l 3.63,4.59 c 0.226348,0.285148 0.280421,0.670554 0.141282,1.006981 -0.13914,0.336426 -0.449645,0.57105 -0.811282,0.613019 l -3.63,0.4 c -0.03611,0.0079 -0.07306,0.01121 -0.11,0.01 -0.248364,0.0022 -0.488133,-0.09084 -0.67,-0.26 -0.2094019,-0.189115 -0.3292394,-0.457842 -0.33,-0.74 z m -9.14,-21.15 V 44.69 l 24.08,13.91 V 24.13 Z m 21.3,36.18 c 6.94e-4,0.358491 -0.1899,0.690126 -0.5,0.87 -0.151602,0.08834 -0.324569,0.133312 -0.5,0.13 -0.175124,7.92e-4 -0.347439,-0.04401 -0.5,-0.13 l -17.43,-10.06 c -0.3101011,-0.179872 -0.5006964,-0.511508 -0.5,-0.87 V 23.02 c -6.923e-4,-0.358491 0.1899019,-0.690125 0.5,-0.87 0.3116634,-0.16998 0.6883366,-0.16998 1,0 l 17.43,10.07 c 0.307614,0.177482 0.497952,0.504863 0.5,0.86 z m -9.76,8.89 c -0.181128,-0.11369 -0.386884,-0.182275 -0.6,-0.2 -0.04844,-0.0018 -0.09657,0.0085 -0.14,0.03 -0.1,0.06 -0.21,0.3 -0.21,0.7 0.101008,1.356874 0.819978,2.59206 1.94995,3.35 0.36005,0.2 0.62,0.23 0.73,0.17 0.11,-0.06 0.21,-0.3 0.21,-0.7 C 14.01775,57.29493 13.302696,56.060164 12.17664,55.3 Z m 3.94,3.35 c 0.06882,0.969819 -0.394593,1.900476 -1.21,2.43 -0.34264,0.200267 -0.733145,0.303941 -1.13,0.3 -0.565107,-0.01501 -1.116551,-0.177002 -1.6,-0.47 -1.746566,-1.11703 -2.8454706,-3.009412 -2.94995,-5.08 -0.066372,-0.972061 0.3960281,-1.904503 1.21,-2.44 0.259351,-0.132644 0.540534,-0.217338 0.83,-0.25 L 0.63667,47 v 5.11 c 0.0949998,1.335287 0.7994934,2.552475 1.91,3.3 l 9.6,5.54 h 0.01 l 11.65,6.73 c 0.19877,0.145502 0.445483,0.209862 0.69,0.18 l 0.03,-0.02 c 0.148753,-0.189771 0.216989,-0.430391 0.19,-0.67 v -6.26 l -9.77,-5.64 c 0.714236,0.986919 1.121237,2.162722 1.16998,3.38 z m -2.94,0.53 c 0.36005,0.2 0.62,0.23 0.73,0.17 0.11,-0.06 0.21,-0.3 0.21,-0.7 -0.09884,-1.355045 -0.813916,-2.589834 -1.94,-3.35 -0.181128,-0.11369 -0.386884,-0.182275 -0.6,-0.2 -0.04844,-0.0018 -0.09657,0.0085 -0.14,0.03 -0.1,0.06 -0.21,0.3 -0.21,0.7 0.101002,1.356899 0.81999,2.592108 1.94999,3.35005 z m -12.54,-48.95 V 44.69 l 24.08,13.91 V 24.13 Z m 21.3,36.18 c 6.94e-4,0.358491 -0.1899,0.690126 -0.5,0.87 -0.151602,0.08834 -0.324569,0.133312 -0.5,0.13 -0.175124,7.92e-4 -0.347439,-0.04401 -0.5,-0.13 l -17.43,-10.06 c -0.3101011,-0.179872 -0.5006964,-0.511508 -0.5,-0.87 V 23.02 c -6.923e-4,-0.358491 0.1899019,-0.690125 0.5,-0.87 0.3116634,-0.16998 0.6883366,-0.16998 1,0 l 17.43,10.07 c 0.307614,0.177482 0.497952,0.504863 0.5,0.86 z m -9.76,8.89 c -0.181128,-0.11369 -0.386884,-0.182275 -0.6,-0.2 -0.04844,-0.0018 -0.09657,0.0085 -0.14,0.03 -0.1,0.06 -0.21,0.3 -0.21,0.7 0.101008,1.356874 0.819978,2.59206 1.94995,3.35 0.36005,0.2 0.62,0.23 0.73,0.17 0.11,-0.06 0.21,-0.3 0.21,-0.7 C 14.01775,57.29493 13.302696,56.060164 12.17664,55.3 Z m -0.4,-20.04 0.72,-0.08 -0.72,-0.92 z m -7.27,-10.51 V 35.77 l 15.43,8.91 V 33.66 Z m 10.82,11.61 c -0.137652,0.33653 -0.448541,0.570656 -0.81,0.61 l -3.63,0.4 c -0.03611,0.0079 -0.07306,0.01121 -0.11,0.01 -0.248364,0.0022 -0.488133,-0.09084 -0.67,-0.26 -0.2094019,-0.189115 -0.3292394,-0.457842 -0.33,-0.74 v -5 c -0.00122,-0.426863 0.267492,-0.807869 0.67,-0.95 0.402442,-0.141192 0.850056,-0.0081 1.11,0.33 l 3.63,4.59 c 0.228104,0.285644 0.28182,0.673127 0.14002,1.01005 z m -3.55,-2.1 v 1 l 0.72,-0.08 z m -7.27,1.50995 15.43,8.91 V 33.66 l -15.43,-8.91 z m 5.27,-4.39 c -0.00122,-0.426863 0.267492,-0.807869 0.67,-0.95 0.402442,-0.141192 0.850056,-0.0081 1.11,0.33 l 3.63,4.59 c 0.226348,0.285148 0.280421,0.670554 0.141282,1.006981 -0.13914,0.336426 -0.449645,0.57105 -0.811282,0.613019 l -3.63,0.4 c -0.03611,0.0079 -0.07306,0.01121 -0.11,0.01 -0.248364,0.0022 -0.488133,-0.09084 -0.67,-0.26 -0.2094019,-0.189115 -0.3292394,-0.457842 -0.33,-0.74 z m -9.14,-21.15 V 44.69 l 24.08,13.91 V 24.13 Z m 21.3,36.18 c 6.94e-4,0.358491 -0.1899,0.690126 -0.5,0.87 -0.151602,0.08834 -0.324569,0.133312 -0.5,0.13 -0.175124,7.92e-4 -0.347439,-0.04401 -0.5,-0.13 l -17.43,-10.06 c -0.3101011,-0.179873 -0.5006964,-0.511508 -0.5,-0.87 V 23.02 c -6.923e-4,-0.358491 0.1899019,-0.690125 0.5,-0.87 0.3116634,-0.16998 0.6883366,-0.16998 1,0 l 17.43,10.07 c 0.307614,0.177482 0.497952,0.504863 0.5,0.86 z m -10.16,-12.15 v 1 l 0.72,-0.08 z m 0,1 0.72,-0.08 -0.72,-0.92 z m -7.27,-10.51 V 35.77 l 15.43,8.91 V 33.66 Z m 10.82,11.61 c -0.137652,0.33653 -0.448541,0.570656 -0.81,0.61 l -3.63,0.4 c -0.03611,0.0079 -0.07306,0.01121 -0.11,0.01 -0.248364,0.0022 -0.488133,-0.09084 -0.67,-0.26 -0.2094019,-0.189115 -0.3292394,-0.457842 -0.33,-0.74 v -5 c -0.00122,-0.426863 0.267492,-0.807869 0.67,-0.95 0.402442,-0.141192 0.850056,-0.0081 1.11,0.33 l 3.63,4.59 c 0.228124,0.285655 0.28184,0.673163 0.14002,1.0101 z m -3.55,-2.1 v 1 l 0.72,-0.08 z m 0,0 v 1 l 0.72,-0.08 z m 0,1 0.72,-0.08 -0.72,-0.92 z m -7.27,-10.51 V 35.77 l 15.43,8.91 V 33.66 Z m 10.82,11.61 c -0.137652,0.33653 -0.448541,0.570656 -0.81,0.61 l -3.63,0.4 c -0.03611,0.0079 -0.07306,0.01121 -0.11,0.01 -0.248364,0.0022 -0.488133,-0.09084 -0.67,-0.26 -0.2094019,-0.189115 -0.3292394,-0.457842 -0.33,-0.74 v -5 c -0.00122,-0.426863 0.267492,-0.807869 0.67,-0.95 0.402442,-0.141192 0.850056,-0.0081 1.11,0.33 l 3.63,4.59 c 0.228124,0.285655 0.28184,0.673163 0.14002,1.0101 z m -3.55,-2.1 v 1 l 0.72,-0.08 z m 0.4,21.04 c -0.181128,-0.11369 -0.386884,-0.182275 -0.6,-0.2 -0.04844,-0.0018 -0.09657,0.0085 -0.14,0.03 -0.1,0.06 -0.21,0.3 -0.21,0.7 0.101008,1.356874 0.819978,2.59206 1.94995,3.35 0.36005,0.2 0.62,0.23 0.73,0.17 0.11,-0.06 0.21,-0.3 0.21,-0.7 C 14.01774,57.294898 13.302683,56.060153 12.17664,55.3 Z m -0.4,-21.04 v 1 l 0.72,-0.08 z m 0,0 v 1 l 0.72,-0.08 z m 0,1 0.72,-0.08 -0.72,-0.92 z m -7.27,-10.51 V 35.77 l 15.43,8.91 V 33.66 Z m 10.82,11.61 c -0.137652,0.33653 -0.448541,0.570656 -0.81,0.61 l -3.63,0.4 c -0.03611,0.0079 -0.07306,0.01121 -0.11,0.01 -0.248364,0.0022 -0.488133,-0.09084 -0.67,-0.26 -0.2094019,-0.189115 -0.3292394,-0.457842 -0.33,-0.74 v -5 c -0.00122,-0.426863 0.267492,-0.807869 0.67,-0.95 0.402442,-0.141192 0.850056,-0.0081 1.11,0.33 l 3.63,4.59 c 0.228124,0.285655 0.28184,0.673163 0.14002,1.0101 z m -3.55,-2.1 v 1 l 0.72,-0.08 z m 0,0 v 1 l 0.72,-0.08 z m 0,0 v 1 l 0.72,-0.08 z m 0,0 v 1 l 0.72,-0.08 z m 0,1 0.72,-0.08 -0.72,-0.92 z m -7.27,-10.51 V 35.77 l 15.43,8.91 V 33.66 Z m 10.82,11.61 c -0.137652,0.33653 -0.448541,0.570656 -0.81,0.61 l -3.63,0.4 c -0.03611,0.0079 -0.07306,0.01121 -0.11,0.01 -0.248364,0.0022 -0.488133,-0.09084 -0.67,-0.26 -0.2094019,-0.189115 -0.3292394,-0.457842 -0.33,-0.74 v -5 c -0.00122,-0.426863 0.267492,-0.807869 0.67,-0.95 0.402442,-0.141192 0.850056,-0.0081 1.11,0.33 l 3.63,4.59 c 0.228124,0.285655 0.28184,0.673163 0.14002,1.0101 z m -3.55,-2.1 v 1 l 0.72,-0.08 z m 0,0 v 1 l 0.72,-0.08 z m 0,1 0.72,-0.08 -0.72,-0.92 z m -7.27,-10.51 V 35.77 l 15.43,8.91 V 33.66 Z m 10.82,11.61 c -0.137652,0.33653 -0.448541,0.570656 -0.81,0.61 l -3.63,0.4 c -0.03611,0.0079 -0.07306,0.01121 -0.11,0.01 -0.248364,0.0022 -0.488133,-0.09084 -0.67,-0.26 -0.2094019,-0.189115 -0.3292394,-0.457842 -0.33,-0.74 v -5 c -0.00122,-0.426863 0.267492,-0.807869 0.67,-0.95 0.402442,-0.141192 0.850056,-0.0081 1.11,0.33 l 3.63,4.59 c 0.228124,0.285655 0.28184,0.673163 0.14002,1.0101 z m -3.55,-2.1 v 1 l 0.72,-0.08 z m -7.27,1.50995 15.43,8.91 V 33.66 l -15.43,-8.91 z m 5.27,-4.39 c -0.00122,-0.426863 0.267492,-0.807869 0.67,-0.95 0.402442,-0.141192 0.850056,-0.0081 1.11,0.33 l 3.63,4.59 c 0.226348,0.285148 0.280421,0.670554 0.141282,1.006981 -0.13914,0.336426 -0.449645,0.57105 -0.811282,0.613019 l -3.63,0.4 c -0.03611,0.0079 -0.07306,0.01121 -0.11,0.01 -0.248364,0.0022 -0.488133,-0.09084 -0.67,-0.26 -0.2094019,-0.189115 -0.3292394,-0.457842 -0.33,-0.74 z m -9.14,-21.15 V 44.69 l 24.08,13.91 V 24.13 Z m 21.3,36.18 c 6.94e-4,0.358491 -0.1899,0.690126 -0.5,0.87 -0.151602,0.08834 -0.324569,0.133312 -0.5,0.13 -0.175124,7.92e-4 -0.347439,-0.04401 -0.5,-0.13 l -17.43,-10.06 c -0.3101011,-0.179873 -0.5006964,-0.511508 -0.5,-0.87 V 23.02 c -6.923e-4,-0.358491 0.1899019,-0.690125 0.5,-0.87 0.3116634,-0.16998 0.6883366,-0.16998 1,0 l 17.43,10.07 c 0.307614,0.177482 0.497952,0.504863 0.5,0.86 z m -10.16,-12.15 v 1 l 0.72,-0.08 z m 0,1 0.72,-0.08 -0.72,-0.92 z m -7.27,-10.51 V 35.77 l 15.43,8.91 V 33.66 Z m 10.82,11.61 c -0.137652,0.33653 -0.448541,0.570656 -0.81,0.61 l -3.63,0.4 c -0.03611,0.0079 -0.07306,0.01121 -0.11,0.01 -0.248364,0.0022 -0.488133,-0.09084 -0.67,-0.26 -0.2094019,-0.189115 -0.3292394,-0.457842 -0.33,-0.74 v -5 c -0.00122,-0.426863 0.267492,-0.807869 0.67,-0.95 0.402442,-0.141192 0.850056,-0.0081 1.11,0.33 l 3.63,4.59 c 0.228143,0.285666 0.28186,0.6732 0.14002,1.01015 z m -3.55,-2.1 v 1 l 0.72,-0.08 z m 0,0 v 1 l 0.72,-0.08 z m 0,1 0.72,-0.08 -0.72,-0.92 z m -7.27,-10.51 V 35.77 l 15.43,8.91 V 33.66 Z m 10.82,11.61 c -0.137652,0.33653 -0.448541,0.570656 -0.81,0.61 l -3.63,0.4 c -0.03611,0.0079 -0.07306,0.01121 -0.11,0.01 -0.248364,0.0022 -0.488133,-0.09084 -0.67,-0.26 -0.2094019,-0.189115 -0.3292394,-0.457842 -0.33,-0.74 v -5 c -0.00122,-0.426863 0.267492,-0.807869 0.67,-0.95 0.402442,-0.141192 0.850056,-0.0081 1.11,0.33 l 3.63,4.59 c 0.228143,0.285666 0.28186,0.6732 0.14002,1.01015 z m -3.55,-2.1 v 1 l 0.72,-0.08 z m 0,0 v 1 l 0.72,-0.08 z m 0,0 v 1 l 0.72,-0.08 z m 0,1 0.72,-0.08 -0.72,-0.92 z m -7.27,-10.51 V 35.77 l 15.43,8.91 V 33.66 Z m 10.82,11.61 c -0.137652,0.33653 -0.448541,0.570656 -0.81,0.61 l -3.63,0.4 c -0.03611,0.0079 -0.07306,0.01121 -0.11,0.01 -0.248364,0.0022 -0.488133,-0.09084 -0.67,-0.26 -0.2094019,-0.189115 -0.3292394,-0.457842 -0.33,-0.74 v -5 c -0.00122,-0.426863 0.267492,-0.807869 0.67,-0.95 0.402442,-0.141192 0.850056,-0.0081 1.11,0.33 l 3.63,4.59 c 0.228143,0.285666 0.28186,0.6732 0.14002,1.01015 z m -3.55,-2.1 v 1 l 0.72,-0.08 z m 0,0 v 1 l 0.72,-0.08 z m 0,0 v 1 l 0.72,-0.08 z m 0,0 v 1 l 0.72,-0.08 z m 0,1 0.72,-0.08 -0.72,-0.92 z m -7.27,-10.51 V 35.77 l 15.43,8.91 V 33.66 Z m 10.82,11.61 c -0.137652,0.33653 -0.448541,0.570656 -0.81,0.61 l -3.63,0.4 c -0.03611,0.0079 -0.07306,0.01121 -0.11,0.01 -0.248364,0.0022 -0.488133,-0.09084 -0.67,-0.26 -0.2094019,-0.189115 -0.3292394,-0.457842 -0.33,-0.74 v -5 c -0.00122,-0.426863 0.267492,-0.807869 0.67,-0.95 0.402442,-0.141192 0.850056,-0.0081 1.11,0.33 l 3.63,4.59 c 0.228143,0.285666 0.28186,0.6732 0.14002,1.01015 z m -3.55,-2.1 v 1 l 0.72,-0.08 z m 0,0 v 1 l 0.72,-0.08 z m 30.78,10.18 -1.61,-0.93 V 70.3 l 2.61,1.51 c 0.20522,0.147573 0.460198,0.208624 0.71,0.17 l 0.13,-0.08 c 0.281571,-0.356018 0.410975,-0.808915 0.36,-1.25995 V 48.74 c -0.03735,-1.694303 -0.847818,-3.278403 -2.2,-4.3 z m 0.76,17.51 c 0,0.552285 -0.447715,1 -1,1 -0.552285,0 -1,-0.447715 -1,-1 v -0.91 c 0,-0.552285 0.447715,-1 1,-1 0.552285,0 1,0.447715 1,1 z m 0,-3.64 c 0,0.552285 -0.447715,1 -1,1 -0.552285,0 -1,-0.447715 -1,-1 V 54.15 c 0,-0.552285 0.447715,-1 1,-1 0.552285,0 1,0.447715 1,1 z"
           inkscape:connector-curvature="0"
           style="stroke-width:0.86068916" /><path
           id="path8-4"
           d="m 42.28669,27.45 1.49,-0.55 c 0.275722,-0.09459 0.495309,-0.306569 0.599562,-0.578785 C 44.480505,26.049 44.458691,25.74457 44.31669,25.49 c -2.131036,-3.967673 -5.327765,-7.261378 -9.23,-9.51 l -0.04,-2.5 1.38,0.8 c 3.354108,1.934279 6.143273,4.713101 8.09,8.06 l 2.03,3.48 c 0.279567,0.470451 0.884292,0.630526 1.36,0.36 l 1.18,-0.67 0.51,7.99 z m 7.2,-4.47 -1.71,0.97 -1.53,-2.62 c -2.126365,-3.646543 -5.166234,-6.676071 -8.82,-8.79 l -1.38,-0.79 2.33,-1.35 2.38,1.38 c 3.352676,1.939559 6.143868,4.716967 8.1,8.06 l 1.52,2.62 z m 2.15,11.1 -0.62,-9.68 1.22,-0.7 c 0.01,0 0.01,0 0.01,-0.01 h 0.01 l 1.15,-0.67 0.62,9.68 z"
           inkscape:connector-curvature="0"
           style="stroke-width:0.86068916" /></g></g></g></svg>