<?xml version="1.0" encoding="UTF-8" standalone="no"?>
<svg
   xmlns:dc="http://purl.org/dc/elements/1.1/"
   xmlns:cc="http://creativecommons.org/ns#"
   xmlns:rdf="http://www.w3.org/1999/02/22-rdf-syntax-ns#"
   xmlns:svg="http://www.w3.org/2000/svg"
   xmlns="http://www.w3.org/2000/svg"
   xmlns:xlink="http://www.w3.org/1999/xlink"
   xmlns:sodipodi="http://sodipodi.sourceforge.net/DTD/sodipodi-0.dtd"
   xmlns:inkscape="http://www.inkscape.org/namespaces/inkscape"
   version="1.1"
   x="0px"
   y="0px"
   viewBox="0 0 100 100"
   enable-background="new 0 0 100 100"
   xml:space="preserve"
   id="svg24"
   sodipodi:docname="dvdplayer.svg"
   width="100"
   height="100"
   inkscape:version="0.92.1 r15371"><metadata
     id="metadata30"><rdf:RDF><cc:Work
         rdf:about=""><dc:format>image/svg+xml</dc:format><dc:type
           rdf:resource="http://purl.org/dc/dcmitype/StillImage" /><dc:title></dc:title></cc:Work></rdf:RDF></metadata><defs
     id="defs28"><linearGradient
       inkscape:collect="always"
       id="linearGradient4520"><stop
         style="stop-color:#000000;stop-opacity:1;"
         offset="0"
         id="stop4516" /><stop
         style="stop-color:#000000;stop-opacity:0;"
         offset="1"
         id="stop4518" /></linearGradient><linearGradient
       inkscape:collect="always"
       xlink:href="#linearGradient4520"
       id="linearGradient4522"
       x1="-11.83949"
       y1="182.69664"
       x2="121.18661"
       y2="182.69664"
       gradientUnits="userSpaceOnUse" /></defs><sodipodi:namedview
     pagecolor="#ffffff"
     bordercolor="#666666"
     borderopacity="1"
     objecttolerance="10"
     gridtolerance="10"
     guidetolerance="10"
     inkscape:pageopacity="0"
     inkscape:pageshadow="2"
     inkscape:window-width="2560"
     inkscape:window-height="1506"
     id="namedview26"
     showgrid="false"
     inkscape:zoom="1.888"
     inkscape:cx="260.54031"
     inkscape:cy="-133.35379"
     inkscape:window-x="-11"
     inkscape:window-y="-11"
     inkscape:window-maximized="1"
     inkscape:current-layer="svg24" /><path
     inkscape:connector-curvature="0"
     style="color:#000000;fill:#000000;fill-opacity:1;stroke-width:0.99999988"
     d="m 52.345534,38.636105 c -6.44333,0 -11.66667,5.223329 -11.66667,11.666664 0,6.443317 5.22334,11.666664 11.66667,11.666664 6.44333,0 11.66667,-5.223347 11.66667,-11.666664 0,-6.443335 -5.22334,-11.666664 -11.66667,-11.666664 z m 0,7.000009 c 2.57735,0 4.66669,2.089338 4.66669,4.666655 0,2.577351 -2.08934,4.666689 -4.66669,4.666689 -2.57732,0 -4.66665,-2.089338 -4.66665,-4.666689 0,-2.577317 2.08933,-4.666655 4.66665,-4.666655 z"
     id="path2-03" /><path
     inkscape:connector-curvature="0"
     style="color:#000000;fill:#000000;fill-opacity:1;stroke:none;stroke-width:1.00157475;stroke-miterlimit:4;stroke-dasharray:none;stroke-opacity:1"
     d="m 52.345534,15.302762 c -19.32998,0 -34.99999,15.670021 -34.99999,35.000007 0,4.910374 1.01826,9.58874 2.84376,13.829857 l 19.83332,-9.041655 c -0.57645,-1.484053 -0.89932,-3.100424 -0.89932,-4.788202 0,-7.302434 5.9198,-13.222226 13.22223,-13.222226 1.79068,0 3.49807,0.375969 5.05557,1.020832 l 9.52777,-19.614571 c -4.44084,-2.039094 -9.37673,-3.184042 -14.58334,-3.184042 z"
     id="path4" /><path
     inkscape:connector-curvature="0"
     style="color:#000000;fill:#000000;fill-opacity:1;stroke-width:0.99999988"
     d="m 68.314294,19.16734 -9.50347,19.614601 c 1.49935,0.84362 2.82475,1.96694 3.88888,3.305556 l 17.81598,-12.565983 c -3.19704,-4.328108 -7.38051,-7.875423 -12.20139,-10.354174 z"
     id="path6-2" /><path
     inkscape:connector-curvature="0"
     style="color:#000000;fill:#000000;fill-opacity:1;stroke-width:0.99999988"
     d="m 81.390684,30.785406 -17.81598,12.565983 c 0.15897,0.25609 0.32025,0.510356 0.46181,0.777756 l 19.83333,-9.065979 c -0.72154,-1.489125 -1.5619,-2.915497 -2.47916,-4.27776 z"
     id="path8" /><path
     inkscape:connector-curvature="0"
     style="color:#000000;fill:#000000;fill-opacity:1;stroke:none;stroke-width:1.00157475;stroke-miterlimit:4;stroke-dasharray:none;stroke-opacity:1"
     d="m 84.501794,36.472894 -19.83334,9.04169 c 0.57644,1.484018 0.89931,3.100389 0.89931,4.788185 0,7.302434 -5.9198,13.222227 -13.22223,13.222227 -1.79067,0 -3.49807,-0.375988 -5.05554,-1.020852 l -9.52777,19.614604 c 4.44083,2.039079 9.3767,3.184013 14.58331,3.184013 19.32998,0 35.00001,-15.670024 35.00001,-34.999992 0,-4.91034 -1.01825,-9.588757 -2.84375,-13.829875 z"
     id="path10-6" /><path
     inkscape:connector-curvature="0"
     style="color:#000000;fill:#000000;fill-opacity:1;stroke-width:0.99999988"
     d="m 36.376784,81.438184 9.50349,-19.614585 c -1.49937,-0.843639 -2.82475,-1.966908 -3.88889,-3.305541 l -17.81599,12.56595 c 3.19705,4.328162 7.38051,7.875439 12.20139,10.354176 z"
     id="path12" /><path
     inkscape:connector-curvature="0"
     style="color:#000000;fill:#000000;fill-opacity:1;stroke-width:0.99999988"
     d="m 23.300394,69.820131 17.81599,-12.565948 c -0.15897,-0.25609 -0.3202,-0.510408 -0.46184,-0.777808 l -19.83332,9.06598 c 0.72153,1.489126 1.5619,2.915551 2.47917,4.277776 z"
     id="path14-9" /><rect
     style="opacity:0.95;fill:#f5f5f5;fill-opacity:1;stroke:#000000;stroke-width:0.324;stroke-miterlimit:4;stroke-dasharray:none;stroke-opacity:1"
     id="rect4526"
     width="89.376381"
     height="26.919577"
     x="5.2887936"
     y="70.578529"
     ry="9.2690678"
     rx="9.2690678" /><rect
     rx="9.2690687"
     ry="9.2690678"
     y="72.138969"
     x="8.3548107"
     height="23.859219"
     width="84.245232"
     id="rect4528"
     style="opacity:0.95;fill:#ebebeb;fill-opacity:1;stroke:#000000;stroke-width:0.62362206;stroke-miterlimit:4;stroke-dasharray:none;stroke-opacity:1" /><text
     style="font-style:normal;font-variant:normal;font-weight:bold;font-stretch:normal;font-size:24px;font-family:'Helvetica Neue', Helvetica, Arial-Unicode, Arial, Sans-serif;-inkscape-font-specification:'Helvetica Neue, Helvetica, Arial-Unicode, Arial, Sans-serif, Bold';font-variant-ligatures:normal;font-variant-caps:normal;font-variant-numeric:normal;font-feature-settings:normal;text-align:start;writing-mode:lr-tb;text-anchor:start;fill:#000000;fill-opacity:1;stroke-width:1.00000012"
     x="27.346668"
     y="92.226723"
     font-size="5px"
     font-weight="bold"
     id="text8"
     transform="scale(1.0018898,0.99811377)"><tspan
       style="font-style:normal;font-variant:normal;font-weight:bold;font-stretch:normal;font-size:24px;font-family:'Helvetica Neue', Helvetica, Arial-Unicode, Arial, Sans-serif;-inkscape-font-specification:'Helvetica Neue, Helvetica, Arial-Unicode, Arial, Sans-serif, Bold';font-variant-ligatures:normal;font-variant-caps:normal;font-variant-numeric:normal;font-feature-settings:normal;text-align:start;writing-mode:lr-tb;text-anchor:start;fill:#000000;fill-opacity:1;stroke-width:1.00000012"
       id="tspan6304">DVD</tspan></text>
<path
     inkscape:connector-curvature="0"
     d="m 90.939867,3.5138648 h -16.55578 c -2.32256,0 -4.22211,1.899551 -4.22211,4.222108 V 24.291758 c 0,2.32206 1.89955,4.222107 4.22211,4.222107 h 16.55578 c 2.32206,0 4.22211,-1.900047 4.22211,-4.222107 V 7.7359728 c 0,-2.322557 -1.90005,-4.222108 -4.22211,-4.222108 z M 78.937347,21.812809 V 10.214922 l 9.68245,5.798943 z"
     id="path2-0"
     style="stroke-width:0.99999994;stroke:#ffffff;stroke-opacity:1" /></svg>