<?xml version="1.0" encoding="UTF-8" standalone="no"?>
<svg
   xmlns:dc="http://purl.org/dc/elements/1.1/"
   xmlns:cc="http://creativecommons.org/ns#"
   xmlns:rdf="http://www.w3.org/1999/02/22-rdf-syntax-ns#"
   xmlns:svg="http://www.w3.org/2000/svg"
   xmlns="http://www.w3.org/2000/svg"
   xmlns:sodipodi="http://sodipodi.sourceforge.net/DTD/sodipodi-0.dtd"
   xmlns:inkscape="http://www.inkscape.org/namespaces/inkscape"
   version="1.1"
   x="0px"
   y="0px"
   viewBox="0 0 100 100"
   enable-background="new 0 0 100 100"
   xml:space="preserve"
   id="svg24"
   sodipodi:docname="appsupport.svg"
   width="100"
   height="100"
   inkscape:version="0.92.1 r15371"><metadata
     id="metadata30"><rdf:RDF><cc:Work
         rdf:about=""><dc:format>image/svg+xml</dc:format><dc:type
           rdf:resource="http://purl.org/dc/dcmitype/StillImage" /><dc:title></dc:title></cc:Work></rdf:RDF></metadata><defs
     id="defs28" /><sodipodi:namedview
     pagecolor="#ffffff"
     bordercolor="#666666"
     borderopacity="1"
     objecttolerance="10"
     gridtolerance="10"
     guidetolerance="10"
     inkscape:pageopacity="0"
     inkscape:pageshadow="2"
     inkscape:window-width="2560"
     inkscape:window-height="1506"
     id="namedview26"
     showgrid="false"
     inkscape:zoom="3.776"
     inkscape:cx="149.66866"
     inkscape:cy="36.644364"
     inkscape:window-x="-11"
     inkscape:window-y="-11"
     inkscape:window-maximized="1"
     inkscape:current-layer="svg24" /><g
     transform="matrix(0.84698682,0,0,0.84698682,8.7629415,17.542608)"
     id="g4498"
     style="stroke-width:1.18065596"><path
       inkscape:connector-curvature="0"
       id="path2-7"
       d="M 50,95 C 74.853,95 95,74.853 95,50 95,25.147 74.853,5 50,5 25.147,5 5,25.147 5,50 5,74.853 25.147,95 50,95 Z M 60.114,14.75 c 8.893,0 16.127,7.234 16.127,16.127 0,8.893 -7.234,16.128 -16.127,16.128 -8.893,0 -16.127,-7.235 -16.127,-16.128 C 43.986,21.984 51.221,14.75 60.114,14.75 Z M 39.995,44.037 c 4.519,0 8.195,3.677 8.195,8.196 0,4.519 -3.677,8.196 -8.195,8.196 -4.52,0 -8.196,-3.677 -8.196,-8.196 0,-4.519 3.677,-8.196 8.196,-8.196 z M 26.26,76.247 c 0,-7.573 6.161,-13.735 13.734,-13.735 7.573,0 13.735,6.162 13.735,13.735 v 0.47 c 0,3.12 -2.336,5.711 -5.434,6.028 -0.033,0.003 -0.067,0.005 -0.102,0.005 H 31.795 c -0.034,0 -0.068,-0.002 -0.102,-0.005 -3.098,-0.316 -5.434,-2.908 -5.434,-6.028 v -0.47 z"
       style="stroke-width:1.18065596" /><path
       inkscape:connector-curvature="0"
       id="path4"
       d="m 57.829,26.542 c 0,-1.26 1.024,-2.285 2.284,-2.285 1.26,0 2.284,1.025 2.284,2.285 0,1.001 -0.682,1.591 -1.626,2.409 -1.116,0.968 -2.381,2.064 -2.697,4.174 -0.072,0.435 -0.105,0.914 -0.105,1.509 v 0.611 h 3.275 v -0.611 c 0,-0.366 0,-0.683 0.063,-0.998 0.2,-1.034 0.984,-1.724 1.819,-2.459 1.194,-1.049 2.548,-2.238 2.548,-4.634 0,-3.066 -2.494,-5.561 -5.561,-5.561 -3.065,0 -5.56,2.495 -5.56,5.561 V 27.4 h 3.275 v -0.858 z"
       style="stroke-width:1.18065596" /><rect
       id="rect6"
       height="3.276"
       width="3.2750001"
       y="37.497002"
       x="57.969002"
       style="stroke-width:1.18065596" /></g></svg>