<?xml version="1.0" encoding="UTF-8" standalone="no"?>
<svg
   xmlns:dc="http://purl.org/dc/elements/1.1/"
   xmlns:cc="http://creativecommons.org/ns#"
   xmlns:rdf="http://www.w3.org/1999/02/22-rdf-syntax-ns#"
   xmlns:svg="http://www.w3.org/2000/svg"
   xmlns="http://www.w3.org/2000/svg"
   xmlns:sodipodi="http://sodipodi.sourceforge.net/DTD/sodipodi-0.dtd"
   xmlns:inkscape="http://www.inkscape.org/namespaces/inkscape"
   version="1.1"
   x="0px"
   y="0px"
   viewBox="0 0 100 100"
   enable-background="new 0 0 100 100"
   xml:space="preserve"
   id="svg24"
   sodipodi:docname="filmstrip.svg"
   width="100"
   height="100"
   inkscape:version="0.92.1 r15371"><metadata
     id="metadata30"><rdf:RDF><cc:Work
         rdf:about=""><dc:format>image/svg+xml</dc:format><dc:type
           rdf:resource="http://purl.org/dc/dcmitype/StillImage" /><dc:title></dc:title></cc:Work></rdf:RDF></metadata><defs
     id="defs28" /><sodipodi:namedview
     pagecolor="#ffffff"
     bordercolor="#666666"
     borderopacity="1"
     objecttolerance="10"
     gridtolerance="10"
     guidetolerance="10"
     inkscape:pageopacity="0"
     inkscape:pageshadow="2"
     inkscape:window-width="2560"
     inkscape:window-height="1506"
     id="namedview26"
     showgrid="false"
     inkscape:zoom="3.776"
     inkscape:cx="98.159126"
     inkscape:cy="36.644364"
     inkscape:window-x="-11"
     inkscape:window-y="-11"
     inkscape:window-maximized="1"
     inkscape:current-layer="svg24" /><g
     id="g4598"
     transform="translate(148.52966,52.529661)"><path
       id="path4"
       d="m -70.457627,-42.252134 h -30.000003 v 22 h -24 a 16,16 0 0 0 -16,16.0000001 v 34.9999999 0 a 16,16 0 0 0 16,15 h 27.000003 v -27 h 27 a 16,16 0 0 0 16,-15.9999999 V -26.252134 a 16,16 0 0 0 -16,-16 z m -31.000003,84 h -23 a 12,12 0 0 1 -11.59,-9 l 2.52,-2.19 a 12.3,12.3 0 0 1 -1.85,-2.81 l -0.77,0.36 a 12,12 0 0 1 11.69,-9.36 h 23 z m 31.000003,-27 h -54.000003 a 16,16 0 0 0 -12,5.43 v -4.14 l 1.9,1.22 a 12.26,12.26 0 0 1 2.24,-2.58 l -2.62,-3 a 16.67,16.67 0 0 0 -1.52,1.49 V 2.7478661 h 1 a 12.07,12.07 0 0 1 0.27,-2.55000003 l -1.27,-0.28 V -4.3521339 l 2.46,1.35 a 12.41,12.41 0 0 1 2,-2.74 l -2.82,-2.82 a 15.28,15.28 0 0 0 -1.36,1.54 12,12 0 0 1 11.72,-9.2300001 h 24 v 7.0000001 h 30.000003 a 12,12 0 0 1 11.34,8.12 l -2.61,-0.57 a 12.09,12.09 0 0 1 -1.19,3.2 l 3.46,1.92 a 14,14 0 0 0 0.89,-1.93 10.41,10.41 0 0 1 0.11,1.26 12,12 0 0 1 -12,11.9999999 z m 12,-38.48 -0.75,0.29 a 11.8,11.8 0 0 1 0.75,3.33 v 0 5.28 a 15.94,15.94 0 0 0 -2.41,-2.23 l -2.4,3.2 a 12.06,12.06 0 0 1 2.42,2.42 l 2.39,-1.81 v 4.5000001 l -0.65,0.25 a 15.89,15.89 0 0 0 -11.35,-4.7500001 h -26 v -25 h 26 a 12,12 0 0 1 11.12,7.5 17.58,17.58 0 0 0 -1.53,-1.31 l -2.4,3.2 a 12.06,12.06 0 0 1 2.42,2.42 l 2.23,-1.67 a 11.39,11.39 0 0 1 0.16,1.86 z"
       inkscape:connector-curvature="0" /><rect
       id="rect6"
       height="4"
       width="4"
       y="-35.252132"
       x="-85.457626" /><rect
       id="rect8"
       height="4"
       width="4"
       y="-35.252132"
       x="-93.457626" /><rect
       id="rect10"
       height="4"
       width="4"
       y="-35.252132"
       x="-77.457626" /><path
       id="path12"
       d="m -69.597627,-31.252134 a 11.94,11.94 0 0 1 3.34,0.72 l 1.39,-3.72 a 16,16 0 0 0 -4.45,-1 z"
       inkscape:connector-curvature="0" /><rect
       id="rect14-6"
       height="4"
       width="4"
       y="-20.252134"
       x="-93.457626" /><path
       id="path16"
       d="m -69.597627,-16.252134 a 11.94,11.94 0 0 1 3.34,0.72 l 1.39,-3.72 a 16,16 0 0 0 -4.45,-1 z"
       inkscape:connector-curvature="0" /><rect
       id="rect18-3"
       height="4"
       width="4"
       y="-20.252134"
       x="-85.457626" /><rect
       id="rect20"
       height="4"
       width="4"
       y="-20.252134"
       x="-77.457626" /><path
       id="path22"
       d="m -131.12763,-11.252134 1.92,3.5100001 a 11.75,11.75 0 0 1 3.2,-1.19 l -0.85,-3.9100001 a 16.28,16.28 0 0 0 -4.27,1.59 z"
       inkscape:connector-curvature="0" /><rect
       id="rect24"
       height="4"
       width="4"
       y="-13.252134"
       x="-122.45763" /><rect
       id="rect26"
       height="4"
       width="4"
       y="-13.252134"
       x="-114.45763" /><rect
       id="rect28"
       height="4"
       width="4"
       y="-13.252134"
       x="-106.45763" /><rect
       id="rect30"
       height="4"
       width="4"
       y="7.7478662"
       x="-114.45763" /><rect
       id="rect32"
       height="4"
       width="4"
       y="7.7478662"
       x="-82.457626" /><rect
       id="rect34"
       height="4"
       width="4"
       y="7.7478662"
       x="-90.457626" /><path
       id="path36"
       d="m -73.457627,7.7478661 h -1 v 3.9999999 h 1 a 16.09,16.09 0 0 0 3.4,-0.36 l -0.85,-3.9099999 a 12.07,12.07 0 0 1 -2.55,0.27 z"
       inkscape:connector-curvature="0" /><path
       id="path38"
       d="m -131.10763,9.1878661 1.65,3.6399999 a 11.78,11.78 0 0 1 3.28,-1 l -0.57,-3.9999999 a 16.26,16.26 0 0 0 -4.36,1.36 z"
       inkscape:connector-curvature="0" /><rect
       id="rect40"
       height="4"
       width="4"
       y="7.7478662"
       x="-98.457626" /><rect
       id="rect42"
       height="4"
       width="4"
       y="7.7478662"
       x="-106.45763" /><rect
       id="rect44"
       height="4"
       width="4"
       y="7.7478662"
       x="-122.45763" /><path
       id="path46"
       d="m -67.707627,6.2878661 1.92,3.46 a 15.91,15.91 0 0 0 3.64,-2.73 l -2.82,-2.83 a 12.15,12.15 0 0 1 -2.74,2.1 z"
       inkscape:connector-curvature="0" /><rect
       id="rect48"
       height="4"
       width="4"
       y="34.747868"
       x="-108.45763" /><rect
       id="rect50"
       height="4"
       width="4"
       y="34.747868"
       x="-124.45763" /><path
       id="path52"
       d="m -133.10763,36.207866 a 16,16 0 0 0 4.14,1.9 l 1.13,-3.84 a 12,12 0 0 1 -3.11,-1.42 z"
       inkscape:connector-curvature="0" /><rect
       id="rect54"
       height="4"
       width="4"
       y="34.747868"
       x="-116.45763" /><rect
       id="rect56"
       height="11"
       width="4"
       y="-6.2521338"
       x="-114.45763" /><rect
       id="rect58"
       height="11"
       width="4"
       y="-6.2521338"
       x="-84.457626" /></g></svg>