<?xml version="1.0" encoding="UTF-8" standalone="no"?>
<svg
   xmlns:dc="http://purl.org/dc/elements/1.1/"
   xmlns:cc="http://creativecommons.org/ns#"
   xmlns:rdf="http://www.w3.org/1999/02/22-rdf-syntax-ns#"
   xmlns:svg="http://www.w3.org/2000/svg"
   xmlns="http://www.w3.org/2000/svg"
   xmlns:sodipodi="http://sodipodi.sourceforge.net/DTD/sodipodi-0.dtd"
   xmlns:inkscape="http://www.inkscape.org/namespaces/inkscape"
   version="1.1"
   x="0px"
   y="0px"
   viewBox="0 0 100 100"
   enable-background="new 0 0 100 100"
   xml:space="preserve"
   id="svg24"
   sodipodi:docname="googledriveplay.svg"
   width="100"
   height="100"
   inkscape:version="0.92.1 r15371"><metadata
     id="metadata30"><rdf:RDF><cc:Work
         rdf:about=""><dc:format>image/svg+xml</dc:format><dc:type
           rdf:resource="http://purl.org/dc/dcmitype/StillImage" /><dc:title></dc:title></cc:Work></rdf:RDF></metadata><defs
     id="defs28" /><sodipodi:namedview
     pagecolor="#ffffff"
     bordercolor="#666666"
     borderopacity="1"
     objecttolerance="10"
     gridtolerance="10"
     guidetolerance="10"
     inkscape:pageopacity="0"
     inkscape:pageshadow="2"
     inkscape:window-width="2560"
     inkscape:window-height="1506"
     id="namedview26"
     showgrid="false"
     inkscape:zoom="3.776"
     inkscape:cx="149.66866"
     inkscape:cy="36.644364"
     inkscape:window-x="-11"
     inkscape:window-y="-11"
     inkscape:window-maximized="1"
     inkscape:current-layer="svg24" /><polygon
     transform="matrix(0.91354732,0,0,0.91354732,2.0208792,13.141063)"
     points="95.899,59.543 66.683,10 36.23,10 65.446,59.543 "
     id="polygon2"
     style="fill:none;fill-opacity:1;stroke:#000000;stroke-width:1.09463406;stroke-opacity:1" /><polygon
     transform="matrix(0.91354732,0,0,0.91354732,2.0208792,13.141063)"
     points="80.827,88.991 95.899,63.021 37.854,63.021 22.782,88.991 "
     id="polygon4"
     style="fill:none;fill-opacity:1;stroke:#000000;stroke-width:1.09463406;stroke-opacity:1" /><polygon
     transform="matrix(0.91354732,0,0,0.91354732,2.0208792,13.141063)"
     points="19.458,87.678 48.739,38.08 33.281,12.033 4,61.631 "
     id="polygon6"
     style="fill:none;fill-opacity:1;stroke:#000000;stroke-width:1.09463406;stroke-opacity:1" /><rect
     style="opacity:1;fill:#ffffff;fill-opacity:1;stroke:#000000;stroke-width:0.62362206;stroke-miterlimit:4;stroke-dasharray:none;stroke-opacity:1"
     id="rect4524"
     width="17.213984"
     height="18.538136"
     x="77.860168"
     y="75.900421" /><path
     inkscape:connector-curvature="0"
     d="m 94.647496,72.899458 h -16.55578 c -2.32256,0 -4.22211,1.899551 -4.22211,4.222108 v 16.555785 c 0,2.32206 1.89955,4.222107 4.22211,4.222107 h 16.55578 c 2.32206,0 4.22211,-1.900047 4.22211,-4.222107 V 77.121566 c 0,-2.322557 -1.90005,-4.222108 -4.22211,-4.222108 z M 82.644976,91.198402 V 79.600515 l 9.68245,5.798943 z"
     id="path2-0"
     style="stroke-width:0.99999994" /></svg>