<?xml version="1.0" encoding="UTF-8" standalone="no"?>
<!-- Created with Inkscape (http://www.inkscape.org/) -->

<svg
   xmlns:dc="http://purl.org/dc/elements/1.1/"
   xmlns:cc="http://creativecommons.org/ns#"
   xmlns:rdf="http://www.w3.org/1999/02/22-rdf-syntax-ns#"
   xmlns:svg="http://www.w3.org/2000/svg"
   xmlns="http://www.w3.org/2000/svg"
   xmlns:sodipodi="http://sodipodi.sourceforge.net/DTD/sodipodi-0.dtd"
   xmlns:inkscape="http://www.inkscape.org/namespaces/inkscape"
   width="453.5433"
   height="453.5433"
   viewBox="0 0 120 120"
   version="1.1"
   id="svg5135"
   inkscape:version="0.92.1 r15371"
   sodipodi:docname="homegreen.html">
  <defs
     id="defs5129" />
  <sodipodi:namedview
     id="base"
     pagecolor="#ffffff"
     bordercolor="#666666"
     borderopacity="1.0"
     inkscape:pageopacity="0.0"
     inkscape:pageshadow="2"
     inkscape:zoom="0.9899495"
     inkscape:cx="-423.57"
     inkscape:cy="243.99181"
     inkscape:document-units="mm"
     inkscape:current-layer="layer1"
     showgrid="false"
     inkscape:window-width="2560"
     inkscape:window-height="1506"
     inkscape:window-x="-11"
     inkscape:window-y="-11"
     inkscape:window-maximized="1"
     units="px" />
  <metadata
     id="metadata5132">
    <rdf:RDF>
      <cc:Work
         rdf:about="">
        <dc:format>image/svg+xml</dc:format>
        <dc:type
           rdf:resource="http://purl.org/dc/dcmitype/StillImage" />
        <dc:title />
      </cc:Work>
    </rdf:RDF>
  </metadata>
  <g
     inkscape:label="Layer 1"
     inkscape:groupmode="layer"
     id="layer1"
     transform="translate(0,-177)">
    <g
       transform="matrix(1.2970664,0,0,1.292178,-4.9090757,170.49976)"
       id="g4"
       style="fill:#dc432a;fill-opacity:1;stroke:#000000;stroke-width:0.20469321;stroke-miterlimit:4;stroke-dasharray:none;stroke-opacity:1">
      <path
         style="fill:#dc432a;fill-opacity:1;stroke:#000000;stroke-width:0.20469321;stroke-miterlimit:4;stroke-dasharray:none;stroke-opacity:1"
         inkscape:connector-curvature="0"
         d="M 83.492,38.625 C 83.492,20.128 68.497,5.133 50,5.133 c -18.497,0 -33.492,14.995 -33.492,33.492 0,6.847 2.059,13.211 5.585,18.516 h -0.006 l 0.05,0.067 c 0.565,0.845 1.168,1.66 1.805,2.449 L 50,95 c 0,0 27.3,-36.948 27.864,-37.792 l 0.05,-0.067 h -0.006 c 3.526,-5.305 5.584,-11.669 5.584,-18.516 z M 50,52.131 c -7.459,0 -13.506,-6.047 -13.506,-13.506 0,-7.459 6.047,-13.506 13.506,-13.506 7.459,0 13.506,6.047 13.506,13.506 0,7.459 -6.047,13.506 -13.506,13.506 z"
         id="path2" />
    </g>
    <rect
       style="opacity:0.95;fill:#dc432a;fill-opacity:1;stroke:#000000;stroke-width:0.36500001;stroke-miterlimit:4;stroke-dasharray:none;stroke-opacity:1"
       id="rect5059"
       width="119.635"
       height="34.100834"
       x="0.1825"
       y="262.71667"
       ry="8.0180855"
       rx="8.0180855" />
    <rect
       rx="8.0180855"
       ry="8.0180855"
       y="266.32901"
       x="4.2011876"
       height="25.489315"
       width="112.11491"
       id="rect5067"
       style="opacity:0.95;fill:#ed432a;fill-opacity:1;stroke:#000000;stroke-width:0.69999999;stroke-miterlimit:4;stroke-dasharray:none;stroke-opacity:1" />
    <g
       id="g5081"
       transform="matrix(1.0247024,0,0,1.0208404,8.4598741,-802.40154)"
       style="fill:#ed432a;fill-opacity:1;stroke:#000000;stroke-width:0.55242133;stroke-miterlimit:4;stroke-dasharray:none;stroke-opacity:1">
      <path
         id="path5079"
         overflow="visible"
         display="inline"
         visibility="visible"
         marker="none"
         style="color:#000000;display:inline;overflow:visible;visibility:visible;fill:#ed432a;fill-opacity:1;stroke:#000000;stroke-width:0.55242133;stroke-miterlimit:4;stroke-dasharray:none;stroke-opacity:1;enable-background:accumulate"
         d="m 50.000002,968.36218 c -18.77766,0 -34,15.22258 -34,34.00002 0,18.7776 15.22234,34 34,34 18.777656,0 33.999997,-15.2224 33.999997,-34 0,-18.77744 -15.222341,-34.00002 -33.999997,-34.00002 z"
         inkscape:connector-curvature="0" />
    </g>
    <text
       style="font-weight:bold;font-size:12.88615799px;font-family:'Helvetica Neue', Helvetica, Arial-Unicode, Arial, Sans-serif;fill:#000000;stroke-width:0.26458335"
       x="35.910885"
       y="286.12961"
       font-size="5px"
       font-weight="bold"
       id="text8"
       transform="scale(1.0018898,0.99811377)">
      <tspan
         style="font-size:17.6802578px;fill:#f5f5f5;fill-opacity:1;stroke-width:0.26458335"
         id="tspan6304">Home</tspan>
    </text>
    <path
       inkscape:connector-curvature="0"
       d="m 85.256617,214.90588 c 0.02536,-0.94719 -0.36032,-1.69029 -1.094633,-2.27325 q -10.131987,-8.0472 -20.261038,-16.09634 c -2.309384,-1.82407 -4.933188,-1.8436 -7.225972,-0.0244 q -10.168115,8.04815 -20.310838,16.12562 c -0.488239,0.39059 -0.936441,0.85344 -0.985269,1.47644 -0.07809,1.01749 -0.159164,2.06428 -0.0091,3.06322 0.195301,1.2997 1.391489,2.05062 2.734151,1.9227 1.234278,-0.11425 2.185365,-1.1669 2.206856,-2.53886 0.0082,-0.47652 0.175764,-0.75384 0.535112,-1.038 q 8.795171,-6.96525 17.576687,-13.95491 c 1.299689,-1.03312 2.395312,-1.03019 3.697938,0.005 q 8.743425,6.95158 17.494659,13.89242 c 0.390593,0.31248 0.599558,0.61714 0.612249,1.15518 0.03127,1.34461 0.992115,2.36797 2.209784,2.47636 1.338761,0.12499 2.457812,-0.63862 2.75075,-1.92563 0.104482,-0.47066 0.07227,-0.97062 0.09766,-1.45593 h -0.03027 c 0,-0.27048 -0.0073,-0.53999 9.09e-4,-0.8095 z"
       id="path4-0"
       style="fill:#f5f5f5;fill-opacity:1;stroke-width:0.26458332" />
    <path
       inkscape:connector-curvature="0"
       d="m 41.670344,242.26692 a 2.0008127,2.0008127 0 0 0 2.00081,1.99984 H 55.52175 a 4.9038955,4.9038955 0 0 1 -0.126946,-1.10538 v -10.35071 a 4.8931541,4.8931541 0 0 1 4.893161,-4.89804 v 0 a 4.8931541,4.8931541 0 0 1 4.893151,4.89315 v 10.35072 a 4.9038955,4.9038955 0 0 1 -0.126946,1.10537 h 11.799815 a 1.9998363,1.9998363 0 0 0 1.999836,-1.99495 v -12.24997 q 0,-5.69094 0.0055,-11.38286 c 0,-1.038 -0.382783,-1.82798 -1.191305,-2.4871 q -7.761103,-6.31784 -15.49485,-12.66792 c -1.391489,-1.14052 -2.428513,-1.13662 -3.828783,0.01 q -7.723984,6.32469 -15.455768,12.63666 c -0.84075,0.68354 -1.223534,1.50086 -1.21767,2.57596 0,0.37302 0,0.74702 0,1.12004 0,0.0264 -0.0045,0.0517 -0.0045,0.0781 v 22.36731 z"
       id="path6-0"
       style="fill:#f5f5f5;fill-opacity:1;stroke-width:0.26458332" />
    <g
       transform="matrix(0.60389897,0,0,0.60382251,-164.74423,173.17848)"
       id="g8"
       style="fill:#f5f5f5;fill-opacity:1;stroke:#ffffff;stroke-width:1.43244946;stroke-miterlimit:4;stroke-dasharray:none;stroke-opacity:1">
      <path
         style="fill:#f5f5f5;fill-opacity:1;stroke:#ffffff;stroke-width:1.43244946;stroke-miterlimit:4;stroke-dasharray:none;stroke-opacity:1"
         inkscape:connector-curvature="0"
         d="m 69.969,38.925 c -1.612,0 -2.694,0.764 -3.383,1.705 v -1.037 c 0,-0.799 -0.848,-4.855 -4.874,-4.855 -1.862,0 -3.079,0.962 -3.82,2.08 -0.304,-1.736 -1.595,-4.631 -5.364,-4.631 -2.02,0 -3.328,1.044 -4.12,2.27 V 21.643 c 0,-0.277 -0.011,-0.536 -0.025,-0.79 1.129,-1.18 1.754,-2.719 1.754,-4.354 0,-3.475 -2.828,-6.302 -6.303,-6.302 -3.475,0 -6.304,2.827 -6.304,6.303 0,1.304 0.411,2.535 1.157,3.599 -0.094,0.605 -0.093,1.033 -0.093,1.075 v 33.189 c 0,0.12 -0.062,0.219 -0.169,0.271 -0.187,0.093 -0.46,0.021 -0.778,-0.228 -0.854,-0.649 -1.912,-1.601 -2.979,-2.678 l -0.717,-0.73 C 32.193,49.199 30.2,47.16 28.196,46.135 c -4.503,-2.303 -7.948,-0.526 -9.061,1.136 -0.59,0.879 -0.793,1.779 -0.605,2.676 0.247,1.177 1.167,2.278 2.733,3.274 4.445,2.825 9.562,9.554 11.754,14.168 1.693,3.564 4.883,6.592 7.698,9.264 1.86,1.766 3.467,3.29 4.244,4.604 0.156,0.264 0.335,0.756 0.416,0.998 v 8.795 c 0,0.276 0.224,0.5 0.5,0.5 0.276,0 0.5,-0.224 0.5,-0.5 v -8.875 c 0,-0.052 -0.008,-0.103 -0.024,-0.152 C 46.325,81.939 46.082,81.192 45.819,80.748 44.97,79.315 43.318,77.746 41.403,75.929 38.652,73.318 35.534,70.358 33.92,66.961 31.619,62.118 26.457,55.339 21.799,52.379 c -1.33,-0.846 -2.101,-1.732 -2.29,-2.636 -0.131,-0.623 0.023,-1.267 0.457,-1.914 0.921,-1.376 3.848,-2.811 7.775,-0.802 1.858,0.95 3.875,3.013 5.495,4.671 l 0.721,0.735 c 1.115,1.126 2.181,2.084 3.121,2.799 0.577,0.451 1.243,0.566 1.783,0.303 0.452,-0.22 0.732,-0.668 0.732,-1.17 V 21.17 l 0.17,-1.008 c 0.291,-1.725 1.216,-3.776 3.954,-3.797 2.447,0.016 3.689,1.79 3.689,5.278 v 24.844 c 0,0.276 0.224,0.5 0.5,0.5 0.276,0 0.5,-0.224 0.5,-0.5 v -9.278 c 0.058,-0.396 0.678,-4.022 4.12,-4.022 4.251,0 4.441,4.381 4.441,4.426 v 8.125 c 0,0.276 0.224,0.5 0.5,0.5 0.276,0 0.5,-0.224 0.5,-0.5 v -6.52 c 0.069,-0.391 0.718,-3.48 3.743,-3.48 3.461,0 3.873,3.821 3.874,3.855 v 6.395 c 0,0.276 0.224,0.5 0.5,0.5 0.276,0 0.5,-0.224 0.5,-0.5 V 43.18 c 0.053,-0.347 0.58,-3.255 3.383,-3.255 3.156,0 3.587,3.026 3.625,4.327 0.05,1.7 -0.198,26.606 -0.198,26.81 l -0.049,0.431 c -0.218,1.88 -0.717,3.432 -1.046,4.458 l -0.154,0.484 c -0.362,1.188 -0.346,2.38 -0.345,2.421 l 0.011,12.215 c 0,0.276 0.224,0.5 0.5,0.5 0.276,0 0.5,-0.225 0.5,-0.5 L 72.8,78.856 c 0,-0.003 0,-0.006 0,-0.009 0,-0.011 -0.014,-1.089 0.302,-2.119 l 0.149,-0.472 c 0.32,-0.999 0.857,-2.671 1.087,-4.645 l 0.053,-0.492 c 0.011,-1.027 0.251,-25.178 0.201,-26.897 -0.095,-3.267 -1.867,-5.297 -4.623,-5.297 z"
         id="path2-1" />
      <path
         style="fill:#f5f5f5;fill-opacity:1;stroke:#ffffff;stroke-width:1.43244946;stroke-miterlimit:4;stroke-dasharray:none;stroke-opacity:1"
         inkscape:connector-curvature="0"
         d="m 58.868,22.803 c 3.476,0 6.303,-2.828 6.303,-6.303 0,-3.475 -2.827,-6.303 -6.303,-6.303 -3.476,0 -6.304,2.828 -6.304,6.303 0,3.475 2.829,6.303 6.304,6.303 z m 0,-11.606 c 2.924,0 5.303,2.379 5.303,5.303 0,2.924 -2.379,5.303 -5.303,5.303 -2.925,0 -5.304,-2.379 -5.304,-5.303 0,-2.924 2.379,-5.303 5.304,-5.303 z"
         id="path4" />
      <path
         style="fill:#f5f5f5;fill-opacity:1;stroke:#ffffff;stroke-width:1.43244946;stroke-miterlimit:4;stroke-dasharray:none;stroke-opacity:1"
         inkscape:connector-curvature="0"
         d="m 73.977,10.197 c -3.476,0 -6.304,2.828 -6.304,6.303 0,3.475 2.828,6.303 6.304,6.303 3.476,0 6.303,-2.828 6.303,-6.303 0,-3.475 -2.828,-6.303 -6.303,-6.303 z m 0,11.606 c -2.925,0 -5.304,-2.379 -5.304,-5.303 0,-2.924 2.379,-5.303 5.304,-5.303 2.924,0 5.303,2.379 5.303,5.303 0,2.924 -2.38,5.303 -5.303,5.303 z"
         id="path6" />
    </g>
    <flowRoot
       xml:space="preserve"
       id="flowRoot5099"
       style="font-style:normal;font-weight:normal;font-size:40px;line-height:1.25;font-family:sans-serif;letter-spacing:0px;word-spacing:0px;fill:#000000;fill-opacity:1;stroke:none"
       transform="matrix(0.26458333,0,0,0.26458333,-178.90584,148.68988)"><flowRegion
         id="flowRegion5101"><rect
           id="rect5103"
           width="445.81235"
           height="94.561859"
           x="58.57143"
           y="401.991" /></flowRegion><flowPara
         id="flowPara5105"
         style="font-style:normal;font-variant:normal;font-weight:normal;font-stretch:normal;font-size:74.66666412px;font-family:TitanMedium;-inkscape-font-specification:TitanMedium;fill:#f5f5f5;fill-opacity:1">Usage !</flowPara></flowRoot>  </g>
</svg>
