<?xml version="1.0" encoding="UTF-8" standalone="no"?>
<svg
   xmlns:dc="http://purl.org/dc/elements/1.1/"
   xmlns:cc="http://creativecommons.org/ns#"
   xmlns:rdf="http://www.w3.org/1999/02/22-rdf-syntax-ns#"
   xmlns:svg="http://www.w3.org/2000/svg"
   xmlns="http://www.w3.org/2000/svg"
   xmlns:sodipodi="http://sodipodi.sourceforge.net/DTD/sodipodi-0.dtd"
   xmlns:inkscape="http://www.inkscape.org/namespaces/inkscape"
   version="1.1"
   x="0px"
   y="0px"
   viewBox="0 0 100 100"
   enable-background="new 0 0 100 100"
   xml:space="preserve"
   id="svg24"
   sodipodi:docname="mediainfo.svg"
   width="100"
   height="100"
   inkscape:version="0.92.1 r15371"><metadata
     id="metadata30"><rdf:RDF><cc:Work
         rdf:about=""><dc:format>image/svg+xml</dc:format><dc:type
           rdf:resource="http://purl.org/dc/dcmitype/StillImage" /><dc:title></dc:title></cc:Work></rdf:RDF></metadata><defs
     id="defs28" /><sodipodi:namedview
     pagecolor="#ffffff"
     bordercolor="#666666"
     borderopacity="1"
     objecttolerance="10"
     gridtolerance="10"
     guidetolerance="10"
     inkscape:pageopacity="0"
     inkscape:pageshadow="2"
     inkscape:window-width="2560"
     inkscape:window-height="1506"
     id="namedview26"
     showgrid="false"
     inkscape:zoom="3.776"
     inkscape:cx="98.159126"
     inkscape:cy="36.644364"
     inkscape:window-x="-11"
     inkscape:window-y="-11"
     inkscape:window-maximized="1"
     inkscape:current-layer="svg24" /><g
     transform="matrix(1.906655,0,0,1.906655,-27.761708,-23.035051)"
     id="g4"
     style="stroke-width:0.52447873"><path
       style="fill:#000000;stroke-width:0.52447873"
       inkscape:connector-curvature="0"
       d="M 33.4,51 C 31.5,51 30,49.6 30,47.8 V 36 c 0,-1.8 1.5,-3.2 3.4,-3.2 0.5,0 1.1,0.1 1.5,0.4 L 46.2,39 c 1.1,0.6 1.7,1.6 1.7,2.8 0,1.2 -0.7,2.3 -1.7,2.9 l -11.3,5.9 c -0.5,0.3 -1,0.4 -1.5,0.4 z m 0,-16.3 c -0.7,0 -1.4,0.5 -1.4,1.2 v 11.8 c 0,1 1.2,1.5 2,1.1 l 11.3,-5.9 c 0.4,-0.2 0.7,-0.6 0.7,-1.1 0,-0.2 -0.1,-0.7 -0.6,-1 L 34,34.9 c -0.2,-0.1 -0.4,-0.2 -0.6,-0.2 z"
       id="path2" /></g><g
     transform="matrix(1.906655,0,0,1.906655,-27.761708,-23.035051)"
     id="g8"
     style="stroke-width:0.52447873"><path
       style="fill:#000000;stroke-width:0.52447873"
       inkscape:connector-curvature="0"
       d="M 56,63 H 21 c -1.7,0 -3,-1.3 -3,-3 V 25 c 0,-1.7 1.3,-3 3,-3 h 24 v 2 H 21 c -0.6,0 -1,0.4 -1,1 v 35 c 0,0.6 0.4,1 1,1 h 35 c 0.4,0 0.7,-0.2 0.9,-0.5 C 57,60.3 57,60.2 57,60 V 43 h 2 v 17 c 0,0.5 -0.1,1 -0.4,1.5 C 58.1,62.4 57.1,63 56,63 Z"
       id="path6" /></g><g
     transform="matrix(1.906655,0,0,1.906655,-27.761708,-23.035051)"
     id="g12"
     style="stroke-width:0.52447873"><path
       style="fill:#000000;stroke-width:0.52447873"
       inkscape:connector-curvature="0"
       d="m 56,40.5 c -5.5,0 -10,-4.5 -10,-10 0,-5.5 4.5,-10 10,-10 5.5,0 10,4.5 10,10 0,5.5 -4.5,10 -10,10 z m 0,-18 c -4.4,0 -8,3.6 -8,8 0,4.4 3.6,8 8,8 4.4,0 8,-3.6 8,-8 0,-4.4 -3.6,-8 -8,-8 z"
       id="path10" /></g><g
     transform="matrix(1.906655,0,0,1.906655,-27.761708,-23.035051)"
     id="g16"
     style="stroke-width:0.52447873"><rect
       style="fill:#000000;stroke-width:0.52447873"
       x="55"
       y="29"
       width="2"
       height="7"
       id="rect14" /></g><g
     transform="matrix(1.906655,0,0,1.906655,-27.761708,-23.035051)"
     id="g20"
     style="stroke-width:0.52447873"><rect
       style="fill:#000000;stroke-width:0.52447873"
       x="55"
       y="26"
       width="2"
       height="2"
       id="rect18" /></g></svg>