<?xml version="1.0" encoding="UTF-8" standalone="no"?>
<svg
   xmlns:dc="http://purl.org/dc/elements/1.1/"
   xmlns:cc="http://creativecommons.org/ns#"
   xmlns:rdf="http://www.w3.org/1999/02/22-rdf-syntax-ns#"
   xmlns:svg="http://www.w3.org/2000/svg"
   xmlns="http://www.w3.org/2000/svg"
   xmlns:sodipodi="http://sodipodi.sourceforge.net/DTD/sodipodi-0.dtd"
   xmlns:inkscape="http://www.inkscape.org/namespaces/inkscape"
   version="1.1"
   x="0px"
   y="0px"
   viewBox="0 0 100 100"
   enable-background="new 0 0 100 100"
   xml:space="preserve"
   id="svg24"
   sodipodi:docname="onedriveplay.svg"
   width="100"
   height="100"
   inkscape:version="0.92.1 r15371"><metadata
     id="metadata30"><rdf:RDF><cc:Work
         rdf:about=""><dc:format>image/svg+xml</dc:format><dc:type
           rdf:resource="http://purl.org/dc/dcmitype/StillImage" /><dc:title></dc:title></cc:Work></rdf:RDF></metadata><defs
     id="defs28" /><sodipodi:namedview
     pagecolor="#ffffff"
     bordercolor="#666666"
     borderopacity="1"
     objecttolerance="10"
     gridtolerance="10"
     guidetolerance="10"
     inkscape:pageopacity="0"
     inkscape:pageshadow="2"
     inkscape:window-width="2560"
     inkscape:window-height="1506"
     id="namedview26"
     showgrid="false"
     inkscape:zoom="3.776"
     inkscape:cx="149.66866"
     inkscape:cy="36.644364"
     inkscape:window-x="-11"
     inkscape:window-y="-11"
     inkscape:window-maximized="1"
     inkscape:current-layer="svg24" /><g
     transform="matrix(1.2018953,0,0,1.2024424,-12.721537,9.4309731)"
     id="g6"
     style="fill:none;stroke:#000000;stroke-width:0.83182991;stroke-opacity:1"><path
       inkscape:connector-curvature="0"
       d="m 79.92,52.811 c 0.007,-0.147 0.024,-0.292 0.024,-0.441 0,-5.737 -5.106,-10.388 -11.405,-10.388 -2.005,0 -3.887,0.475 -5.525,1.303 -1.881,-3.383 -5.724,-5.707 -10.171,-5.707 -6.299,0 -11.405,4.651 -11.405,10.388 0,0.566 0.063,1.116 0.159,1.658 -0.441,-0.072 -0.889,-0.121 -1.349,-0.121 -4.83,0 -8.746,4.14 -8.746,9.248 0,5.108 3.916,9.248 8.746,9.248 h 38.905 c 4.615,0 8.356,-3.408 8.356,-7.611 0.001,-3.969 -3.333,-7.224 -7.589,-7.577 z"
       id="path2-2"
       style="fill:none;stroke:#000000;stroke-width:0.83182991;stroke-opacity:1" /><path
       inkscape:connector-curvature="0"
       d="m 30.349,63.204 c -1.588,1.124 -3.527,1.785 -5.62,1.785 -5.379,0 -9.739,-4.36 -9.739,-9.739 0,-4.85 3.548,-8.86 8.188,-9.604 -0.034,-0.38 -0.058,-0.763 -0.058,-1.151 0,-7.109 5.763,-12.873 12.873,-12.873 2.442,0 4.716,0.692 6.661,1.873 2.73,-3.698 7.105,-6.107 12.055,-6.107 7.463,0 13.652,5.454 14.799,12.594 h -0.002 c -0.319,-0.021 -0.641,-0.032 -0.965,-0.032 -1.628,0 -3.245,0.276 -4.761,0.807 -2.5,-3.252 -6.537,-5.21 -10.935,-5.21 -7.241,0 -13.163,5.323 -13.428,11.957 -5.556,0.447 -9.946,5.321 -9.946,11.248 0,1.579 0.312,3.084 0.874,4.45 z"
       id="path4-3"
       style="fill:none;stroke:#000000;stroke-width:0.83182991;stroke-opacity:1" /></g><rect
     style="opacity:1;fill:#ffffff;fill-opacity:1;stroke:#000000;stroke-width:0.62362206;stroke-miterlimit:4;stroke-dasharray:none;stroke-opacity:1"
     id="rect4524"
     width="17.213984"
     height="18.538136"
     x="77.860168"
     y="75.900421" /><path
     inkscape:connector-curvature="0"
     d="m 94.647496,72.899458 h -16.55578 c -2.32256,0 -4.22211,1.899551 -4.22211,4.222108 v 16.555785 c 0,2.32206 1.89955,4.222107 4.22211,4.222107 h 16.55578 c 2.32206,0 4.22211,-1.900047 4.22211,-4.222107 V 77.121566 c 0,-2.322557 -1.90005,-4.222108 -4.22211,-4.222108 z M 82.644976,91.198402 V 79.600515 l 9.68245,5.798943 z"
     id="path2-0"
     style="stroke-width:0.99999994" /></svg>