<?xml version="1.0" encoding="UTF-8" standalone="no"?>
<svg
   xmlns:dc="http://purl.org/dc/elements/1.1/"
   xmlns:cc="http://creativecommons.org/ns#"
   xmlns:rdf="http://www.w3.org/1999/02/22-rdf-syntax-ns#"
   xmlns:svg="http://www.w3.org/2000/svg"
   xmlns="http://www.w3.org/2000/svg"
   xmlns:sodipodi="http://sodipodi.sourceforge.net/DTD/sodipodi-0.dtd"
   xmlns:inkscape="http://www.inkscape.org/namespaces/inkscape"
   version="1.1"
   x="0px"
   y="0px"
   viewBox="0 0 100 100"
   enable-background="new 0 0 100 100"
   xml:space="preserve"
   id="svg24"
   sodipodi:docname="videowatermak2.html"
   width="100"
   height="100"
   inkscape:version="0.92.1 r15371"><metadata
     id="metadata30"><rdf:RDF><cc:Work
         rdf:about=""><dc:format>image/svg+xml</dc:format><dc:type
           rdf:resource="http://purl.org/dc/dcmitype/StillImage" /><dc:title></dc:title></cc:Work></rdf:RDF></metadata><defs
     id="defs28" /><sodipodi:namedview
     pagecolor="#ffffff"
     bordercolor="#666666"
     borderopacity="1"
     objecttolerance="10"
     gridtolerance="10"
     guidetolerance="10"
     inkscape:pageopacity="0"
     inkscape:pageshadow="2"
     inkscape:window-width="2560"
     inkscape:window-height="1506"
     id="namedview26"
     showgrid="false"
     inkscape:zoom="3.776"
     inkscape:cx="98.159126"
     inkscape:cy="36.644364"
     inkscape:window-x="-11"
     inkscape:window-y="-11"
     inkscape:window-maximized="1"
     inkscape:current-layer="svg24" /><path
     inkscape:connector-curvature="0"
     d="m 29.295458,95.416271 v -20.04 c 0,0 0,-3.991 3.991,-3.991 3.991,0 3.991,3.991 3.991,3.991 v 20.04 z"
     id="path2-9" /><circle
     cx="33.286457"
     cy="65.879272"
     r="3.9909999"
     id="circle4" /><path
     inkscape:connector-curvature="0"
     d="m 86.715458,95.576271 v -21.865 c 0,0 0,-4.566 4.566,-4.566 4.566,-10e-4 4.566,4.566 4.566,4.566 v 21.865 z"
     id="path6" /><circle
     cx="91.281456"
     cy="63.528271"
     r="4.566"
     id="circle8" /><path
     inkscape:connector-curvature="0"
     d="m 79.494458,62.912271 c -1.665,0 -3.132,0.833 -4.006,2.102 -0.884,-1.269 -2.352,-2.102 -4.016,-2.102 -2.695,0 -4.891,2.195 -4.891,4.891 0,2.06 1.28,3.829 3.09,4.547 v 0.947 l -4.505,-2.029 v 7.803 l 4.505,-1.945 v 1.603 h 4.058 l -2.997,15.451 c -0.114,0.562 0.26,1.112 0.822,1.217 0.063,0.011 0.135,0.021 0.198,0.021 0.489,0 0.926,-0.343 1.02,-0.843 l 2.706,-13.952 2.705,13.952 c 0.104,0.5 0.541,0.843 1.03,0.843 0.063,0 0.125,-0.01 0.198,-0.021 0.562,-0.104 0.926,-0.655 0.822,-1.217 l -3.007,-15.451 h 4.068 v -6.378 c 1.811,-0.718 3.09,-2.487 3.09,-4.547 0.001,-2.697 -2.195,-4.892 -4.89,-4.892 z m -8.022,8.022 c -1.728,0 -3.143,-1.404 -3.143,-3.132 0,-1.728 1.415,-3.143 3.143,-3.143 1.707,0 3.09,1.373 3.132,3.069 v 0.136 c -0.031,1.696 -1.425,3.07 -3.132,3.07 z m 8.022,0 c -1.707,0 -3.101,-1.363 -3.143,-3.06 v -0.104 c 0.021,-1.717 1.426,-3.111 3.143,-3.111 1.727,0 3.132,1.415 3.132,3.143 0,1.728 -1.404,3.132 -3.132,3.132 z"
     id="path10" /><circle
     cx="71.471458"
     cy="69.698273"
     r="0.76599997"
     id="circle12" /><circle
     cx="71.471458"
     cy="65.86927"
     r="0.76599997"
     id="circle14" /><circle
     cx="73.312454"
     cy="67.711273"
     r="0.76499999"
     id="circle16" /><circle
     cx="69.647461"
     cy="67.711273"
     r="0.76499999"
     id="circle18" /><circle
     cx="79.493462"
     cy="69.698273"
     r="0.76599997"
     id="circle20" /><circle
     cx="79.493462"
     cy="65.86927"
     r="0.76599997"
     id="circle22" /><circle
     cx="81.335457"
     cy="67.711273"
     r="0.76499999"
     id="circle24" /><circle
     cx="77.670456"
     cy="67.711273"
     r="0.76499999"
     id="circle26" /><path
     inkscape:connector-curvature="0"
     d="m 65.688458,92.497271 c -7.988,0 -8.261,-7.424 -8.271,-8.271 v -30.65 H 5.8474577 v 30.65 c 0,8.854 7.3170003,11.189 11.1890003,11.189 0.808,0 1.46,-0.651 1.46,-1.459 0,-0.808 -0.652,-1.46 -1.46,-1.46 -0.34,0 -8.2700003,-0.097 -8.2700003,-8.271 v -0.185 l 6.5390003,6.538 c 0.155,0.166 0.37,0.244 0.574,0.244 0.214,0 0.418,-0.078 0.584,-0.244 0.321,-0.32 0.321,-0.837 0,-1.157 l -7.6970003,-7.688 v -2.802 l 11.6470003,11.646 c 0.156,0.166 0.37,0.244 0.574,0.244 0.213,0 0.418,-0.078 0.583,-0.244 0.321,-0.32 0.321,-0.837 0,-1.157 l -12.8040003,-12.793 v -3.24 l 15.9670003,15.978 c 0.156,0.165 0.36,0.243 0.574,0.243 0.214,0 0.418,-0.078 0.574,-0.243 0.321,-0.312 0.321,-0.837 0,-1.148 l -17.1150003,-17.126 v -3.289 l 15.9670003,15.968 c 0.156,0.165 0.36,0.243 0.574,0.243 0.214,0 0.418,-0.078 0.574,-0.243 0.321,-0.312 0.321,-0.837 0,-1.148 l -17.1150003,-17.116 v -3.522 l 15.9670003,15.957 c 0.156,0.166 0.36,0.244 0.574,0.244 0.214,0 0.418,-0.078 0.574,-0.244 0.321,-0.311 0.321,-0.836 0,-1.147 l -17.1150003,-17.108 v -3.191 h 0.117 l 15.8500003,15.851 c 0.156,0.166 0.36,0.243 0.574,0.243 0.214,0 0.418,-0.077 0.574,-0.243 0.321,-0.311 0.321,-0.836 0,-1.148 l -14.701,-14.703 h 3.026 l 10.528,10.528 c 0.156,0.166 0.36,0.243 0.574,0.243 0.214,0 0.418,-0.077 0.574,-0.243 0.321,-0.312 0.321,-0.837 0,-1.147 l -9.38,-9.381 h 3.289 c 0.009,0.01 0.009,0.01 0.019,0.02 l 4.923,4.924 c 0.156,0.165 0.36,0.243 0.574,0.243 0.214,0 0.418,-0.078 0.574,-0.243 0.321,-0.312 0.321,-0.836 0,-1.148 l -3.795,-3.795 h 3.532 l 2.52,2.521 c 0.156,0.165 0.36,0.243 0.574,0.243 0.214,0 0.418,-0.078 0.574,-0.243 0.321,-0.312 0.321,-0.837 0,-1.147 l -1.372,-1.373 h 3.298 l 2.521,2.521 c 0.155,0.165 0.359,0.243 0.574,0.243 0.215,0 0.418,-0.078 0.574,-0.243 0.321,-0.312 0.321,-0.837 0,-1.147 l -1.372,-1.373 h 3.25 c 0.009,0.01 0.009,0.01 0.02,0.02 l 2.5,2.501 c 0.156,0.165 0.36,0.243 0.574,0.243 0.214,0 0.419,-0.078 0.574,-0.243 0.321,-0.312 0.321,-0.837 0,-1.147 l -1.372,-1.373 h 3.522 l 11.92,11.91 v 3.522 l -12.249,-12.245 c -0.312,-0.32 -0.837,-0.32 -1.148,0 -0.321,0.312 -0.321,0.837 0,1.148 l 13.398,13.389 v 3.26 l -12.25,-12.25 c -0.312,-0.321 -0.837,-0.321 -1.148,0 -0.321,0.311 -0.321,0.837 0,1.148 l 13.398,13.398 v 3.298 l -12.25,-12.25 c -0.312,-0.321 -0.837,-0.321 -1.148,0 -0.321,0.312 -0.321,0.837 0,1.148 l 13.476,13.476 c 0.438,4.009 3.124,9.964 11.112,9.964 0.808,0 1.459,-0.651 1.459,-1.459 0,-0.808 -0.652,-1.459 -1.459,-1.459 z m -11.19,-26.407 -9.604,-9.595 h 3.279 l 6.325,6.315 z m 0,-5.585 -4.009,-4.01 h 4.009 z"
     id="path28" /><path
     inkscape:connector-curvature="0"
     d="m 43.542458,90.824271 c -0.209,0 -0.418,-0.08 -0.579,-0.239 l -1.869,-1.868 c -0.319,-0.319 -0.319,-0.838 0,-1.157 0.32,-0.319 0.837,-0.319 1.158,0 l 1.868,1.868 c 0.32,0.319 0.32,0.838 0,1.157 -0.159,0.159 -0.368,0.239 -0.578,0.239 z"
     id="path30" /><path
     inkscape:connector-curvature="0"
     d="m 48.855458,90.824271 c -0.209,0 -0.419,-0.08 -0.579,-0.239 l -7.182,-7.181 c -0.319,-0.32 -0.319,-0.838 0,-1.157 0.32,-0.319 0.838,-0.319 1.158,0 l 7.181,7.181 c 0.32,0.319 0.32,0.838 0,1.157 -0.159,0.159 -0.369,0.239 -0.578,0.239 z"
     id="path32" /><path
     inkscape:connector-curvature="0"
     d="m 54.450458,90.824271 c -0.209,0 -0.419,-0.08 -0.579,-0.239 l -12.776,-12.776 c -0.319,-0.319 -0.319,-0.838 0,-1.157 0.32,-0.319 0.838,-0.319 1.158,0 l 12.776,12.775 c 0.32,0.319 0.32,0.838 0,1.157 -0.161,0.16 -0.369,0.24 -0.579,0.24 z"
     id="path34" /></svg>