<?xml version="1.0" encoding="UTF-8" standalone="no"?>
<svg
   xmlns:dc="http://purl.org/dc/elements/1.1/"
   xmlns:cc="http://creativecommons.org/ns#"
   xmlns:rdf="http://www.w3.org/1999/02/22-rdf-syntax-ns#"
   xmlns:svg="http://www.w3.org/2000/svg"
   xmlns="http://www.w3.org/2000/svg"
   xmlns:sodipodi="http://sodipodi.sourceforge.net/DTD/sodipodi-0.dtd"
   xmlns:inkscape="http://www.inkscape.org/namespaces/inkscape"
   version="1.1"
   x="0px"
   y="0px"
   viewBox="0 0 100 100"
   enable-background="new 0 0 100 100"
   xml:space="preserve"
   id="svg24"
   sodipodi:docname="videoediting.svg"
   width="100"
   height="100"
   inkscape:version="0.92.1 r15371"><metadata
     id="metadata30"><rdf:RDF><cc:Work
         rdf:about=""><dc:format>image/svg+xml</dc:format><dc:type
           rdf:resource="http://purl.org/dc/dcmitype/StillImage" /><dc:title></dc:title></cc:Work></rdf:RDF></metadata><defs
     id="defs28" /><sodipodi:namedview
     pagecolor="#ffffff"
     bordercolor="#666666"
     borderopacity="1"
     objecttolerance="10"
     gridtolerance="10"
     guidetolerance="10"
     inkscape:pageopacity="0"
     inkscape:pageshadow="2"
     inkscape:window-width="2560"
     inkscape:window-height="1506"
     id="namedview26"
     showgrid="false"
     inkscape:zoom="3.776"
     inkscape:cx="98.159126"
     inkscape:cy="36.644364"
     inkscape:window-x="-11"
     inkscape:window-y="-11"
     inkscape:window-maximized="1"
     inkscape:current-layer="svg24" /><g
     id="g4613"
     transform="matrix(1.1267565,0,0,1.1267565,131.97855,120.63046)"
     style="stroke-width:0.88750321"><path
       id="path4-1"
       d="m -109.02144,-62.049576 c 1.4,0 2.5,-1.1 2.5,-2.5 0,-1.4 -1.2,-2.4 -2.5,-2.4 -1.3,0 -2.5,1.1 -2.5,2.5 0,1.4 1.1,2.4 2.5,2.4 z m 0,-3.4 c 0.5,0 1,0.4 1,1 0,0.6 -0.4,1 -1,1 -0.6,0 -1,-0.4 -1,-1 0,-0.6 0.5,-1 1,-1 z"
       class="st0"
       inkscape:connector-curvature="0"
       style="stroke-width:0.88750321" /><path
       id="path6"
       d="m -103.42144,-62.049576 c 1.4,0 2.5,-1.1 2.5,-2.5 0,-1.4 -1.2,-2.4 -2.5,-2.4 -1.3,0 -2.5,1.1 -2.5,2.5 0,1.4 1.1,2.4 2.5,2.4 z m 0,-3.4 c 0.5,0 1,0.4 1,1 0,0.6 -0.4,1 -1,1 -0.6,0 -1,-0.4 -1,-1 0,-0.6 0.4,-1 1,-1 z"
       class="st0"
       inkscape:connector-curvature="0"
       style="stroke-width:0.88750321" /><path
       id="path8"
       d="m -29.421437,-76.149576 -2,-2 c -0.1,-0.1 -0.3,-0.2 -0.5,-0.2 -0.2,0 -0.4,0.1 -0.5,0.2 l -2.1,2.1 c -0.3,-0.3 -0.7,-0.3 -1,0 l -6.2,6.2 c 0,0 0,0 0,0 h -71.800003 c -0.4,0 -0.8,0.3 -0.8,0.8 v 48.4 c 0,0.4 0.3,0.8 0.8,0.8 h 75.100003 c 0.1,0 0.2,0 0.3,-0.1 0,0 0.1,0 0.1,-0.1 0.1,-0.1 0.2,-0.1 0.2,-0.2 0,0 0,0 0,0 0,0 0,0 0,0 0,0 0,-0.1 0,-0.1 0,0 0,-0.1 0,-0.1 0,0 0,0 0,0 v -45.4 l 6.1,-6.1 c 0.1,-0.1 0.2,-0.3 0.2,-0.5 0,-0.2 -0.1,-0.4 -0.2,-0.5 l 2.1,-2.1 c 0.5,-0.3 0.5,-0.8 0.2,-1.1 z m -5.7,1.7 1,1 1,1 -25.8,25.8 -1,-1 -1,-1 z m -11,17.5 h 3.7 l -7.7,3.6 3.7,-3.7 c 0.1,0.1 0.2,0.1 0.3,0.1 z m -15.4,15.7 c 0,8 -6.5,14.5 -14.5,14.5 -8,0 -14.5,-6.5 -14.5,-14.5 0,-1.8 0.3,-3.4 0.9,-5 0.1,-0.1 0.2,-0.2 0.3,-0.3 0.1,-0.2 0.1,-0.4 0,-0.5 2.3,-5.1 7.3,-8.6 13.2,-8.6 5.2,0 10,2.8 12.5,7.2 0.1,0.1 0.2,0.2 0.3,0.3 l -3.5,5.9 -13.9,-8.3 c -0.2,-0.1 -0.5,-0.1 -0.8,0 -0.2,0.1 -0.4,0.4 -0.4,0.7 v 17.4 c 0,0.3 0.1,0.5 0.4,0.7 0.1,0.1 0.2,0.1 0.4,0.1 0.1,0 0.3,0 0.4,-0.1 l 14.5,-8.7 c 0,0 0,0 0,0 l 4.3,-2.6 c 0.3,0.5 0.4,1.2 0.4,1.8 z m -6.3,0 -12.3,7.4 v -14.8 z m 3.6,-2.1 2.4,-4.1 1.7,1.7 z m 1.9,-6.1 c -2.4,-4 -6.4,-6.7 -10.9,-7.5 h 18.4 z m -28.2,1.5 -19.200003,-9 h 30.900003 c -5.2,0.9 -9.5,4.4 -11.7,9 z m -0.5,1.4 c -0.6,1.7 -0.9,3.5 -0.9,5.3 0,2.8 0.7,5.4 2,7.7 l -22.900003,11.6 v -34.8 z m 1.8,14.3 c 2.9,4.2 7.7,7 13.2,7 5.5,0 10.3,-2.8 13.2,-7 l 21.2,10.8 h -69.000003 z m 27.2,-1.3 c 1.3,-2.3 2,-4.9 2,-7.7 0,-0.9 -0.1,-1.8 -0.2,-2.7 l 1.7,-1 c 0,0 0,0 0.1,-0.1 0,0 0.1,0 0.1,-0.1 l 5.3,-5.3 c 0.1,0 0.2,0 0.3,-0.1 l 13.6,-6.4 v 34.9 z m 18.7,-34.8 -9.5,9.5 c -0.1,-0.1 -0.2,-0.1 -0.3,-0.1 h -59.700003 v -9.4 z m 4.1,9.4 h -5.4 l 5.4,-5.4 z m 6.6,-15.1 -0.5,-0.5 -0.5,-0.5 1.5,-1.5 1,1 z"
       class="st0"
       inkscape:connector-curvature="0"
       style="stroke-width:0.88750321" /></g></svg>