<?xml version="1.0" encoding="UTF-8" standalone="no"?>
<svg
   xmlns:dc="http://purl.org/dc/elements/1.1/"
   xmlns:cc="http://creativecommons.org/ns#"
   xmlns:rdf="http://www.w3.org/1999/02/22-rdf-syntax-ns#"
   xmlns:svg="http://www.w3.org/2000/svg"
   xmlns="http://www.w3.org/2000/svg"
   xmlns:sodipodi="http://sodipodi.sourceforge.net/DTD/sodipodi-0.dtd"
   xmlns:inkscape="http://www.inkscape.org/namespaces/inkscape"
   version="1.1"
   x="0px"
   y="0px"
   viewBox="0 0 100 100"
   enable-background="new 0 0 100 100"
   xml:space="preserve"
   id="svg24"
   sodipodi:docname="videofiletypes.svg"
   width="100"
   height="100"
   inkscape:version="0.92.1 r15371"><metadata
     id="metadata30"><rdf:RDF><cc:Work
         rdf:about=""><dc:format>image/svg+xml</dc:format><dc:type
           rdf:resource="http://purl.org/dc/dcmitype/StillImage" /><dc:title></dc:title></cc:Work></rdf:RDF></metadata><defs
     id="defs28" /><sodipodi:namedview
     pagecolor="#ffffff"
     bordercolor="#666666"
     borderopacity="1"
     objecttolerance="10"
     gridtolerance="10"
     guidetolerance="10"
     inkscape:pageopacity="0"
     inkscape:pageshadow="2"
     inkscape:window-width="2560"
     inkscape:window-height="1506"
     id="namedview26"
     showgrid="false"
     inkscape:zoom="3.776"
     inkscape:cx="149.66866"
     inkscape:cy="36.644364"
     inkscape:window-x="-11"
     inkscape:window-y="-11"
     inkscape:window-maximized="1"
     inkscape:current-layer="svg24" /><g
     id="g4587"
     transform="matrix(0.72388272,0,0,0.72434416,65.39137,11.399122)"
     style="stroke:#ffffff;stroke-width:0.27619976;stroke-miterlimit:4;stroke-dasharray:none;stroke-opacity:1"><path
       style="stroke:#ffffff;stroke-width:0.27619976;stroke-miterlimit:4;stroke-dasharray:none;stroke-opacity:1"
       id="path2-7"
       d="m -66.238136,72.632696 c -1.2245,0 -1.8355,1.131 -1.8355,2.388 0,1.2235 0.663,2.320999 1.8275,2.320999 1.1735,0 1.836,-1.079999 1.836,-2.38 -0.001,-1.1395 -0.597,-2.329 -1.828,-2.328999 z"
       inkscape:connector-curvature="0" /><path
       style="stroke:#ffffff;stroke-width:0.27619976;stroke-miterlimit:4;stroke-dasharray:none;stroke-opacity:1"
       id="path4-4"
       d="m -50.788136,43.016695 v 0.003 l -7.168,-7.168 h 0.003 l -1,-0.999999 h -0.8195 -25.0155 v 35 10 h 35 v -10 -25.015501 -0.8195 z m -7.9845,-6.5675 7.3865,7.3865 h -7.3865 z m -11.6145,41.402501 -0.1445,-2.5155 c -0.0425,-0.799001 -0.0935,-1.759501 -0.085,-2.4725 h -0.0255 c -0.1955,0.6715 -0.4335,1.3855 -0.7225,2.176 l -1.0115,2.7795 h -0.561 l -0.9265,-2.7285 c -0.272,-0.8075 -0.5015,-1.547 -0.663,-2.2265 h -0.0165 c -0.017,0.7145 -0.0595,1.675 -0.1105,2.5325 l -0.153,2.455 h -0.7055 l 0.3995,-5.7285 h 0.9435 l 0.9775,2.771 c 0.238,0.705 0.4335,1.334 0.578,1.929 h 0.0255 c 0.1445,-0.578 0.3485,-1.207 0.6035,-1.929 l 1.02,-2.771 h 0.9435 l 0.3565,5.7285 z m 4.097,0.094 c -1.5125,0 -2.575,-1.173499 -2.575,-2.905999 0,-1.8195 1.1305,-3.009 2.6605,-3.009 1.564,0 2.5745,1.198 2.5745,2.8975 0,1.9715 -1.198,3.017499 -2.66,3.017499 z m 5.6955,-0.094 h -0.816 l -1.8695,-5.7285 h 0.799 l 0.8925,2.822499 c 0.246,0.773501 0.459,1.469501 0.612,2.141501 h 0.0175 c 0.1605,-0.663 0.3995,-1.385501 0.6545,-2.134 l 0.969,-2.83 h 0.79 z m 9.8065,-8 h -33 V 35.851695 h 24.0155 v 8.9845 h 8.9845 z"
       inkscape:connector-curvature="0" /><path
       style="stroke:#ffffff;stroke-width:0.27619976;stroke-miterlimit:4;stroke-dasharray:none;stroke-opacity:1"
       id="path6-5"
       d="m -67.288136,45.768196 c -5.2925,0 -9.5835,4.290499 -9.5835,9.5835 0,5.292999 4.2905,9.5835 9.5835,9.5835 5.293,0 9.5835,-4.2905 9.5835,-9.5835 0,-5.293001 -4.2905,-9.5835 -9.5835,-9.5835 z m -3.6245,15.067499 V 49.867696 l 9.4985,5.484 z"
       inkscape:connector-curvature="0" /></g><g
     transform="matrix(0.36194132,0,0,0.3621722,21.799761,43.71961)"
     id="g4498"
     style="stroke:#ffffff;stroke-width:0.55239952;stroke-miterlimit:4;stroke-dasharray:none;stroke-opacity:1"><path
       inkscape:connector-curvature="0"
       id="path2-6"
       d="m 52.201,83.027 -2.703,3.757 v 0.034 h 3.621 V 83.13 c 0,-0.578 0.018,-1.155 0.051,-1.733 h -0.051 c -0.34,0.645 -0.612,1.121 -0.918,1.63 z"
       style="stroke:#ffffff;stroke-width:0.55239952;stroke-miterlimit:4;stroke-dasharray:none;stroke-opacity:1" /><path
       inkscape:connector-curvature="0"
       id="path4-40"
       d="m 83,21.33 v 0.006 L 68.664,7 h 0.006 l -2,-2 H 65.031 15 V 75 95 H 85 V 75 24.969 23.33 Z M 67.031,8.195 81.804,22.968 H 67.031 Z M 45.298,91 45.009,85.969 c -0.085,-1.598 -0.187,-3.519 -0.17,-4.945 h -0.051 c -0.391,1.343 -0.867,2.771 -1.445,4.352 l -2.023,5.559 h -1.122 l -1.853,-5.457 c -0.544,-1.615 -1.003,-3.094 -1.326,-4.453 h -0.034 c -0.034,1.429 -0.119,3.35 -0.221,5.065 L 36.459,91 h -1.411 l 0.799,-11.457 h 1.887 l 1.955,5.542 c 0.476,1.41 0.867,2.668 1.156,3.858 h 0.051 c 0.289,-1.156 0.697,-2.414 1.207,-3.858 l 2.04,-5.542 H 46.03 L 46.743,91 Z M 56.076,87.991 H 54.529 V 91 h -1.41 v -3.009 h -5.134 v -0.985 l 4.93,-7.055 h 1.614 v 6.867 h 1.547 z M 61.891,91 H 60.259 L 56.52,79.543 h 1.599 l 1.784,5.645 c 0.492,1.547 0.918,2.939 1.224,4.283 h 0.035 c 0.321,-1.326 0.799,-2.771 1.31,-4.268 l 1.938,-5.66 h 1.58 z M 83,75 H 17 V 7 H 65.031 V 24.969 H 83 Z"
       style="stroke:#ffffff;stroke-width:0.55239952;stroke-miterlimit:4;stroke-dasharray:none;stroke-opacity:1" /><path
       inkscape:connector-curvature="0"
       id="path6-4"
       d="M 50,26.833 C 39.415,26.833 30.833,35.414 30.833,46 30.833,56.586 39.414,65.167 50,65.167 60.586,65.167 69.167,56.586 69.167,46 69.167,35.414 60.586,26.833 50,26.833 Z M 42.751,56.968 V 35.032 L 61.748,46 Z"
       style="stroke:#ffffff;stroke-width:0.55239952;stroke-miterlimit:4;stroke-dasharray:none;stroke-opacity:1" /></g><g
     transform="matrix(0.36194132,0,0,0.3621722,44.792484,52.828013)"
     id="g4495"
     style="stroke:#ffffff;stroke-width:0.55239952;stroke-miterlimit:4;stroke-dasharray:none;stroke-opacity:1"><path
       inkscape:connector-curvature="0"
       id="path2-3"
       d="m 83,21.33 v 0.006 L 68.664,7 h 0.006 l -2,-2 H 65.031 15 V 75 95 H 85 V 75 24.969 23.33 Z M 67.031,8.195 81.804,22.968 H 67.031 Z M 44.899,91 44.61,85.969 C 44.525,84.371 44.423,82.45 44.44,81.024 h -0.05 c -0.391,1.343 -0.867,2.771 -1.445,4.352 l -2.023,5.559 H 39.8 l -1.853,-5.457 c -0.544,-1.615 -1.003,-3.094 -1.326,-4.453 h -0.034 c -0.034,1.429 -0.119,3.35 -0.221,5.065 L 36.061,91 H 34.65 l 0.799,-11.457 h 1.887 l 1.955,5.542 c 0.476,1.41 0.867,2.668 1.156,3.858 h 0.051 c 0.289,-1.156 0.697,-2.414 1.207,-3.858 l 2.04,-5.542 h 1.887 L 46.344,91 Z m 10.065,0 -3.774,-5.626 -1.086,1.258 V 91 H 48.625 V 79.543 h 1.479 v 5.523 h 0.051 c 0.306,-0.44 0.612,-0.85 0.901,-1.224 l 3.502,-4.301 h 1.836 l -4.147,4.86 4.468,6.599 z m 7.276,0 H 60.607 L 56.868,79.543 h 1.599 l 1.784,5.645 c 0.493,1.547 0.918,2.939 1.224,4.283 h 0.034 c 0.323,-1.326 0.8,-2.771 1.31,-4.268 l 1.938,-5.66 h 1.58 z M 83,75 H 17 V 7 H 65.031 V 24.969 H 83 Z"
       style="stroke:#ffffff;stroke-width:0.55239952;stroke-miterlimit:4;stroke-dasharray:none;stroke-opacity:1" /><path
       inkscape:connector-curvature="0"
       id="path4-6"
       d="M 50,26.833 C 39.415,26.833 30.833,35.414 30.833,46 30.833,56.586 39.414,65.167 50,65.167 60.586,65.167 69.167,56.586 69.167,46 69.167,35.414 60.586,26.833 50,26.833 Z M 42.751,56.968 V 35.032 L 61.748,46 Z"
       style="stroke:#ffffff;stroke-width:0.55239952;stroke-miterlimit:4;stroke-dasharray:none;stroke-opacity:1" /></g><g
     id="g4593"
     transform="matrix(0.72388272,0,0,0.72434416,33.936915,52.451307)"
     style="stroke:#ffffff;stroke-width:0.27619976;stroke-miterlimit:4;stroke-dasharray:none;stroke-opacity:1"><path
       style="stroke:#ffffff;stroke-width:0.27619976;stroke-miterlimit:4;stroke-dasharray:none;stroke-opacity:1"
       id="path2"
       d="m 70.421906,53.410234 c -0.323,0 -0.569499,0.0255 -0.6975,0.0595 v 2.2265 c 0.161501,0.043 0.365501,0.0595 0.612501,0.0595 0.8925,0 1.436499,-0.433 1.436499,-1.2235 0,-0.757 -0.535,-1.122 -1.3515,-1.122 z"
       inkscape:connector-curvature="0" /><path
       style="stroke:#ffffff;stroke-width:0.27619976;stroke-miterlimit:4;stroke-dasharray:none;stroke-opacity:1"
       id="path4"
       d="m 85.864406,23.759734 v 0.003 l -7.168,-7.167983 h 0.003 l -0.999984,-1 H 76.879905 51.864406 v 34.999999 10 h 35 v -10 -25.015499 -0.8195 z m -7.9845,-6.567499 7.3865,7.3865 h -7.3865 z m -10.756,41.402499 -0.144499,-2.515501 c -0.0425,-0.798999 -0.0935,-1.759499 -0.085,-2.472499 h -0.0255 c -0.1955,0.6715 -0.4335,1.3855 -0.7225,2.176 l -1.0115,2.779499 h -0.561 l -0.9265,-2.728499 c -0.272,-0.807501 -0.5015,-1.547001 -0.663,-2.2265 h -0.017 c -0.017,0.7145 -0.0595,1.675 -0.110499,2.5325 l -0.1525,2.455 h -0.705501 l 0.399501,-5.7285 h 0.943499 l 0.977501,2.771 c 0.238,0.705 0.4335,1.333999 0.577999,1.929 h 0.0255 c 0.1445,-0.578 0.3485,-1.207 0.6035,-1.929 l 1.02,-2.771 h 0.9435 l 0.3565,5.7285 z m 4.9475,-2.872501 c -0.3915,0.416501 -1.0295,0.6295 -1.751,0.6295 -0.220499,0 -0.425,-0.0095 -0.5945,-0.052 v 2.295001 h -0.7395 v -5.66 c 0.357,-0.0595 0.8245,-0.111001 1.419501,-0.111001 0.730499,0 1.266499,0.170001 1.606499,0.476001 0.3145,0.271999 0.501,0.6885 0.501,1.198 -5e-4,0.518999 -0.1535,0.926499 -0.442,1.224499 z m 4.964,1.368001 h -0.773499 v 1.5045 h -0.705501 v -1.5045 h -2.567 v -0.4925 l 2.465,-3.5275 h 0.807501 v 3.4335 h 0.773499 z m 8.829,-6.4955 h -33 V 16.594735 h 24.0155 v 8.9845 h 8.9845 z"
       inkscape:connector-curvature="0" /><path
       style="stroke:#ffffff;stroke-width:0.27619976;stroke-miterlimit:4;stroke-dasharray:none;stroke-opacity:1"
       id="path6"
       d="m 75.097406,54.608233 -1.351,1.878501 v 0.017 h 1.81 v -1.844 c 0,-0.289 0.0085,-0.5775 0.026,-0.8665 h -0.026 c -0.1705,0.3225 -0.306499,0.5605 -0.459,0.814999 z"
       inkscape:connector-curvature="0" /><path
       style="stroke:#ffffff;stroke-width:0.27619976;stroke-miterlimit:4;stroke-dasharray:none;stroke-opacity:1"
       id="path8"
       d="m 69.364406,26.511235 c -5.2925,0 -9.5835,4.2905 -9.5835,9.583499 0,5.293 4.2905,9.5835 9.5835,9.5835 5.293,0 9.5835,-4.2905 9.5835,-9.5835 0,-5.292999 -4.2905,-9.583499 -9.5835,-9.583499 z M 65.739907,41.578734 V 30.610735 l 9.498499,5.483999 z"
       inkscape:connector-curvature="0" /></g></svg>