<?xml version="1.0" encoding="UTF-8" standalone="no"?>
<svg
   xmlns:dc="http://purl.org/dc/elements/1.1/"
   xmlns:cc="http://creativecommons.org/ns#"
   xmlns:rdf="http://www.w3.org/1999/02/22-rdf-syntax-ns#"
   xmlns:svg="http://www.w3.org/2000/svg"
   xmlns="http://www.w3.org/2000/svg"
   xmlns:sodipodi="http://sodipodi.sourceforge.net/DTD/sodipodi-0.dtd"
   xmlns:inkscape="http://www.inkscape.org/namespaces/inkscape"
   version="1.1"
   x="0px"
   y="0px"
   viewBox="0 0 100 100"
   enable-background="new 0 0 100 100"
   xml:space="preserve"
   id="svg24"
   sodipodi:docname="videospeed.svg"
   width="100"
   height="100"
   inkscape:version="0.92.1 r15371"><metadata
     id="metadata30"><rdf:RDF><cc:Work
         rdf:about=""><dc:format>image/svg+xml</dc:format><dc:type
           rdf:resource="http://purl.org/dc/dcmitype/StillImage" /><dc:title></dc:title></cc:Work></rdf:RDF></metadata><defs
     id="defs28" /><sodipodi:namedview
     pagecolor="#ffffff"
     bordercolor="#666666"
     borderopacity="1"
     objecttolerance="10"
     gridtolerance="10"
     guidetolerance="10"
     inkscape:pageopacity="0"
     inkscape:pageshadow="2"
     inkscape:window-width="2560"
     inkscape:window-height="1506"
     id="namedview26"
     showgrid="false"
     inkscape:zoom="3.776"
     inkscape:cx="149.66866"
     inkscape:cy="36.644364"
     inkscape:window-x="-11"
     inkscape:window-y="-11"
     inkscape:window-maximized="1"
     inkscape:current-layer="svg24" /><g
     transform="translate(0.59520704,13.41122)"
     id="g4492"><path
       inkscape:connector-curvature="0"
       id="path2"
       d="m 14.2,63.9 c 0.3,0.5 0.2,1.1 -0.3,1.4 -0.2,0.1 -0.4,0.2 -0.6,0.2 -0.3,0 -0.6,-0.2 -0.8,-0.4 -1,-1.4 -1.8,-2.9 -2.5,-4.4 -0.2,-0.5 0,-1.1 0.5,-1.3 0.5,-0.2 1.1,0 1.3,0.5 0.7,1.3 1.5,2.7 2.4,4 z M 62.4,19.4 c 1.6,0.2 3.1,0.6 4.7,1 0.1,0 0.2,0 0.3,0 0.4,0 0.8,-0.3 1,-0.7 0.2,-0.5 -0.1,-1.1 -0.7,-1.3 -1.6,-0.5 -3.3,-0.9 -5,-1.1 -0.5,-0.1 -1.1,0.3 -1.1,0.9 -0.2,0.6 0.2,1.1 0.8,1.2 z M 8.2,46.8 c 0,0 0.1,0 0,0 0.6,0 1,-0.4 1.1,-0.9 C 9.4,44.3 9.6,42.7 10,41.2 10.1,40.7 9.8,40.1 9.3,40 8.8,39.9 8.2,40.2 8.1,40.7 c -0.4,1.7 -0.7,3.3 -0.8,5 -0.1,0.6 0.4,1 0.9,1.1 z m 2,8.5 C 9.8,53.8 9.5,52.2 9.3,50.6 9.2,50.1 8.8,49.7 8.2,49.7 c -0.5,0.1 -1,0.5 -0.9,1.1 0.2,1.7 0.5,3.4 0.9,5 0.1,0.4 0.5,0.7 1,0.7 0.1,0 0.2,0 0.3,0 0.6,-0.1 0.9,-0.7 0.7,-1.2 z M 71.5,22.2 c 1.4,0.7 2.8,1.6 4.1,2.5 0.2,0.1 0.4,0.2 0.6,0.2 0.3,0 0.6,-0.1 0.8,-0.4 0.3,-0.4 0.2,-1.1 -0.2,-1.4 -1.4,-1 -2.8,-1.9 -4.3,-2.7 -0.5,-0.2 -1.1,-0.1 -1.3,0.4 -0.4,0.5 -0.2,1.2 0.3,1.4 z m 15.6,22.6 c 0.1,1 0.1,1.9 0.1,2.9 0,0.6 0,1.2 -0.1,1.9 0,0.6 0.4,1 0.9,1.1 0,0 0,0 0.1,0 0.5,0 1,-0.4 1,-0.9 0,-0.7 0.1,-1.3 0.1,-2 0,-1 -0.1,-2.1 -0.2,-3.1 -0.1,-0.5 -0.5,-1 -1.1,-0.9 -0.5,0 -0.9,0.5 -0.8,1 z M 15.9,28.9 c 0.3,0 0.5,-0.1 0.7,-0.3 1.1,-1.2 2.2,-2.3 3.5,-3.3 0.4,-0.3 0.5,-1 0.2,-1.4 -0.3,-0.4 -1,-0.5 -1.4,-0.2 -1.3,1.1 -2.6,2.2 -3.7,3.5 -0.4,0.4 -0.3,1 0.1,1.4 0.1,0.2 0.3,0.3 0.6,0.3 z m 71.8,24.7 c 0.2,0.1 0.4,0.3 0.6,0.5 -0.2,-0.3 -0.4,-0.4 -0.6,-0.5 z M 86.2,40.2 c 0.1,0.4 0.5,0.7 1,0.7 0.1,0 0.2,0 0.3,0 0.5,-0.1 0.8,-0.7 0.7,-1.2 -0.5,-1.6 -1.1,-3.2 -1.8,-4.8 -0.2,-0.5 -0.8,-0.7 -1.3,-0.5 -0.5,0.2 -0.7,0.8 -0.5,1.3 0.6,1.4 1.2,2.9 1.6,4.5 z m -4.1,-8.7 c 0.2,0.3 0.5,0.4 0.8,0.4 0.2,0 0.4,-0.1 0.6,-0.2 0.5,-0.3 0.6,-0.9 0.3,-1.4 -1,-1.4 -2.1,-2.7 -3.2,-3.9 -0.4,-0.4 -1,-0.4 -1.4,0 -0.4,0.4 -0.4,1 0,1.4 1,1.2 2,2.4 2.9,3.7 z m -71.9,5.6 c 0.1,0.1 0.3,0.1 0.4,0.1 0.4,0 0.8,-0.2 0.9,-0.6 0.6,-1.5 1.4,-2.9 2.2,-4.2 0.3,-0.5 0.2,-1.1 -0.3,-1.4 -0.5,-0.3 -1.1,-0.2 -1.4,0.3 -0.9,1.4 -1.7,3 -2.4,4.5 -0.2,0.5 0.1,1.1 0.6,1.3 z m 7.1,30.5 c -0.4,-0.4 -1,-0.4 -1.4,0 -0.4,0.4 -0.4,1 0,1.4 1.2,1.2 2.5,2.4 3.8,3.4 0.2,0.1 0.4,0.2 0.6,0.2 0.3,0 0.6,-0.1 0.8,-0.4 0.3,-0.4 0.2,-1.1 -0.2,-1.4 -1.3,-1 -2.5,-2 -3.6,-3.2 z M 52.6,19.1 h 4.9 c 0.6,0 1,-0.4 1,-1 0,-0.6 -0.4,-1 -1,-1 h -4.9 c -0.6,0 -1,0.4 -1,1 0,0.6 0.5,1 1,1 z m 6.1,57.3 h -5.1 c -0.6,0 -1,0.4 -1,1 0,0.6 0.4,1 1,1 h 5.1 c 0.6,0 1,-0.4 1,-1 0,-0.6 -0.5,-1 -1,-1 z m -16,-57.3 h 4.9 c 0.6,0 1,-0.4 1,-1 0,-0.6 -0.4,-1 -1,-1 h -4.9 c -0.6,0 -1,0.4 -1,1 0,0.6 0.5,1 1,1 z m 19.9,58 c 0.1,0.4 0.4,0.7 0.7,0.8 -0.3,-0.4 -0.5,-0.8 -0.7,-1.1 0,0.1 0,0.2 0,0.3 z M 48.7,76.4 h -4.9 c -0.6,0 -1,0.4 -1,1 0,0.6 0.4,1 1,1 h 4.9 c 0.6,0 1,-0.4 1,-1 0,-0.6 -0.5,-1 -1,-1 z M 23.6,22.8 c 0.2,0 0.3,0 0.5,-0.1 1.4,-0.8 2.9,-1.4 4.4,-2 0.5,-0.2 0.8,-0.8 0.6,-1.3 -0.2,-0.5 -0.8,-0.8 -1.3,-0.6 -1.6,0.6 -3.2,1.3 -4.7,2.1 -0.5,0.3 -0.7,0.9 -0.4,1.4 0.2,0.3 0.5,0.5 0.9,0.5 z m 15.2,53.6 h -0.9 c -1.3,0 -2.6,-0.1 -3.9,-0.3 -0.5,-0.1 -1.1,0.3 -1.1,0.9 -0.1,0.5 0.3,1.1 0.9,1.1 1.4,0.2 2.8,0.3 4.1,0.3 h 0.9 c 0.6,0 1,-0.4 1,-1 0,-0.6 -0.5,-1 -1,-1 z m -9.5,-1.3 c -1.5,-0.5 -3,-1.1 -4.4,-1.8 -0.5,-0.3 -1.1,-0.1 -1.3,0.4 -0.3,0.5 -0.1,1.1 0.4,1.3 1.5,0.8 3.1,1.4 4.7,1.9 0.1,0 0.2,0 0.3,0 0.4,0 0.8,-0.3 1,-0.7 0.1,-0.4 -0.1,-0.9 -0.7,-1.1 z m 3.6,-55.6 c 0.1,0 0.1,0 0.2,0 1.6,-0.3 3.2,-0.4 4.8,-0.4 0.6,0 1,-0.5 1,-1 0,-0.6 -0.4,-1 -1,-1 0,0 0,0 0,0 -1.7,0 -3.4,0.2 -5.1,0.4 -0.5,0.1 -0.9,0.6 -0.8,1.2 0,0.5 0.4,0.8 0.9,0.8 z M 60.3,68 c 0,1.6 0.2,3.1 0.6,4.6 -0.9,0.1 -1.8,0.1 -2.7,0.1 h -20 c -13.8,0 -25,-11.3 -25,-25 v 0 c 0,-13.7 11.3,-25 25,-25 h 20 c 13.8,0 25,11.3 25,25 v 0 c 0,1.2 -0.1,2.4 -0.3,3.5 -1.6,-0.5 -3.4,-0.8 -5.2,-0.8 -9.6,0.1 -17.4,8 -17.4,17.6 z M 57.9,46 43.7,35.4 c -1.5,-1.1 -3.6,0 -3.6,1.8 v 21.1 c 0,1.8 2.1,2.9 3.6,1.8 L 58,49.5 c 1.1,-0.8 1.1,-2.6 -0.1,-3.5 z m 15.8,21.6 c -0.7,1.7 0.2,3.6 1.9,4.2 1.7,0.7 3.6,-0.2 4.2,-1.9 l 2.7,-6.9 -6.9,2.7 c -0.8,0.4 -1.5,1 -1.9,1.9 z m 19,0.3 c 0,8.3 -6.7,15 -15,15 -8.3,0 -15,-6.7 -15,-15 0,-8.3 6.7,-15 15,-15 8.3,0 15,6.7 15,15 z m -7.3,0 c 0,-0.4 0.3,-0.7 0.7,-0.7 h 2.2 C 88,61.9 83.7,57.7 78.5,57.4 v 2.2 c 0,0.4 -0.3,0.7 -0.7,0.7 -0.4,0 -0.7,-0.3 -0.7,-0.7 v -2.2 c -5.3,0.3 -9.5,4.6 -9.8,9.8 h 2.2 c 0.4,0 0.7,0.3 0.7,0.7 0,0.4 -0.3,0.7 -0.7,0.7 h -2.2 c 0.3,5.3 4.6,9.5 9.8,9.8 v -2.2 c 0,-0.4 0.3,-0.7 0.7,-0.7 0.4,0 0.7,0.3 0.7,0.7 v 2.2 c 5.3,-0.3 9.5,-4.6 9.8,-9.8 h -2.2 c -0.4,-0.1 -0.7,-0.4 -0.7,-0.7 z" /></g></svg>