<?xml version="1.0" encoding="UTF-8" standalone="no"?>
<svg
   xmlns:dc="http://purl.org/dc/elements/1.1/"
   xmlns:cc="http://creativecommons.org/ns#"
   xmlns:rdf="http://www.w3.org/1999/02/22-rdf-syntax-ns#"
   xmlns:svg="http://www.w3.org/2000/svg"
   xmlns="http://www.w3.org/2000/svg"
   xmlns:sodipodi="http://sodipodi.sourceforge.net/DTD/sodipodi-0.dtd"
   xmlns:inkscape="http://www.inkscape.org/namespaces/inkscape"
   version="1.1"
   x="0px"
   y="0px"
   viewBox="0 0 100 100"
   xml:space="preserve"
   id="svg16"
   sodipodi:docname="videocut.svg"
   width="100"
   height="100"
   inkscape:version="0.92.1 r15371"><metadata
     id="metadata22"><rdf:RDF><cc:Work
         rdf:about=""><dc:format>image/svg+xml</dc:format><dc:type
           rdf:resource="http://purl.org/dc/dcmitype/StillImage" /><dc:title></dc:title></cc:Work></rdf:RDF></metadata><defs
     id="defs20" /><sodipodi:namedview
     pagecolor="#ffffff"
     bordercolor="#666666"
     borderopacity="1"
     objecttolerance="10"
     gridtolerance="10"
     guidetolerance="10"
     inkscape:pageopacity="0"
     inkscape:pageshadow="2"
     inkscape:window-width="2560"
     inkscape:window-height="1506"
     id="namedview18"
     showgrid="false"
     inkscape:zoom="5.3400704"
     inkscape:cx="104.32008"
     inkscape:cy="24.346532"
     inkscape:window-x="-11"
     inkscape:window-y="-11"
     inkscape:window-maximized="1"
     inkscape:current-layer="svg16" /><g
     id="g10"
     transform="matrix(1.1397152,0,0,1.1397152,-6.5763047,10.077111)"
     style="stroke-width:0.8774122"><path
       d="m 43,62.9 c -1.3,-0.7 -2.8,-1 -4.2,-0.6 -1.4,0.4 -2.6,1.3 -3.4,2.6 -1.5,2.6 -0.7,6 2,7.6 0.9,0.5 1.8,0.8 2.8,0.8 0.5,0 0.9,-0.1 1.4,-0.2 1.4,-0.4 2.6,-1.3 3.4,-2.6 1.5,-2.6 0.7,-6 -2,-7.6 z m 0.1,6.5 c -0.5,0.8 -1.2,1.3 -2.1,1.6 -0.9,0.2 -1.8,0.1 -2.6,-0.4 -1.6,-0.9 -2.1,-3 -1.2,-4.6 0.5,-0.8 1.2,-1.3 2.1,-1.6 0.3,-0.1 0.6,-0.1 0.9,-0.1 0.6,0 1.2,0.2 1.7,0.5 0.8,0.5 1.3,1.2 1.6,2.1 0.2,0.8 0.1,1.7 -0.4,2.5 z"
       id="path2"
       inkscape:connector-curvature="0"
       style="stroke-width:0.8774122" /><path
       d="m 83.9,47 c 3,-4.5 4.4,-6.7 7.4,-11.2 C 80.1,28.1 66.7,23.7 53.2,22 c -0.6,5.3 -0.9,8 -1.5,13.3 1.2,0.1 2.4,0.3 3.6,0.5 l -3.8,6.4 -3.8,-5.9 c 0,-1.1 -0.1,-2.2 -0.1,-3.5 -0.7,0 -1.5,0 -2.2,0 l -4.2,-6.4 c -0.4,-0.7 -1.3,-0.9 -2,-0.6 -0.7,0.4 -1.1,1.2 -0.8,1.9 l 1.7,4.9 C 31.1,32 22.2,29.7 13.9,25.8 11.6,30.7 10.5,33.1 8.2,38 c 11.3,5.5 24.1,8 36.7,8.2 l 1.6,4.4 -4.5,7.9 c -4,-0.8 -8.2,1.2 -10.1,4.8 -2.3,4.3 -0.9,9.6 3.2,12.3 1.6,1 3.3,1.5 5.1,1.5 0.7,0 1.5,-0.1 2.2,-0.3 2.5,-0.6 4.6,-2.2 5.9,-4.4 v 0 C 50.2,69.1 50,65.1 47.7,62 l 3.8,-6.5 0.6,0.2 4.3,6.7 c -2.1,3.1 -2.2,7.2 -0.1,10.4 1.4,2.2 3.6,3.6 6.1,4.1 0.6,0.1 1.2,0.2 1.8,0.2 1.9,0 3.8,-0.6 5.5,-1.8 3.9,-2.8 5,-8.3 2.6,-12.4 C 70.2,59.3 66,57.6 62,58.6 l -5.2,-8 4.3,-13.6 c 8.1,2 15.8,5.4 22.8,10 z M 14.2,37.2 c -0.1,0.2 -0.1,0.3 -0.2,0.5 -0.2,0.4 -0.7,0.6 -1.2,0.4 -0.2,-0.1 -0.4,-0.2 -0.6,-0.3 -0.5,-0.2 -0.8,-0.7 -0.6,-1.2 0.1,-0.2 0.1,-0.3 0.2,-0.5 0.2,-0.4 0.7,-0.6 1.2,-0.4 0.2,0.1 0.4,0.2 0.6,0.3 0.5,0.2 0.8,0.8 0.6,1.2 z m 0.9,-6.3 c -0.5,-0.2 -0.7,-0.7 -0.5,-1.1 0.1,-0.2 0.1,-0.3 0.2,-0.5 0.2,-0.4 0.7,-0.6 1.2,-0.4 0.2,0.1 0.3,0.1 0.5,0.2 0.5,0.2 0.7,0.7 0.5,1.1 -0.1,0.2 -0.1,0.3 -0.2,0.5 -0.2,0.4 -0.7,0.6 -1.2,0.5 -0.2,-0.1 -0.3,-0.2 -0.5,-0.3 z m 3.5,7.9 c -0.1,0.2 -0.1,0.3 -0.2,0.5 -0.2,0.4 -0.7,0.7 -1.2,0.5 -0.3,-0.1 -0.4,-0.1 -0.6,-0.2 -0.5,-0.2 -0.8,-0.7 -0.6,-1.1 0.1,-0.2 0.1,-0.3 0.2,-0.5 0.2,-0.4 0.7,-0.7 1.2,-0.5 0.2,0.1 0.4,0.1 0.6,0.2 0.4,0.1 0.7,0.6 0.6,1.1 z m 1.1,-6.1 c -0.2,-0.1 -0.3,-0.1 -0.6,-0.2 -0.5,-0.2 -0.7,-0.7 -0.6,-1.1 0.1,-0.2 0.1,-0.3 0.2,-0.5 0.2,-0.4 0.7,-0.7 1.1,-0.5 0.2,0.1 0.3,0.1 0.6,0.2 0.5,0.2 0.7,0.7 0.6,1.1 -0.1,0.2 -0.1,0.3 -0.2,0.5 -0.1,0.4 -0.7,0.6 -1.1,0.5 z m 3.3,7.5 c -0.1,0.2 -0.1,0.3 -0.2,0.6 -0.1,0.5 -0.7,0.7 -1.2,0.6 -0.3,-0.1 -0.4,-0.1 -0.6,-0.2 -0.5,-0.2 -0.8,-0.7 -0.7,-1.1 0.1,-0.2 0.1,-0.3 0.2,-0.5 0.1,-0.5 0.7,-0.7 1.2,-0.5 0.2,0.1 0.4,0.1 0.6,0.2 0.5,-0.1 0.8,0.4 0.7,0.9 z M 23.8,34 c -0.2,-0.1 -0.4,-0.1 -0.6,-0.2 -0.5,-0.1 -0.8,-0.6 -0.6,-1.1 0.1,-0.2 0.1,-0.3 0.2,-0.5 0.1,-0.5 0.6,-0.7 1.1,-0.6 0.2,0.1 0.3,0.1 0.6,0.2 0.5,0.1 0.8,0.6 0.6,1.1 -0.1,0.2 -0.1,0.3 -0.2,0.6 -0.2,0.4 -0.7,0.6 -1.1,0.5 z m 3.6,7.8 c -0.1,0.5 -0.6,0.7 -1.2,0.6 -0.3,-0.1 -0.4,-0.1 -0.7,-0.2 -0.5,-0.1 -0.9,-0.6 -0.8,-1.1 0.1,-0.2 0.1,-0.3 0.1,-0.6 0.1,-0.5 0.6,-0.7 1.2,-0.6 0.3,0.1 0.4,0.1 0.6,0.1 0.5,0.1 0.9,0.6 0.8,1 0.1,0.5 0,0.6 0,0.8 z m 1.7,-7.9 c 0,0.2 -0.1,0.3 -0.1,0.6 -0.1,0.5 -0.6,0.8 -1.1,0.6 C 27.7,35 27.5,35 27.3,35 c -0.5,-0.1 -0.8,-0.6 -0.7,-1 0.1,-0.2 0.1,-0.3 0.1,-0.6 0.1,-0.5 0.6,-0.7 1.1,-0.6 0.2,0.1 0.3,0.1 0.6,0.1 0.5,0 0.8,0.5 0.7,1 z m 2.9,8.8 c -0.1,0.5 -0.6,0.8 -1.1,0.7 -0.3,0 -0.4,-0.1 -0.7,-0.1 -0.5,-0.1 -0.9,-0.6 -0.8,-1 0,-0.2 0.1,-0.3 0.1,-0.6 0.1,-0.5 0.6,-0.8 1.1,-0.7 0.3,0 0.4,0.1 0.6,0.1 0.5,0.1 0.9,0.5 0.8,1 0,0.2 0,0.4 0,0.6 z m 1.2,-7.5 c -0.1,0.5 -0.5,0.8 -1,0.7 -0.2,0 -0.4,-0.1 -0.6,-0.1 -0.5,-0.1 -0.8,-0.5 -0.7,-1 0,-0.2 0.1,-0.3 0.1,-0.6 0.1,-0.5 0.6,-0.8 1,-0.7 0.2,0 0.3,0.1 0.6,0.1 0.5,0.1 0.8,0.5 0.7,1 -0.1,0.3 -0.1,0.4 -0.1,0.6 z m 3.4,8.1 c 0,0.5 -0.5,0.8 -1.1,0.7 -0.3,0 -0.4,0 -0.7,-0.1 -0.5,-0.1 -0.9,-0.5 -0.9,-1 0,-0.2 0,-0.3 0.1,-0.6 0.1,-0.5 0.5,-0.8 1.1,-0.7 0.3,0 0.4,0 0.6,0.1 0.5,0.1 0.9,0.5 0.9,1 0,0.2 0,0.4 0,0.6 z m 0.8,-7.5 c 0,0.5 -0.5,0.8 -1,0.8 -0.2,0 -0.4,0 -0.6,-0.1 -0.5,-0.1 -0.9,-0.5 -0.8,-1 0,-0.2 0,-0.3 0.1,-0.6 0.1,-0.5 0.5,-0.8 1,-0.7 0.2,0 0.4,0 0.6,0.1 0.5,0.1 0.8,0.5 0.8,0.9 -0.1,0.2 -0.1,0.3 -0.1,0.6 z m 3.9,7.8 c 0,0.5 -0.5,0.8 -1,0.8 -0.3,0 -0.4,0 -0.7,0 -0.6,0 -1,-0.5 -0.9,-0.9 0,-0.2 0,-0.3 0,-0.6 0,-0.5 0.5,-0.8 1,-0.8 0.3,0 0.4,0 0.6,0 0.5,0 1,0.4 0.9,0.9 0.1,0.3 0.1,0.4 0.1,0.6 z m -0.6,-6.7 c -0.2,0 -0.4,0 -0.6,0 -0.5,0 -0.9,-0.4 -0.8,-0.9 0,-0.2 0,-0.3 0,-0.6 0,-0.5 0.5,-0.8 1,-0.8 0.2,0 0.4,0 0.6,0 0,0 0.1,0 0.1,0 l 0.6,1.7 c -0.2,0.4 -0.5,0.6 -0.9,0.6 z m 1.6,-4.1 -1.3,-3.4 2.2,3.5 c -0.1,-0.1 -0.8,-0.1 -0.9,-0.1 z m 2,11.8 c -0.6,0 -1,-0.4 -1,-0.9 0,-0.2 0,-0.3 0,-0.6 0,-0.3 0.2,-0.5 0.4,-0.7 l 0.8,2.1 c -0.1,0.1 -0.1,0.1 -0.2,0.1 z m 1.2,-7.7 c -0.2,0 -0.3,0.1 -0.5,0.1 -0.2,0 -0.4,0 -0.6,0 -0.1,0 -0.2,0 -0.3,-0.1 l -0.5,-1.5 c 0.1,-0.3 0.3,-0.6 0.6,-0.7 0.1,0 0.2,0 0.3,0 0.2,0 0.4,0 0.6,0 0.2,0 0.4,0.1 0.5,0.2 l 0.3,0.5 c 0,0 0,0.1 0,0.1 0,0.2 0,0.3 0,0.6 0,0.4 -0.2,0.6 -0.4,0.8 z m 39.9,-1.1 c 0.1,-0.2 0.2,-0.3 0.3,-0.5 0.2,-0.4 0.8,-0.5 1.3,-0.2 0.2,0.1 0.3,0.2 0.6,0.3 0.5,0.3 0.7,0.9 0.4,1.3 -0.1,0.2 -0.2,0.3 -0.3,0.5 -0.2,0.4 -0.8,0.5 -1.3,0.2 -0.2,-0.1 -0.3,-0.2 -0.6,-0.3 -0.5,-0.3 -0.6,-0.9 -0.4,-1.3 z M 84,43.1 c -0.1,0.2 -0.2,0.3 -0.3,0.5 -0.3,0.4 -0.8,0.5 -1.2,0.3 -0.2,-0.1 -0.3,-0.2 -0.5,-0.3 -0.4,-0.3 -0.6,-0.8 -0.3,-1.2 0.1,-0.2 0.2,-0.3 0.3,-0.5 0.2,-0.4 0.8,-0.5 1.2,-0.3 0.2,0.1 0.3,0.2 0.5,0.3 0.4,0.3 0.5,0.8 0.3,1.2 z m -2.7,-9.5 c 0.1,-0.2 0.2,-0.3 0.3,-0.5 0.2,-0.4 0.8,-0.6 1.3,-0.3 0.2,0.1 0.4,0.2 0.6,0.3 0.5,0.3 0.7,0.8 0.5,1.2 -0.1,0.2 -0.2,0.3 -0.3,0.5 -0.2,0.4 -0.8,0.5 -1.3,0.3 C 82.1,35 82,35 81.8,34.8 81.3,34.6 81.1,34 81.3,33.6 Z m -1,7.4 c -0.1,0.2 -0.2,0.3 -0.3,0.5 -0.2,0.4 -0.8,0.6 -1.2,0.3 -0.2,-0.1 -0.3,-0.2 -0.5,-0.3 -0.4,-0.2 -0.6,-0.7 -0.4,-1.2 0.1,-0.2 0.2,-0.3 0.3,-0.5 0.2,-0.4 0.8,-0.6 1.2,-0.3 0.2,0.1 0.3,0.2 0.5,0.3 0.4,0.2 0.6,0.8 0.4,1.2 z m -3.2,-9.4 c 0.1,-0.2 0.1,-0.3 0.2,-0.5 0.2,-0.4 0.8,-0.6 1.3,-0.4 0.2,0.1 0.4,0.2 0.6,0.3 0.5,0.2 0.7,0.8 0.5,1.2 -0.1,0.2 -0.1,0.3 -0.2,0.5 -0.2,0.4 -0.8,0.6 -1.3,0.4 C 78,33 77.8,32.9 77.6,32.8 77.2,32.6 76.9,32.1 77.1,31.6 Z M 76.5,39 c -0.1,0.2 -0.1,0.3 -0.2,0.5 -0.3,0.5 -0.8,0.7 -1.2,0.5 -0.2,-0.1 -0.3,-0.1 -0.5,-0.2 -0.4,-0.2 -0.7,-0.7 -0.5,-1.1 0.1,-0.2 0.1,-0.3 0.2,-0.5 0.2,-0.4 0.7,-0.6 1.2,-0.4 0.2,0.1 0.3,0.2 0.6,0.3 0.4,0 0.6,0.5 0.4,0.9 z m -3.7,-9.1 c 0.1,-0.2 0.1,-0.3 0.2,-0.5 0.2,-0.4 0.7,-0.6 1.2,-0.4 0.2,0.1 0.4,0.1 0.6,0.2 0.5,0.2 0.8,0.7 0.6,1.2 -0.1,0.2 -0.1,0.3 -0.2,0.5 -0.2,0.4 -0.7,0.6 -1.2,0.4 -0.2,-0.1 -0.4,-0.1 -0.6,-0.2 -0.5,-0.3 -0.7,-0.8 -0.6,-1.2 z M 71.5,36 c 0.2,0.1 0.3,0.1 0.6,0.2 0.5,0.2 0.7,0.7 0.5,1.1 -0.1,0.2 -0.1,0.3 -0.2,0.5 -0.2,0.4 -0.7,0.6 -1.1,0.5 -0.2,-0.1 -0.3,-0.1 -0.5,-0.2 -0.5,-0.2 -0.7,-0.7 -0.5,-1.1 0.1,-0.2 0.1,-0.3 0.2,-0.5 0,-0.5 0.6,-0.7 1,-0.5 z m -3,-7.6 c 0.1,-0.2 0.1,-0.3 0.2,-0.5 0.1,-0.5 0.7,-0.7 1.2,-0.5 0.3,0.1 0.4,0.1 0.6,0.2 0.5,0.2 0.8,0.7 0.7,1.1 -0.1,0.2 -0.2,0.3 -0.2,0.5 -0.2,0.4 -0.7,0.7 -1.2,0.5 -0.2,-0.1 -0.4,-0.1 -0.6,-0.2 -0.6,-0.2 -0.9,-0.7 -0.7,-1.1 z m -1,6.1 c 0.2,0.1 0.3,0.1 0.6,0.2 0.5,0.2 0.7,0.7 0.6,1.1 -0.1,0.2 -0.1,0.3 -0.2,0.5 -0.2,0.4 -0.7,0.7 -1.1,0.5 -0.2,-0.1 -0.3,-0.1 -0.6,-0.2 -0.5,-0.2 -0.7,-0.6 -0.6,-1.1 0.1,-0.2 0.1,-0.3 0.2,-0.5 0.1,-0.4 0.6,-0.6 1.1,-0.5 z m -3.3,-7.8 c 0,-0.1 0,-0.3 0,-0.4 0.2,-0.3 0.6,-0.4 1,-0.3 0.3,0.1 0.4,0.1 0.6,0.2 0.5,0.1 0.9,0.6 0.7,1.1 -0.1,0.2 -0.1,0.3 -0.2,0.5 -0.1,0.5 -0.7,0.7 -1.2,0.6 -0.3,-0.1 -0.4,-0.1 -0.6,-0.2 -0.4,-0.1 -0.7,-0.4 -0.7,-0.7 z m -2.1,7.8 c 0.1,-0.2 0.1,-0.3 0.1,-0.6 0.1,-0.5 0.6,-0.7 1.1,-0.6 0.2,0.1 0.4,0.1 0.6,0.2 0.5,0.1 0.8,0.6 0.6,1.1 -0.1,0.2 -0.1,0.3 -0.2,0.5 -0.1,0.5 -0.6,0.7 -1.1,0.6 C 63,35.6 62.9,35.6 62.6,35.5 62.3,35.4 62,34.9 62.1,34.5 Z M 55,24.8 c 0.1,-0.5 0.6,-0.8 1.1,-0.7 0.3,0 0.4,0.1 0.7,0.1 0.5,0.1 0.9,0.5 0.8,1 0,0.2 -0.1,0.3 -0.1,0.6 -0.1,0.5 -0.6,0.8 -1.1,0.7 -0.3,0 -0.4,-0.1 -0.6,-0.1 -0.5,-0.1 -0.9,-0.5 -0.9,-1 0,-0.3 0,-0.4 0.1,-0.6 z m 0.2,9.1 c -0.2,0 -0.4,-0.1 -0.6,-0.1 -0.5,-0.1 -0.8,-0.5 -0.8,-1 0,-0.2 0,-0.3 0.1,-0.6 0.1,-0.5 0.5,-0.8 1,-0.7 0.2,0 0.4,0.1 0.6,0.1 0.5,0.1 0.8,0.5 0.8,1 0,0.2 -0.1,0.3 -0.1,0.6 -0.1,0.5 -0.5,0.8 -1,0.7 z m -10.1,28.4 0.5,0.6 c 2.1,2.3 2.4,5.7 0.8,8.5 v 0 c -1,1.7 -2.6,2.9 -4.6,3.4 -1.9,0.5 -3.9,0.1 -5.6,-1 -3.1,-2 -4.2,-6.2 -2.4,-9.4 1.3,-2.4 3.8,-3.8 6.4,-3.8 0.7,0 1.3,0.1 2,0.3 l 0.8,0.2 4.5,-7.7 0.5,1.3 1.4,0.4 z M 61.2,61.1 62,60.8 c 3.2,-1.1 6.8,0.2 8.6,3.2 1.9,3.2 1,7.4 -2,9.6 C 67,74.7 65,75.1 63,74.8 61,74.4 59.4,73.3 58.3,71.6 56.6,69 56.8,65.6 58.7,63.1 L 59.2,62.5 54,54.5 53.6,53.9 53,53.7 51.1,53.2 49.7,52.8 49,50.8 48.5,49.5 48,48.2 47.3,46.3 c 0.2,0 0.5,0 0.7,0 -0.1,-2.2 -0.1,-4 -0.2,-5.7 l 2.5,3.8 0.7,1 0.7,1 2.9,4.5 0.8,1.2 0.8,1.2 z m -5.8,-12.9 -2.5,-3.9 4.7,-8 c 0.5,0.1 0.9,0.2 1.4,0.3 z m 4.1,-13.5 c -0.1,0 -0.2,0 -0.2,0 -0.2,0 -0.3,-0.1 -0.6,-0.1 -0.1,0 -0.1,0 -0.2,-0.1 l 1.2,-2.1 c 0,0 0,0 0,0 0.1,0 0.3,0.1 0.4,0.2 z m 0.8,-7.6 c -0.5,-0.1 -0.9,-0.6 -0.8,-1 0,-0.2 0.1,-0.3 0.1,-0.6 0.1,-0.5 0.6,-0.8 1.1,-0.6 0.3,0.1 0.4,0.1 0.7,0.1 0.1,0 0.2,0.1 0.2,0.1 -0.1,0.1 -0.2,0.2 -0.3,0.3 l -1,1.7 c 0,0.1 0,0 0,0 z"
       id="path4"
       inkscape:connector-curvature="0"
       style="stroke-width:0.8774122" /><path
       d="m 59.7,70.7 c 1.1,1.6 2.8,2.5 4.6,2.5 1,0 2.1,-0.3 3,-0.9 2.6,-1.7 3.3,-5.1 1.6,-7.7 -1.7,-2.6 -5.1,-3.3 -7.7,-1.6 -2.4,1.7 -3.1,5.1 -1.5,7.7 z m 2.8,-5.9 c 1.6,-1 3.7,-0.6 4.7,1 1,1.6 0.6,3.7 -1,4.7 -1.6,1 -3.7,0.6 -4.7,-1 -1,-1.6 -0.5,-3.7 1,-4.7 z"
       id="path6"
       inkscape:connector-curvature="0"
       style="stroke-width:0.8774122" /><circle
       transform="matrix(0.8384,-0.5451,0.5451,0.8384,-19.1266,36.2608)"
       cx="51.599998"
       cy="50.400002"
       id="ellipse8"
       r="1.3"
       style="stroke-width:0.8774122" /></g></svg>