<?xml version="1.0" encoding="UTF-8" standalone="no"?>
<svg
   xmlns:dc="http://purl.org/dc/elements/1.1/"
   xmlns:cc="http://creativecommons.org/ns#"
   xmlns:rdf="http://www.w3.org/1999/02/22-rdf-syntax-ns#"
   xmlns:svg="http://www.w3.org/2000/svg"
   xmlns="http://www.w3.org/2000/svg"
   xmlns:sodipodi="http://sodipodi.sourceforge.net/DTD/sodipodi-0.dtd"
   xmlns:inkscape="http://www.inkscape.org/namespaces/inkscape"
   version="1.1"
   x="0px"
   y="0px"
   viewBox="0 0 100 100"
   enable-background="new 0 0 100 100"
   xml:space="preserve"
   id="svg24"
   sodipodi:docname="youtubeplay.svg"
   width="100"
   height="100"
   inkscape:version="0.92.1 r15371"><metadata
     id="metadata30"><rdf:RDF><cc:Work
         rdf:about=""><dc:format>image/svg+xml</dc:format><dc:type
           rdf:resource="http://purl.org/dc/dcmitype/StillImage" /><dc:title></dc:title></cc:Work></rdf:RDF></metadata><defs
     id="defs28" /><sodipodi:namedview
     pagecolor="#ffffff"
     bordercolor="#666666"
     borderopacity="1"
     objecttolerance="10"
     gridtolerance="10"
     guidetolerance="10"
     inkscape:pageopacity="0"
     inkscape:pageshadow="2"
     inkscape:window-width="2560"
     inkscape:window-height="1506"
     id="namedview26"
     showgrid="false"
     inkscape:zoom="3.776"
     inkscape:cx="149.66866"
     inkscape:cy="36.644364"
     inkscape:window-x="-11"
     inkscape:window-y="-11"
     inkscape:window-maximized="1"
     inkscape:current-layer="svg24" /><g
     transform="matrix(2.6411852,0,0,2.6411852,6.1667209,-2676.1449)"
     id="g16"
     style="stroke-width:0.37861788"><g
       id="g14"
       style="stroke-width:0.37861788"><path
         inkscape:connector-curvature="0"
         transform="translate(0,1020.3622)"
         d="M 1,3 C 0.447,3 0,3.4859844 0,4.0839844 V 27.916016 C 0,28.515016 0.447,29 1,29 h 30 c 0.553,0 1,-0.484984 1,-1.083984 V 4.0839844 C 32,3.4849844 31.553,3 31,3 Z m 22,1 c 0.553,0 1,0.447 1,1 0,0.553 -0.447,1 -1,1 -0.553,0 -1,-0.447 -1,-1 0,-0.553 0.447,-1 1,-1 z m 3,0 c 0.553,0 1,0.447 1,1 0,0.553 -0.447,1 -1,1 -0.553,0 -1,-0.447 -1,-1 0,-0.553 0.447,-1 1,-1 z m 3,0 c 0.553,0 1,0.447 1,1 0,0.553 -0.447,1 -1,1 C 28.447,6 28,5.553 28,5 28,4.447 28.447,4 29,4 Z M 1.9375,7 h 28.125 c 0.518,0 0.939453,0.392 0.939453,0.875 v 19.25 C 31.001953,27.608 30.5805,28 30.0625,28 H 1.9375 C 1.4195,28 1,27.608 1,27.125 V 7.875 C 1,7.392 1.4195,7 1.9375,7 Z"
         style="fill:#000000;stroke-width:0.37861788"
         id="path2" /><path
         inkscape:connector-curvature="0"
         transform="translate(0,1020.3622)"
         d="M 2,8 V 22 H 30 V 8 Z m 12.21875,5.005859 c 0.018,-10e-4 0.05417,0 0.07617,0 0.03,-10e-4 0.07042,-0.012 0.107422,0 0.015,0.001 0.02111,0 0.03711,0 0.125,0.015 0.308719,0.0665 0.511719,0.1875 l 1.572266,1.091797 c 0.175,0.105 0.289234,0.235 0.365234,0.375 0.043,0.061 0.05422,0.126453 0.07422,0.189453 0.007,0.035 0.03416,0.07628 0.03516,0.113282 0.002,0.022 0.001,0.04926 0,0.07226 -0.01,0.101 -0.04137,0.203735 -0.109375,0.302735 -0.076,0.141 -0.190234,0.271953 -0.365234,0.376953 l -1.572266,1.091797 c -0.203,0.122 -0.386719,0.1725 -0.511719,0.1875 -0.046,0.012 -0.108531,10e-4 -0.144531,0 -0.26,-0.004 -0.290969,-0.286844 -0.292969,-0.714844 v -0.07617 -2.40625 -0.03711 c 0,-0.351 0.01353,-0.574735 0.144531,-0.677735 0.024,-0.019 0.03927,-0.06317 0.07227,-0.07617 z"
         style="fill:#000000;stroke-width:0.37861788"
         id="path4" /><rect
         style="fill:#000000;stroke-width:0.37861788"
         height="4"
         width="6"
         y="1043.3623"
         x="2"
         id="rect6" /><rect
         style="fill:#000000;stroke-width:0.37861788"
         height="4"
         width="6"
         y="1043.3623"
         x="9"
         id="rect8" /><rect
         style="fill:#000000;stroke-width:0.37861788"
         height="4"
         width="6"
         y="1043.3623"
         x="16"
         id="rect10" /><rect
         style="fill:#000000;stroke-width:0.37861788"
         height="4"
         width="7"
         y="1043.3623"
         x="23"
         id="rect12" /></g></g><rect
     style="opacity:1;fill:#ffffff;fill-opacity:1;stroke:#000000;stroke-width:0.62362206;stroke-miterlimit:4;stroke-dasharray:none;stroke-opacity:1"
     id="rect4524"
     width="17.213984"
     height="18.538136"
     x="77.860168"
     y="75.900421" /><path
     inkscape:connector-curvature="0"
     d="m 94.647496,72.899458 h -16.55578 c -2.32256,0 -4.22211,1.899551 -4.22211,4.222108 v 16.555785 c 0,2.32206 1.89955,4.222107 4.22211,4.222107 h 16.55578 c 2.32206,0 4.22211,-1.900047 4.22211,-4.222107 V 77.121566 c 0,-2.322557 -1.90005,-4.222108 -4.22211,-4.222108 z M 82.644976,91.198402 V 79.600515 l 9.68245,5.798943 z"
     id="path2-0"
     style="stroke-width:0.99999994" /></svg>